G04 EAGLE Gerber X2 export*
%TF.Part,Single*%
%TF.FileFunction,Soldermask,Bot*%
%TF.FilePolarity,Positive*%
%TF.GenerationSoftware,Autodesk,EAGLE,9.6.2*%
%TF.CreationDate,2023-04-02T12:19:39Z*%
G75*
%MOIN*%
%FSLAX36Y36*%
%LPD*%
%INBottom Solder Mask*%
%AMOC8*
5,1,8,0,0,1.08239X$1,22.5*%
G01*
%ADD10C,0.130047*%
%ADD11P,0.075767X8X292.500000*%
%ADD12C,0.070000*%
%ADD13P,0.064943X8X22.500000*%
%ADD14C,0.068000*%
%ADD15C,0.173984*%
%ADD16C,0.170000*%
%ADD17P,0.080097X8X202.500000*%
%ADD18P,0.064943X8X112.500000*%
%ADD19P,0.064943X8X292.500000*%
%ADD20C,0.082000*%
%ADD21C,0.072000*%
%ADD22C,0.073000*%
%ADD23P,0.080097X8X292.500000*%
%ADD24P,0.064943X8X202.500000*%
%ADD25R,0.047370X0.078866*%


D10*
X1614173Y1771654D03*
X196850Y1653543D03*
X196850Y748031D03*
X1614173Y511811D03*
D11*
X528740Y151575D03*
D12*
X528740Y251575D03*
D11*
X528740Y433465D03*
D12*
X528740Y533465D03*
D13*
X1326772Y1902756D03*
X1426772Y1902756D03*
X1336614Y1764961D03*
X1436614Y1764961D03*
X1223228Y950000D03*
X1323228Y950000D03*
D14*
X215433Y252362D02*
X155433Y252362D01*
X155433Y352362D02*
X215433Y352362D01*
X215433Y452362D02*
X155433Y452362D01*
D15*
X1175283Y223622D03*
D16*
X1463504Y224622D03*
X1300394Y371717D03*
D14*
X227244Y2252362D02*
X167244Y2252362D01*
X167244Y2152362D02*
X227244Y2152362D01*
X227244Y2052362D02*
X167244Y2052362D01*
X167244Y1952362D02*
X227244Y1952362D01*
X227244Y1852362D02*
X167244Y1852362D01*
X190866Y1454331D02*
X250866Y1454331D01*
X250866Y1354331D02*
X190866Y1354331D01*
X190866Y1254331D02*
X250866Y1254331D01*
X250866Y1154331D02*
X190866Y1154331D01*
X190866Y1054331D02*
X250866Y1054331D01*
X250866Y954331D02*
X190866Y954331D01*
D17*
X565354Y1576378D03*
X465354Y1576378D03*
D18*
X1214961Y539764D03*
X1214961Y839764D03*
D19*
X611811Y925591D03*
X611811Y625591D03*
D20*
X1037843Y633441D03*
X781843Y633441D03*
X1037843Y811441D03*
X781843Y811441D03*
D21*
X1021654Y963386D03*
X1021654Y1063386D03*
X1021654Y1163386D03*
X1021654Y1263386D03*
X1021654Y1363386D03*
X1021654Y1463386D03*
X1021654Y1563386D03*
X1021654Y1663386D03*
X1021654Y1763386D03*
X1021654Y1863386D03*
X1021654Y1963386D03*
X1021654Y2063386D03*
X1021654Y2163386D03*
X1021654Y2263386D03*
X721654Y2263386D03*
X721654Y2163386D03*
X721654Y2063386D03*
X721654Y1963386D03*
X721654Y1863386D03*
X721654Y1763386D03*
X721654Y1663386D03*
X721654Y1563386D03*
X721654Y1463386D03*
X721654Y1363386D03*
X721654Y1263386D03*
X721654Y1163386D03*
X721654Y1063386D03*
X721654Y963386D03*
D22*
X1177559Y1935433D03*
X1177559Y1735433D03*
D14*
X1615669Y1972047D02*
X1675669Y1972047D01*
X1675669Y2072047D02*
X1615669Y2072047D01*
X1615669Y2172047D02*
X1675669Y2172047D01*
X1675669Y2272047D02*
X1615669Y2272047D01*
X1615669Y683858D02*
X1675669Y683858D01*
X1675669Y783858D02*
X1615669Y783858D01*
X1615669Y883858D02*
X1675669Y883858D01*
X1675669Y983858D02*
X1615669Y983858D01*
X1615669Y1083858D02*
X1675669Y1083858D01*
X1675669Y1183858D02*
X1615669Y1183858D01*
X1615669Y1283858D02*
X1675669Y1283858D01*
X1675669Y1383858D02*
X1615669Y1383858D01*
X1615669Y1483858D02*
X1675669Y1483858D01*
X1675669Y1583858D02*
X1615669Y1583858D01*
D23*
X472441Y837402D03*
X472441Y737402D03*
D24*
X622441Y1771654D03*
X322441Y1771654D03*
D25*
X811024Y236220D03*
X921260Y236220D03*
D14*
X1426693Y726772D02*
X1486693Y726772D01*
X1486693Y826772D02*
X1426693Y826772D01*
X1426693Y926772D02*
X1486693Y926772D01*
M02*
