G04 EAGLE Gerber X2 export*
%TF.Part,Single*%
%TF.FileFunction,Copper,L2,Bot,Mixed*%
%TF.FilePolarity,Positive*%
%TF.GenerationSoftware,Autodesk,EAGLE,9.6.2*%
%TF.CreationDate,2023-04-02T12:19:39Z*%
G75*
%MOIN*%
%FSLAX36Y36*%
%LPD*%
%INBottom Copper Layer*%
%AMOC8*
5,1,8,0,0,1.08239X$1,22.5*%
G01*
%ADD10P,0.067108X8X292.500000*%
%ADD11C,0.062000*%
%ADD12P,0.056284X8X22.500000*%
%ADD13C,0.060000*%
%ADD14C,0.165984*%
%ADD15C,0.162000*%
%ADD16P,0.071438X8X202.500000*%
%ADD17P,0.056284X8X112.500000*%
%ADD18P,0.056284X8X292.500000*%
%ADD19C,0.074000*%
%ADD20C,0.064000*%
%ADD21C,0.065000*%
%ADD22P,0.071438X8X292.500000*%
%ADD23P,0.056284X8X202.500000*%
%ADD24R,0.039370X0.070866*%
%ADD25C,0.032000*%
%ADD26C,0.050000*%
%ADD27C,0.016000*%
%ADD28C,0.040000*%
%ADD29C,0.020000*%
%ADD30C,0.024000*%

G36*
X1723723Y40008D02*
X1723723Y40008D01*
X1723792Y40002D01*
X1724510Y40086D01*
X1725231Y40158D01*
X1725297Y40178D01*
X1725366Y40186D01*
X1726053Y40410D01*
X1726747Y40623D01*
X1726808Y40656D01*
X1726874Y40677D01*
X1727502Y41032D01*
X1728141Y41378D01*
X1728194Y41422D01*
X1728254Y41456D01*
X1728803Y41929D01*
X1729359Y42393D01*
X1729402Y42446D01*
X1729455Y42492D01*
X1729900Y43065D01*
X1730352Y43628D01*
X1730384Y43689D01*
X1730427Y43744D01*
X1730750Y44394D01*
X1731083Y45035D01*
X1731102Y45101D01*
X1731133Y45164D01*
X1731322Y45865D01*
X1731522Y46558D01*
X1731527Y46627D01*
X1731546Y46694D01*
X1731653Y48000D01*
X1731653Y779983D01*
X1731636Y780148D01*
X1731646Y780314D01*
X1731558Y780935D01*
X1731496Y781560D01*
X1731447Y781719D01*
X1731424Y781884D01*
X1731215Y782475D01*
X1731031Y783076D01*
X1730951Y783222D01*
X1730896Y783379D01*
X1730613Y783853D01*
X1730707Y784041D01*
X1731009Y784590D01*
X1731059Y784748D01*
X1731133Y784898D01*
X1731297Y785506D01*
X1731485Y786102D01*
X1731502Y786267D01*
X1731546Y786428D01*
X1731634Y787501D01*
X1731653Y787679D01*
X1731650Y787706D01*
X1731653Y787734D01*
X1731653Y1579982D01*
X1731636Y1580148D01*
X1731646Y1580314D01*
X1731558Y1580935D01*
X1731496Y1581560D01*
X1731447Y1581719D01*
X1731424Y1581883D01*
X1731215Y1582475D01*
X1731031Y1583076D01*
X1730951Y1583222D01*
X1730896Y1583378D01*
X1730613Y1583853D01*
X1730707Y1584041D01*
X1731009Y1584590D01*
X1731059Y1584748D01*
X1731133Y1584898D01*
X1731297Y1585506D01*
X1731485Y1586103D01*
X1731502Y1586268D01*
X1731546Y1586428D01*
X1731634Y1587504D01*
X1731653Y1587679D01*
X1731650Y1587706D01*
X1731653Y1587734D01*
X1731653Y2314205D01*
X1731646Y2314274D01*
X1731652Y2314343D01*
X1731568Y2315061D01*
X1731496Y2315782D01*
X1731475Y2315849D01*
X1731467Y2315918D01*
X1731243Y2316604D01*
X1731031Y2317298D01*
X1730997Y2317359D01*
X1730976Y2317425D01*
X1730622Y2318053D01*
X1730276Y2318692D01*
X1730231Y2318745D01*
X1730197Y2318806D01*
X1729724Y2319354D01*
X1729261Y2319910D01*
X1729207Y2319953D01*
X1729161Y2320006D01*
X1728588Y2320451D01*
X1728026Y2320903D01*
X1727964Y2320935D01*
X1727909Y2320978D01*
X1727259Y2321301D01*
X1726619Y2321634D01*
X1726552Y2321653D01*
X1726490Y2321684D01*
X1725789Y2321873D01*
X1725095Y2322073D01*
X1725026Y2322079D01*
X1724959Y2322097D01*
X1723654Y2322204D01*
X1688869Y2322204D01*
X1688851Y2322202D01*
X1688834Y2322204D01*
X1688066Y2322124D01*
X1687291Y2322047D01*
X1687275Y2322042D01*
X1687258Y2322040D01*
X1686524Y2321812D01*
X1685776Y2321582D01*
X1685760Y2321573D01*
X1685744Y2321568D01*
X1685066Y2321197D01*
X1684382Y2320827D01*
X1684369Y2320816D01*
X1684353Y2320807D01*
X1683760Y2320309D01*
X1683164Y2319812D01*
X1683153Y2319798D01*
X1683140Y2319787D01*
X1682655Y2319180D01*
X1682170Y2318577D01*
X1682162Y2318562D01*
X1682151Y2318548D01*
X1681793Y2317850D01*
X1681440Y2317170D01*
X1681435Y2317153D01*
X1681427Y2317138D01*
X1681215Y2316392D01*
X1681001Y2315647D01*
X1680999Y2315629D01*
X1680995Y2315612D01*
X1680934Y2314835D01*
X1680871Y2314067D01*
X1680873Y2314050D01*
X1680872Y2314032D01*
X1680966Y2313256D01*
X1681055Y2312492D01*
X1681061Y2312475D01*
X1681063Y2312458D01*
X1681306Y2311722D01*
X1681547Y2310985D01*
X1681555Y2310969D01*
X1681561Y2310953D01*
X1681942Y2310283D01*
X1682325Y2309604D01*
X1682337Y2309590D01*
X1682345Y2309576D01*
X1682845Y2309001D01*
X1683361Y2308404D01*
X1683375Y2308393D01*
X1683386Y2308380D01*
X1683999Y2307908D01*
X1684613Y2307431D01*
X1684629Y2307424D01*
X1684643Y2307413D01*
X1685808Y2306814D01*
X1696062Y2302567D01*
X1706189Y2292440D01*
X1711670Y2279208D01*
X1711670Y2264886D01*
X1706189Y2251655D01*
X1696062Y2241527D01*
X1682830Y2236047D01*
X1608508Y2236047D01*
X1595277Y2241527D01*
X1585149Y2251655D01*
X1579818Y2264526D01*
X1579777Y2264602D01*
X1579750Y2264685D01*
X1579405Y2265297D01*
X1579069Y2265923D01*
X1579014Y2265990D01*
X1578971Y2266065D01*
X1578511Y2266599D01*
X1578059Y2267145D01*
X1577992Y2267200D01*
X1577935Y2267266D01*
X1577377Y2267699D01*
X1576828Y2268144D01*
X1576752Y2268185D01*
X1576683Y2268238D01*
X1576049Y2268553D01*
X1575425Y2268881D01*
X1575342Y2268905D01*
X1575264Y2268944D01*
X1574580Y2269128D01*
X1573903Y2269327D01*
X1573817Y2269334D01*
X1573733Y2269357D01*
X1572428Y2269464D01*
X1067653Y2269464D01*
X1067584Y2269457D01*
X1067515Y2269463D01*
X1066797Y2269379D01*
X1066076Y2269307D01*
X1066010Y2269286D01*
X1065941Y2269278D01*
X1065254Y2269055D01*
X1064560Y2268842D01*
X1064499Y2268808D01*
X1064433Y2268787D01*
X1063805Y2268433D01*
X1063166Y2268087D01*
X1063113Y2268042D01*
X1063053Y2268008D01*
X1062504Y2267535D01*
X1061948Y2267072D01*
X1061905Y2267018D01*
X1061852Y2266972D01*
X1061407Y2266399D01*
X1060955Y2265837D01*
X1060923Y2265775D01*
X1060880Y2265720D01*
X1060557Y2265070D01*
X1060224Y2264430D01*
X1060205Y2264363D01*
X1060174Y2264301D01*
X1059985Y2263600D01*
X1059785Y2262906D01*
X1059780Y2262837D01*
X1059761Y2262770D01*
X1059654Y2261465D01*
X1059654Y2255827D01*
X1053869Y2241860D01*
X1043179Y2231170D01*
X1029212Y2225385D01*
X1014095Y2225385D01*
X1000128Y2231170D01*
X989438Y2241860D01*
X983653Y2255827D01*
X983653Y2270945D01*
X989438Y2284911D01*
X1000128Y2295601D01*
X1014095Y2301386D01*
X1029212Y2301386D01*
X1037209Y2298074D01*
X1037325Y2298039D01*
X1037434Y2297985D01*
X1038083Y2297810D01*
X1038727Y2297616D01*
X1038847Y2297604D01*
X1038965Y2297572D01*
X1040270Y2297465D01*
X1586861Y2297465D01*
X1586965Y2297476D01*
X1587069Y2297468D01*
X1587752Y2297554D01*
X1588439Y2297622D01*
X1588538Y2297653D01*
X1588642Y2297666D01*
X1589295Y2297885D01*
X1589954Y2298087D01*
X1590046Y2298137D01*
X1590145Y2298170D01*
X1590742Y2298514D01*
X1591348Y2298842D01*
X1591429Y2298909D01*
X1591519Y2298961D01*
X1592518Y2299808D01*
X1595276Y2302567D01*
X1605531Y2306814D01*
X1605546Y2306822D01*
X1605563Y2306828D01*
X1606246Y2307198D01*
X1606928Y2307563D01*
X1606941Y2307574D01*
X1606957Y2307583D01*
X1607556Y2308082D01*
X1608150Y2308573D01*
X1608161Y2308586D01*
X1608174Y2308597D01*
X1608658Y2309199D01*
X1609149Y2309804D01*
X1609157Y2309819D01*
X1609168Y2309833D01*
X1609523Y2310515D01*
X1609886Y2311207D01*
X1609891Y2311224D01*
X1609899Y2311240D01*
X1610113Y2311981D01*
X1610331Y2312729D01*
X1610333Y2312746D01*
X1610338Y2312763D01*
X1610400Y2313521D01*
X1610468Y2314308D01*
X1610466Y2314326D01*
X1610468Y2314343D01*
X1610379Y2315099D01*
X1610291Y2315884D01*
X1610285Y2315900D01*
X1610283Y2315918D01*
X1610047Y2316643D01*
X1609806Y2317393D01*
X1609797Y2317408D01*
X1609792Y2317425D01*
X1609415Y2318094D01*
X1609033Y2318777D01*
X1609022Y2318791D01*
X1609013Y2318806D01*
X1608506Y2319393D01*
X1608002Y2319982D01*
X1607989Y2319992D01*
X1607977Y2320006D01*
X1607362Y2320483D01*
X1606754Y2320960D01*
X1606739Y2320967D01*
X1606725Y2320978D01*
X1606027Y2321325D01*
X1605338Y2321672D01*
X1605322Y2321676D01*
X1605306Y2321684D01*
X1604558Y2321886D01*
X1603809Y2322091D01*
X1603792Y2322092D01*
X1603775Y2322097D01*
X1602469Y2322204D01*
X48000Y2322204D01*
X47931Y2322197D01*
X47862Y2322203D01*
X47143Y2322119D01*
X46422Y2322047D01*
X46356Y2322027D01*
X46287Y2322018D01*
X45601Y2321795D01*
X44907Y2321582D01*
X44845Y2321549D01*
X44780Y2321527D01*
X44152Y2321173D01*
X43513Y2320827D01*
X43459Y2320782D01*
X43399Y2320748D01*
X42851Y2320275D01*
X42295Y2319812D01*
X42251Y2319758D01*
X42199Y2319713D01*
X41754Y2319139D01*
X41301Y2318577D01*
X41269Y2318515D01*
X41227Y2318460D01*
X40903Y2317811D01*
X40570Y2317170D01*
X40551Y2317104D01*
X40520Y2317041D01*
X40331Y2316340D01*
X40132Y2315647D01*
X40126Y2315577D01*
X40108Y2315510D01*
X40001Y2314205D01*
X40001Y48000D01*
X40008Y47931D01*
X40002Y47862D01*
X40086Y47143D01*
X40158Y46422D01*
X40178Y46356D01*
X40186Y46287D01*
X40410Y45601D01*
X40623Y44907D01*
X40656Y44845D01*
X40677Y44780D01*
X41032Y44152D01*
X41378Y43513D01*
X41422Y43459D01*
X41456Y43399D01*
X41929Y42851D01*
X42393Y42295D01*
X42446Y42251D01*
X42492Y42199D01*
X43065Y41754D01*
X43628Y41301D01*
X43689Y41269D01*
X43744Y41227D01*
X44394Y40903D01*
X45035Y40570D01*
X45101Y40551D01*
X45164Y40520D01*
X45865Y40331D01*
X46558Y40132D01*
X46627Y40126D01*
X46694Y40108D01*
X48000Y40001D01*
X1723654Y40001D01*
X1723723Y40008D01*
G37*
%LPC*%
G36*
X148272Y416361D02*
X148272Y416361D01*
X135040Y421842D01*
X124913Y431969D01*
X119432Y445201D01*
X119432Y459523D01*
X124913Y472755D01*
X135040Y482882D01*
X148272Y488363D01*
X165617Y488363D01*
X165721Y488373D01*
X165825Y488366D01*
X166508Y488452D01*
X167195Y488520D01*
X167295Y488551D01*
X167398Y488563D01*
X168050Y488782D01*
X168711Y488985D01*
X168802Y489035D01*
X168901Y489068D01*
X169497Y489411D01*
X170105Y489740D01*
X170185Y489807D01*
X170275Y489858D01*
X171274Y490706D01*
X230468Y549900D01*
X240314Y559746D01*
X251708Y564465D01*
X487389Y564465D01*
X487493Y564476D01*
X487596Y564468D01*
X488280Y564554D01*
X488967Y564622D01*
X489066Y564653D01*
X489169Y564666D01*
X489822Y564885D01*
X490482Y565087D01*
X490574Y565137D01*
X490672Y565170D01*
X491271Y565514D01*
X491876Y565842D01*
X491956Y565909D01*
X492046Y565961D01*
X493045Y566808D01*
X498581Y572344D01*
X509975Y577064D01*
X522308Y577064D01*
X524004Y576361D01*
X524496Y576212D01*
X524974Y576031D01*
X525251Y575984D01*
X525521Y575903D01*
X526032Y575854D01*
X526538Y575770D01*
X526820Y575779D01*
X527099Y575752D01*
X527608Y575805D01*
X528122Y575822D01*
X528397Y575887D01*
X528676Y575916D01*
X529166Y576069D01*
X529665Y576187D01*
X529921Y576304D01*
X530190Y576388D01*
X530640Y576634D01*
X531106Y576848D01*
X531372Y577035D01*
X531580Y577149D01*
X531811Y577342D01*
X532178Y577600D01*
X576925Y614797D01*
X577255Y615132D01*
X577612Y615440D01*
X577811Y615696D01*
X578037Y615926D01*
X578296Y616320D01*
X578584Y616692D01*
X578728Y616981D01*
X578905Y617252D01*
X579080Y617689D01*
X579291Y618112D01*
X579375Y618424D01*
X579495Y618724D01*
X579580Y619187D01*
X579703Y619642D01*
X579734Y620020D01*
X579783Y620283D01*
X579778Y620557D01*
X579810Y620948D01*
X579810Y638845D01*
X598556Y657591D01*
X625066Y657591D01*
X643812Y638845D01*
X643812Y612336D01*
X625066Y593590D01*
X598107Y593590D01*
X597581Y593537D01*
X597050Y593520D01*
X596793Y593459D01*
X596530Y593433D01*
X596023Y593277D01*
X595507Y593155D01*
X595267Y593045D01*
X595014Y592968D01*
X594548Y592715D01*
X594066Y592494D01*
X593818Y592320D01*
X593620Y592213D01*
X593382Y592014D01*
X592994Y591742D01*
X571189Y573616D01*
X570906Y573329D01*
X570597Y573072D01*
X570351Y572766D01*
X570076Y572487D01*
X569855Y572150D01*
X569603Y571836D01*
X569423Y571489D01*
X569208Y571160D01*
X569058Y570786D01*
X568873Y570430D01*
X568764Y570052D01*
X568618Y569688D01*
X568545Y569293D01*
X568434Y568906D01*
X568402Y568516D01*
X568331Y568130D01*
X568337Y567727D01*
X568304Y567326D01*
X568350Y566937D01*
X568356Y566544D01*
X568442Y566151D01*
X568488Y565752D01*
X568610Y565378D01*
X568694Y564995D01*
X568855Y564627D01*
X568980Y564244D01*
X569172Y563903D01*
X569330Y563543D01*
X569561Y563214D01*
X569758Y562864D01*
X570015Y562566D01*
X570240Y562245D01*
X570531Y561969D01*
X570794Y561663D01*
X571105Y561422D01*
X571388Y561152D01*
X571729Y560938D01*
X572047Y560691D01*
X572398Y560516D01*
X572730Y560307D01*
X573105Y560164D01*
X573466Y559985D01*
X573845Y559883D01*
X574211Y559743D01*
X574608Y559677D01*
X574997Y559572D01*
X575468Y559534D01*
X575775Y559483D01*
X576000Y559490D01*
X576302Y559465D01*
X834342Y559465D01*
X834445Y559476D01*
X834549Y559468D01*
X835233Y559554D01*
X835919Y559622D01*
X836019Y559653D01*
X836122Y559666D01*
X836774Y559885D01*
X837435Y560087D01*
X837527Y560137D01*
X837625Y560170D01*
X838222Y560513D01*
X838829Y560842D01*
X838909Y560909D01*
X838999Y560961D01*
X839998Y561808D01*
X877168Y598978D01*
X877234Y599058D01*
X877313Y599126D01*
X877736Y599672D01*
X878172Y600204D01*
X878221Y600296D01*
X878285Y600379D01*
X878592Y600996D01*
X878915Y601605D01*
X878945Y601705D01*
X878991Y601798D01*
X879171Y602463D01*
X879367Y603125D01*
X879377Y603228D01*
X879404Y603329D01*
X879511Y604634D01*
X879511Y1619345D01*
X883469Y1628901D01*
X884562Y1629994D01*
X884607Y1630048D01*
X884659Y1630093D01*
X885106Y1630658D01*
X885567Y1631221D01*
X885599Y1631282D01*
X885642Y1631337D01*
X885969Y1631979D01*
X886310Y1632621D01*
X886329Y1632688D01*
X886361Y1632750D01*
X886554Y1633443D01*
X886762Y1634141D01*
X886768Y1634210D01*
X886786Y1634277D01*
X886839Y1634995D01*
X886905Y1635720D01*
X886898Y1635789D01*
X886903Y1635858D01*
X886813Y1636566D01*
X886734Y1637296D01*
X886713Y1637362D01*
X886705Y1637431D01*
X886475Y1638117D01*
X886256Y1638807D01*
X886222Y1638868D01*
X886200Y1638934D01*
X885839Y1639562D01*
X885489Y1640195D01*
X885444Y1640248D01*
X885410Y1640308D01*
X884562Y1641307D01*
X845420Y1680449D01*
X845366Y1680493D01*
X845321Y1680546D01*
X844756Y1680993D01*
X844194Y1681453D01*
X844132Y1681486D01*
X844078Y1681529D01*
X843435Y1681856D01*
X842793Y1682196D01*
X842726Y1682216D01*
X842665Y1682248D01*
X841971Y1682441D01*
X841273Y1682648D01*
X841204Y1682655D01*
X841138Y1682673D01*
X840419Y1682726D01*
X839695Y1682792D01*
X839625Y1682784D01*
X839556Y1682789D01*
X838842Y1682699D01*
X838119Y1682621D01*
X838052Y1682600D01*
X837984Y1682591D01*
X837298Y1682361D01*
X836607Y1682143D01*
X836546Y1682109D01*
X836481Y1682087D01*
X835853Y1681726D01*
X835220Y1681376D01*
X835167Y1681331D01*
X835107Y1681297D01*
X834107Y1680449D01*
X803043Y1649385D01*
X762331Y1649385D01*
X762245Y1649376D01*
X762158Y1649383D01*
X761457Y1649298D01*
X760753Y1649228D01*
X760670Y1649203D01*
X760584Y1649192D01*
X759916Y1648971D01*
X759238Y1648763D01*
X759161Y1648721D01*
X759079Y1648694D01*
X758467Y1648346D01*
X757844Y1648008D01*
X757777Y1647952D01*
X757702Y1647910D01*
X757170Y1647447D01*
X756626Y1646993D01*
X756571Y1646925D01*
X756506Y1646869D01*
X756075Y1646309D01*
X755632Y1645758D01*
X755592Y1645681D01*
X755539Y1645612D01*
X754940Y1644447D01*
X753869Y1641860D01*
X743179Y1631170D01*
X729212Y1625385D01*
X714095Y1625385D01*
X700128Y1631170D01*
X689438Y1641860D01*
X683653Y1655827D01*
X683653Y1670945D01*
X689438Y1684911D01*
X700128Y1695601D01*
X714095Y1701386D01*
X729212Y1701386D01*
X743179Y1695601D01*
X753869Y1684911D01*
X754940Y1682324D01*
X754982Y1682248D01*
X755008Y1682166D01*
X755355Y1681552D01*
X755689Y1680927D01*
X755745Y1680860D01*
X755787Y1680785D01*
X756250Y1680248D01*
X756699Y1679705D01*
X756766Y1679651D01*
X756823Y1679585D01*
X757381Y1679151D01*
X757930Y1678706D01*
X758007Y1678665D01*
X758075Y1678612D01*
X758706Y1678298D01*
X759334Y1677969D01*
X759417Y1677945D01*
X759494Y1677906D01*
X760178Y1677722D01*
X760855Y1677524D01*
X760942Y1677516D01*
X761025Y1677494D01*
X762331Y1677386D01*
X788131Y1677386D01*
X788235Y1677397D01*
X788339Y1677389D01*
X789022Y1677475D01*
X789709Y1677544D01*
X789808Y1677574D01*
X789912Y1677587D01*
X790564Y1677806D01*
X791224Y1678009D01*
X791316Y1678058D01*
X791414Y1678091D01*
X792011Y1678435D01*
X792618Y1678764D01*
X792698Y1678830D01*
X792789Y1678882D01*
X793788Y1679729D01*
X814307Y1700249D01*
X814352Y1700303D01*
X814404Y1700348D01*
X814853Y1700915D01*
X815312Y1701476D01*
X815344Y1701537D01*
X815387Y1701592D01*
X815716Y1702237D01*
X816055Y1702876D01*
X816075Y1702943D01*
X816106Y1703005D01*
X816299Y1703698D01*
X816507Y1704396D01*
X816513Y1704465D01*
X816531Y1704532D01*
X816584Y1705250D01*
X816650Y1705975D01*
X816643Y1706044D01*
X816648Y1706113D01*
X816558Y1706828D01*
X816479Y1707551D01*
X816458Y1707617D01*
X816450Y1707686D01*
X816220Y1708372D01*
X816001Y1709062D01*
X815968Y1709123D01*
X815945Y1709189D01*
X815584Y1709817D01*
X815234Y1710450D01*
X815189Y1710503D01*
X815155Y1710563D01*
X814307Y1711562D01*
X778827Y1747042D01*
X778746Y1747108D01*
X778679Y1747187D01*
X778133Y1747610D01*
X777600Y1748047D01*
X777509Y1748095D01*
X777426Y1748159D01*
X776808Y1748467D01*
X776200Y1748789D01*
X776100Y1748819D01*
X776007Y1748865D01*
X775342Y1749045D01*
X774680Y1749241D01*
X774576Y1749251D01*
X774476Y1749278D01*
X773171Y1749385D01*
X762331Y1749385D01*
X762244Y1749376D01*
X762158Y1749383D01*
X761456Y1749298D01*
X760753Y1749228D01*
X760670Y1749203D01*
X760584Y1749192D01*
X759915Y1748971D01*
X759238Y1748763D01*
X759161Y1748721D01*
X759079Y1748694D01*
X758466Y1748345D01*
X757844Y1748008D01*
X757777Y1747952D01*
X757701Y1747909D01*
X757168Y1747445D01*
X756626Y1746993D01*
X756571Y1746926D01*
X756506Y1746868D01*
X756073Y1746306D01*
X755632Y1745758D01*
X755592Y1745681D01*
X755539Y1745612D01*
X754940Y1744447D01*
X753869Y1741860D01*
X743179Y1731170D01*
X729212Y1725385D01*
X714095Y1725385D01*
X700128Y1731170D01*
X689438Y1741860D01*
X683653Y1755827D01*
X683653Y1770945D01*
X689438Y1784911D01*
X700128Y1795601D01*
X714095Y1801386D01*
X729212Y1801386D01*
X743179Y1795601D01*
X753869Y1784911D01*
X754940Y1782325D01*
X754981Y1782248D01*
X755008Y1782166D01*
X755355Y1781551D01*
X755689Y1780927D01*
X755744Y1780860D01*
X755787Y1780785D01*
X756250Y1780249D01*
X756699Y1779705D01*
X756766Y1779651D01*
X756823Y1779585D01*
X757382Y1779151D01*
X757930Y1778706D01*
X758007Y1778665D01*
X758075Y1778612D01*
X758708Y1778297D01*
X759333Y1777969D01*
X759416Y1777945D01*
X759494Y1777906D01*
X760178Y1777722D01*
X760855Y1777524D01*
X760942Y1777516D01*
X761025Y1777494D01*
X762331Y1777386D01*
X788083Y1777386D01*
X856107Y1709362D01*
X979342Y1586127D01*
X979388Y1586089D01*
X979417Y1586056D01*
X979422Y1586052D01*
X979440Y1586031D01*
X980008Y1585582D01*
X980568Y1585123D01*
X980629Y1585091D01*
X980684Y1585047D01*
X981329Y1584719D01*
X981969Y1584380D01*
X982036Y1584360D01*
X982097Y1584329D01*
X982790Y1584136D01*
X983488Y1583928D01*
X983558Y1583922D01*
X983624Y1583903D01*
X984342Y1583851D01*
X985067Y1583785D01*
X985136Y1583792D01*
X985205Y1583787D01*
X985920Y1583877D01*
X986643Y1583956D01*
X986710Y1583977D01*
X986778Y1583985D01*
X987465Y1584216D01*
X988155Y1584434D01*
X988215Y1584467D01*
X988281Y1584489D01*
X988912Y1584852D01*
X989542Y1585201D01*
X989595Y1585245D01*
X989655Y1585280D01*
X990654Y1586128D01*
X1000128Y1595601D01*
X1014095Y1601386D01*
X1029212Y1601386D01*
X1043179Y1595601D01*
X1053869Y1584911D01*
X1054940Y1582325D01*
X1054981Y1582248D01*
X1055008Y1582166D01*
X1055355Y1581551D01*
X1055689Y1580927D01*
X1055744Y1580860D01*
X1055787Y1580785D01*
X1056250Y1580249D01*
X1056699Y1579705D01*
X1056766Y1579651D01*
X1056823Y1579585D01*
X1057382Y1579151D01*
X1057930Y1578706D01*
X1058007Y1578665D01*
X1058075Y1578612D01*
X1058708Y1578297D01*
X1059333Y1577969D01*
X1059416Y1577945D01*
X1059494Y1577906D01*
X1060178Y1577722D01*
X1060855Y1577524D01*
X1060942Y1577516D01*
X1061025Y1577494D01*
X1062331Y1577386D01*
X1080209Y1577386D01*
X1184559Y1473036D01*
X1184639Y1472970D01*
X1184707Y1472892D01*
X1185252Y1472469D01*
X1185785Y1472032D01*
X1185877Y1471983D01*
X1185959Y1471920D01*
X1186577Y1471612D01*
X1187186Y1471289D01*
X1187286Y1471260D01*
X1187379Y1471213D01*
X1188043Y1471034D01*
X1188705Y1470837D01*
X1188809Y1470828D01*
X1188909Y1470801D01*
X1190215Y1470694D01*
X1530651Y1470694D01*
X1530755Y1470704D01*
X1530858Y1470696D01*
X1531542Y1470782D01*
X1532228Y1470851D01*
X1532328Y1470881D01*
X1532431Y1470894D01*
X1533083Y1471113D01*
X1533744Y1471316D01*
X1533836Y1471365D01*
X1533934Y1471398D01*
X1534531Y1471742D01*
X1535138Y1472071D01*
X1535218Y1472137D01*
X1535308Y1472189D01*
X1536307Y1473036D01*
X1561130Y1497859D01*
X1577157Y1497859D01*
X1577243Y1497867D01*
X1577330Y1497861D01*
X1578032Y1497946D01*
X1578734Y1498016D01*
X1578817Y1498041D01*
X1578903Y1498052D01*
X1579573Y1498273D01*
X1580250Y1498481D01*
X1580327Y1498523D01*
X1580409Y1498550D01*
X1581021Y1498899D01*
X1581644Y1499236D01*
X1581711Y1499292D01*
X1581786Y1499335D01*
X1582320Y1499799D01*
X1582862Y1500251D01*
X1582916Y1500318D01*
X1582982Y1500375D01*
X1583415Y1500938D01*
X1583855Y1501486D01*
X1583895Y1501563D01*
X1583948Y1501632D01*
X1584547Y1502797D01*
X1585149Y1504251D01*
X1595277Y1514378D01*
X1608508Y1519859D01*
X1682830Y1519859D01*
X1696062Y1514378D01*
X1706189Y1504251D01*
X1711670Y1491019D01*
X1711670Y1476697D01*
X1706189Y1463466D01*
X1696062Y1453338D01*
X1682830Y1447858D01*
X1608508Y1447858D01*
X1595277Y1453338D01*
X1585149Y1463466D01*
X1584547Y1464919D01*
X1584506Y1464996D01*
X1584479Y1465078D01*
X1584133Y1465693D01*
X1583798Y1466317D01*
X1583743Y1466384D01*
X1583700Y1466459D01*
X1583240Y1466993D01*
X1582789Y1467539D01*
X1582721Y1467594D01*
X1582665Y1467659D01*
X1582107Y1468092D01*
X1581558Y1468538D01*
X1581481Y1468578D01*
X1581412Y1468632D01*
X1580781Y1468946D01*
X1580154Y1469275D01*
X1580071Y1469299D01*
X1579993Y1469338D01*
X1579311Y1469522D01*
X1578633Y1469720D01*
X1578546Y1469728D01*
X1578462Y1469750D01*
X1577157Y1469858D01*
X1576042Y1469858D01*
X1575938Y1469847D01*
X1575835Y1469855D01*
X1575151Y1469769D01*
X1574464Y1469700D01*
X1574365Y1469670D01*
X1574262Y1469657D01*
X1573609Y1469438D01*
X1572949Y1469235D01*
X1572857Y1469186D01*
X1572759Y1469153D01*
X1572162Y1468809D01*
X1571555Y1468480D01*
X1571475Y1468414D01*
X1571385Y1468362D01*
X1570385Y1467515D01*
X1545563Y1442692D01*
X1175303Y1442692D01*
X1070953Y1547042D01*
X1070872Y1547108D01*
X1070805Y1547187D01*
X1070259Y1547610D01*
X1069726Y1548047D01*
X1069635Y1548095D01*
X1069552Y1548159D01*
X1068935Y1548466D01*
X1068326Y1548789D01*
X1068226Y1548819D01*
X1068133Y1548865D01*
X1067468Y1549045D01*
X1066806Y1549241D01*
X1066702Y1549251D01*
X1066602Y1549278D01*
X1065297Y1549385D01*
X1062331Y1549385D01*
X1062244Y1549376D01*
X1062158Y1549383D01*
X1061456Y1549298D01*
X1060753Y1549228D01*
X1060670Y1549203D01*
X1060584Y1549192D01*
X1059915Y1548971D01*
X1059238Y1548763D01*
X1059161Y1548721D01*
X1059079Y1548694D01*
X1058466Y1548345D01*
X1057844Y1548008D01*
X1057777Y1547952D01*
X1057701Y1547909D01*
X1057168Y1547445D01*
X1056626Y1546993D01*
X1056571Y1546926D01*
X1056506Y1546868D01*
X1056072Y1546305D01*
X1055632Y1545758D01*
X1055592Y1545681D01*
X1055539Y1545612D01*
X1054940Y1544447D01*
X1053869Y1541860D01*
X1043179Y1531170D01*
X1029212Y1525385D01*
X1014095Y1525385D01*
X1000128Y1531170D01*
X988429Y1542869D01*
X988273Y1543058D01*
X988202Y1543117D01*
X988141Y1543187D01*
X987587Y1543617D01*
X987044Y1544059D01*
X986962Y1544102D01*
X986889Y1544159D01*
X986260Y1544472D01*
X985641Y1544798D01*
X985553Y1544824D01*
X985469Y1544865D01*
X984792Y1545048D01*
X984120Y1545246D01*
X984028Y1545254D01*
X983939Y1545278D01*
X982633Y1545385D01*
X952719Y1545385D01*
X946102Y1548126D01*
X945168Y1549060D01*
X945141Y1549082D01*
X945119Y1549109D01*
X944528Y1549584D01*
X943942Y1550064D01*
X943911Y1550081D01*
X943884Y1550103D01*
X943212Y1550452D01*
X942541Y1550807D01*
X942508Y1550817D01*
X942477Y1550833D01*
X941749Y1551043D01*
X941022Y1551259D01*
X940987Y1551263D01*
X940953Y1551272D01*
X940203Y1551334D01*
X939443Y1551403D01*
X939408Y1551399D01*
X939374Y1551402D01*
X938623Y1551314D01*
X937867Y1551232D01*
X937834Y1551222D01*
X937799Y1551218D01*
X937076Y1550982D01*
X936355Y1550754D01*
X936325Y1550737D01*
X936292Y1550726D01*
X935633Y1550355D01*
X934968Y1549987D01*
X934941Y1549965D01*
X934911Y1549948D01*
X934337Y1549453D01*
X933759Y1548962D01*
X933737Y1548935D01*
X933711Y1548912D01*
X933245Y1548312D01*
X932776Y1547718D01*
X932760Y1547687D01*
X932738Y1547660D01*
X932398Y1546975D01*
X932057Y1546305D01*
X932048Y1546272D01*
X932032Y1546240D01*
X931834Y1545506D01*
X931631Y1544778D01*
X931629Y1544743D01*
X931620Y1544710D01*
X931512Y1543404D01*
X931512Y604634D01*
X931523Y604531D01*
X931515Y604427D01*
X931601Y603744D01*
X931670Y603057D01*
X931700Y602957D01*
X931713Y602854D01*
X931932Y602202D01*
X932135Y601541D01*
X932184Y601449D01*
X932217Y601351D01*
X932561Y600755D01*
X932890Y600147D01*
X932956Y600067D01*
X933008Y599977D01*
X933855Y598978D01*
X964726Y568107D01*
X964807Y568041D01*
X964875Y567963D01*
X965420Y567539D01*
X965953Y567103D01*
X966044Y567054D01*
X966127Y566990D01*
X966745Y566683D01*
X967353Y566360D01*
X967453Y566330D01*
X967546Y566284D01*
X968211Y566105D01*
X968873Y565908D01*
X968977Y565899D01*
X969077Y565872D01*
X970382Y565764D01*
X1192392Y565764D01*
X1192496Y565775D01*
X1192599Y565767D01*
X1193283Y565853D01*
X1193970Y565922D01*
X1194069Y565952D01*
X1194172Y565965D01*
X1194824Y566184D01*
X1195485Y566387D01*
X1195577Y566436D01*
X1195675Y566469D01*
X1196272Y566813D01*
X1196879Y567141D01*
X1196959Y567208D01*
X1197049Y567260D01*
X1198048Y568107D01*
X1201706Y571764D01*
X1228216Y571764D01*
X1235873Y564107D01*
X1235953Y564041D01*
X1236021Y563963D01*
X1236566Y563539D01*
X1237099Y563103D01*
X1237191Y563054D01*
X1237273Y562990D01*
X1237891Y562683D01*
X1238500Y562360D01*
X1238600Y562330D01*
X1238693Y562284D01*
X1239357Y562105D01*
X1240019Y561908D01*
X1240123Y561899D01*
X1240223Y561872D01*
X1241529Y561764D01*
X1410408Y561764D01*
X1410512Y561775D01*
X1410615Y561767D01*
X1411299Y561853D01*
X1411986Y561922D01*
X1412085Y561952D01*
X1412188Y561965D01*
X1412840Y562184D01*
X1413501Y562387D01*
X1413593Y562436D01*
X1413691Y562469D01*
X1414288Y562813D01*
X1414895Y563141D01*
X1414975Y563208D01*
X1415065Y563260D01*
X1416064Y564107D01*
X1432349Y580392D01*
X1432415Y580473D01*
X1432494Y580541D01*
X1432917Y581086D01*
X1433354Y581619D01*
X1433402Y581711D01*
X1433466Y581793D01*
X1433773Y582410D01*
X1434096Y583019D01*
X1434126Y583119D01*
X1434172Y583212D01*
X1434352Y583877D01*
X1434548Y584539D01*
X1434558Y584643D01*
X1434585Y584743D01*
X1434692Y586048D01*
X1434692Y682772D01*
X1434685Y682841D01*
X1434691Y682910D01*
X1434607Y683626D01*
X1434535Y684349D01*
X1434515Y684415D01*
X1434507Y684484D01*
X1434283Y685171D01*
X1434070Y685865D01*
X1434037Y685926D01*
X1434015Y685992D01*
X1433661Y686620D01*
X1433315Y687259D01*
X1433271Y687312D01*
X1433237Y687373D01*
X1432765Y687919D01*
X1432300Y688477D01*
X1432246Y688520D01*
X1432201Y688573D01*
X1431627Y689018D01*
X1431065Y689470D01*
X1431003Y689502D01*
X1430949Y689545D01*
X1430299Y689868D01*
X1429658Y690201D01*
X1429592Y690220D01*
X1429529Y690251D01*
X1428828Y690440D01*
X1428135Y690640D01*
X1428066Y690646D01*
X1427999Y690664D01*
X1426693Y690771D01*
X1419532Y690771D01*
X1406300Y696252D01*
X1396173Y706379D01*
X1390692Y719611D01*
X1390692Y733933D01*
X1396173Y747164D01*
X1406300Y757292D01*
X1419532Y762772D01*
X1493854Y762772D01*
X1507086Y757292D01*
X1517213Y747164D01*
X1522694Y733933D01*
X1522694Y719611D01*
X1518265Y708919D01*
X1518250Y708869D01*
X1518226Y708823D01*
X1518022Y708114D01*
X1517806Y707402D01*
X1517802Y707350D01*
X1517787Y707300D01*
X1517727Y706562D01*
X1517656Y705824D01*
X1517662Y705772D01*
X1517657Y705720D01*
X1517744Y704983D01*
X1517820Y704247D01*
X1517836Y704197D01*
X1517842Y704145D01*
X1518071Y703442D01*
X1518292Y702733D01*
X1518317Y702687D01*
X1518333Y702638D01*
X1518696Y701995D01*
X1519053Y701342D01*
X1519086Y701303D01*
X1519112Y701257D01*
X1519596Y700696D01*
X1520073Y700129D01*
X1520113Y700097D01*
X1520148Y700057D01*
X1520733Y699603D01*
X1521312Y699141D01*
X1521359Y699117D01*
X1521400Y699085D01*
X1522063Y698755D01*
X1522722Y698416D01*
X1522772Y698402D01*
X1522819Y698379D01*
X1523535Y698186D01*
X1524248Y697984D01*
X1524299Y697980D01*
X1524350Y697966D01*
X1525655Y697859D01*
X1577157Y697859D01*
X1577243Y697867D01*
X1577330Y697861D01*
X1578032Y697946D01*
X1578734Y698016D01*
X1578817Y698041D01*
X1578903Y698052D01*
X1579573Y698273D01*
X1580250Y698481D01*
X1580327Y698523D01*
X1580409Y698550D01*
X1581021Y698899D01*
X1581644Y699236D01*
X1581711Y699292D01*
X1581786Y699335D01*
X1582320Y699799D01*
X1582862Y700251D01*
X1582916Y700318D01*
X1582982Y700375D01*
X1583415Y700938D01*
X1583855Y701486D01*
X1583895Y701563D01*
X1583948Y701632D01*
X1584547Y702797D01*
X1585149Y704251D01*
X1595277Y714378D01*
X1608508Y719859D01*
X1682830Y719859D01*
X1696062Y714378D01*
X1706189Y704251D01*
X1711670Y691019D01*
X1711670Y676697D01*
X1706189Y663466D01*
X1696062Y653338D01*
X1682830Y647858D01*
X1608508Y647858D01*
X1595277Y653338D01*
X1585149Y663466D01*
X1584547Y664919D01*
X1584506Y664996D01*
X1584479Y665078D01*
X1584133Y665693D01*
X1583798Y666317D01*
X1583743Y666384D01*
X1583700Y666459D01*
X1583240Y666993D01*
X1582789Y667539D01*
X1582721Y667594D01*
X1582665Y667659D01*
X1582107Y668092D01*
X1581558Y668538D01*
X1581481Y668578D01*
X1581412Y668632D01*
X1580781Y668946D01*
X1580154Y669275D01*
X1580071Y669299D01*
X1579993Y669338D01*
X1579311Y669522D01*
X1578633Y669720D01*
X1578546Y669728D01*
X1578462Y669750D01*
X1577157Y669858D01*
X1493807Y669858D01*
X1492349Y671315D01*
X1492322Y671337D01*
X1492300Y671364D01*
X1491711Y671838D01*
X1491123Y672320D01*
X1491092Y672336D01*
X1491065Y672358D01*
X1490396Y672705D01*
X1489722Y673063D01*
X1489689Y673072D01*
X1489658Y673088D01*
X1488928Y673299D01*
X1488203Y673515D01*
X1488168Y673518D01*
X1488135Y673527D01*
X1487382Y673589D01*
X1486624Y673658D01*
X1486589Y673654D01*
X1486555Y673657D01*
X1485805Y673569D01*
X1485048Y673487D01*
X1485015Y673477D01*
X1484980Y673473D01*
X1484262Y673239D01*
X1483536Y673009D01*
X1483505Y672992D01*
X1483473Y672982D01*
X1482817Y672612D01*
X1482149Y672242D01*
X1482122Y672220D01*
X1482092Y672203D01*
X1481514Y671704D01*
X1480940Y671217D01*
X1480918Y671190D01*
X1480892Y671167D01*
X1480424Y670564D01*
X1479957Y669973D01*
X1479941Y669942D01*
X1479920Y669915D01*
X1479581Y669235D01*
X1479238Y668560D01*
X1479229Y668527D01*
X1479213Y668495D01*
X1479016Y667763D01*
X1478812Y667033D01*
X1478810Y666998D01*
X1478801Y666965D01*
X1478694Y665659D01*
X1478694Y569246D01*
X1475344Y561160D01*
X1435297Y521112D01*
X1427211Y517763D01*
X1241529Y517763D01*
X1241425Y517753D01*
X1241322Y517760D01*
X1240638Y517674D01*
X1239952Y517606D01*
X1239852Y517575D01*
X1239749Y517562D01*
X1239097Y517344D01*
X1238436Y517141D01*
X1238344Y517091D01*
X1238246Y517058D01*
X1237649Y516715D01*
X1237042Y516386D01*
X1236962Y516319D01*
X1236872Y516267D01*
X1235873Y515420D01*
X1228216Y507763D01*
X1201706Y507763D01*
X1198048Y511420D01*
X1197968Y511486D01*
X1197900Y511565D01*
X1197355Y511988D01*
X1196822Y512424D01*
X1196730Y512473D01*
X1196648Y512537D01*
X1196031Y512844D01*
X1195421Y513167D01*
X1195322Y513197D01*
X1195228Y513243D01*
X1194564Y513422D01*
X1193902Y513619D01*
X1193798Y513629D01*
X1193698Y513656D01*
X1192392Y513763D01*
X951127Y513763D01*
X941571Y517721D01*
X911168Y548124D01*
X911114Y548169D01*
X911069Y548221D01*
X910502Y548670D01*
X909941Y549129D01*
X909881Y549161D01*
X909826Y549204D01*
X909180Y549532D01*
X908541Y549872D01*
X908474Y549891D01*
X908413Y549923D01*
X907719Y550116D01*
X907021Y550324D01*
X906952Y550330D01*
X906885Y550348D01*
X906167Y550401D01*
X905443Y550467D01*
X905373Y550460D01*
X905304Y550465D01*
X904589Y550375D01*
X903867Y550296D01*
X903800Y550275D01*
X903731Y550267D01*
X903046Y550037D01*
X902355Y549818D01*
X902294Y549784D01*
X902228Y549762D01*
X901601Y549401D01*
X900968Y549051D01*
X900915Y549006D01*
X900854Y548972D01*
X899855Y548124D01*
X863153Y511422D01*
X853597Y507464D01*
X558380Y507464D01*
X558276Y507453D01*
X558172Y507461D01*
X557489Y507375D01*
X556802Y507307D01*
X556703Y507276D01*
X556600Y507263D01*
X555947Y507044D01*
X555287Y506842D01*
X555195Y506792D01*
X555097Y506759D01*
X554500Y506416D01*
X553893Y506087D01*
X553813Y506020D01*
X553723Y505968D01*
X552723Y505121D01*
X549699Y502097D01*
X536100Y496464D01*
X521380Y496464D01*
X508365Y501855D01*
X508249Y501890D01*
X508140Y501944D01*
X507490Y502119D01*
X506847Y502313D01*
X506726Y502325D01*
X506609Y502357D01*
X505304Y502464D01*
X274028Y502464D01*
X273925Y502453D01*
X273821Y502461D01*
X273138Y502375D01*
X272451Y502307D01*
X272351Y502276D01*
X272248Y502263D01*
X271596Y502044D01*
X270935Y501842D01*
X270843Y501792D01*
X270745Y501759D01*
X270149Y501416D01*
X269541Y501087D01*
X269461Y501020D01*
X269371Y500968D01*
X268372Y500121D01*
X248283Y480032D01*
X248228Y479965D01*
X248163Y479909D01*
X247727Y479354D01*
X247279Y478806D01*
X247238Y478729D01*
X247185Y478661D01*
X246868Y478031D01*
X246536Y477405D01*
X246511Y477322D01*
X246472Y477245D01*
X246285Y476562D01*
X246084Y475886D01*
X246076Y475799D01*
X246053Y475716D01*
X246005Y475013D01*
X245941Y474307D01*
X245950Y474220D01*
X245944Y474134D01*
X246035Y473436D01*
X246111Y472731D01*
X246138Y472648D01*
X246149Y472562D01*
X246549Y471315D01*
X251434Y459523D01*
X251434Y445201D01*
X245953Y431969D01*
X235826Y421842D01*
X222594Y416361D01*
X148272Y416361D01*
G37*
%LPD*%
%LPC*%
G36*
X183705Y918330D02*
X183705Y918330D01*
X170473Y923811D01*
X160346Y933938D01*
X154865Y947170D01*
X154865Y961492D01*
X160346Y974723D01*
X170473Y984851D01*
X183705Y990331D01*
X258027Y990331D01*
X271259Y984851D01*
X281386Y974723D01*
X281988Y973270D01*
X282029Y973193D01*
X282056Y973110D01*
X282403Y972496D01*
X282737Y971872D01*
X282792Y971805D01*
X282835Y971730D01*
X283296Y971196D01*
X283747Y970650D01*
X283814Y970595D01*
X283871Y970530D01*
X284428Y970097D01*
X284977Y969651D01*
X285055Y969610D01*
X285123Y969557D01*
X285755Y969243D01*
X286381Y968914D01*
X286464Y968890D01*
X286542Y968851D01*
X287225Y968667D01*
X287903Y968469D01*
X287989Y968461D01*
X288073Y968439D01*
X289379Y968331D01*
X315297Y968331D01*
X315400Y968342D01*
X315504Y968334D01*
X316187Y968420D01*
X316874Y968488D01*
X316974Y968519D01*
X317077Y968532D01*
X317729Y968751D01*
X318390Y968953D01*
X318482Y969003D01*
X318580Y969036D01*
X319176Y969379D01*
X319784Y969708D01*
X319864Y969775D01*
X319954Y969827D01*
X320953Y970674D01*
X387901Y1037623D01*
X675300Y1037623D01*
X675370Y1037566D01*
X675385Y1037557D01*
X675399Y1037546D01*
X676087Y1037185D01*
X676770Y1036823D01*
X676787Y1036818D01*
X676803Y1036810D01*
X677547Y1036592D01*
X678290Y1036371D01*
X678307Y1036369D01*
X678324Y1036364D01*
X679097Y1036297D01*
X679868Y1036227D01*
X679886Y1036229D01*
X679903Y1036227D01*
X680674Y1036314D01*
X681445Y1036398D01*
X681461Y1036403D01*
X681479Y1036405D01*
X682223Y1036644D01*
X682956Y1036876D01*
X682971Y1036884D01*
X682988Y1036890D01*
X683669Y1037270D01*
X684344Y1037643D01*
X684357Y1037654D01*
X684372Y1037663D01*
X684964Y1038169D01*
X685553Y1038668D01*
X685563Y1038682D01*
X685577Y1038693D01*
X686059Y1039309D01*
X686536Y1039912D01*
X686544Y1039927D01*
X686555Y1039941D01*
X686906Y1040641D01*
X687254Y1041325D01*
X687259Y1041342D01*
X687267Y1041358D01*
X687473Y1042109D01*
X687680Y1042852D01*
X687681Y1042870D01*
X687686Y1042886D01*
X687739Y1043656D01*
X687796Y1044433D01*
X687794Y1044451D01*
X687795Y1044468D01*
X687699Y1045209D01*
X687598Y1046006D01*
X687593Y1046023D01*
X687591Y1046040D01*
X687190Y1047287D01*
X683653Y1055827D01*
X683653Y1070945D01*
X684724Y1073531D01*
X684749Y1073614D01*
X684789Y1073692D01*
X684979Y1074373D01*
X685183Y1075049D01*
X685191Y1075136D01*
X685214Y1075219D01*
X685266Y1075923D01*
X685333Y1076627D01*
X685324Y1076713D01*
X685331Y1076800D01*
X685242Y1077502D01*
X685169Y1078204D01*
X685143Y1078287D01*
X685133Y1078373D01*
X684907Y1079045D01*
X684698Y1079717D01*
X684656Y1079793D01*
X684628Y1079876D01*
X684276Y1080488D01*
X683937Y1081108D01*
X683881Y1081175D01*
X683838Y1081250D01*
X682990Y1082249D01*
X679221Y1086019D01*
X679141Y1086084D01*
X679072Y1086163D01*
X678526Y1086587D01*
X677994Y1087023D01*
X677902Y1087072D01*
X677820Y1087135D01*
X677203Y1087443D01*
X676594Y1087766D01*
X676494Y1087795D01*
X676401Y1087842D01*
X675735Y1088021D01*
X675074Y1088218D01*
X674970Y1088227D01*
X674870Y1088254D01*
X673564Y1088361D01*
X287060Y1088361D01*
X287025Y1088358D01*
X286990Y1088361D01*
X286234Y1088279D01*
X285482Y1088204D01*
X285449Y1088194D01*
X285414Y1088190D01*
X284694Y1087962D01*
X283967Y1087739D01*
X283936Y1087723D01*
X283903Y1087712D01*
X283242Y1087347D01*
X282573Y1086984D01*
X282546Y1086962D01*
X282515Y1086945D01*
X281938Y1086455D01*
X281355Y1085969D01*
X281333Y1085942D01*
X281306Y1085920D01*
X280835Y1085323D01*
X280361Y1084734D01*
X280345Y1084703D01*
X280323Y1084676D01*
X279981Y1084002D01*
X279630Y1083327D01*
X279621Y1083294D01*
X279605Y1083263D01*
X279401Y1082532D01*
X279192Y1081804D01*
X279189Y1081769D01*
X279179Y1081735D01*
X279123Y1080975D01*
X279062Y1080224D01*
X279066Y1080189D01*
X279063Y1080154D01*
X279158Y1079398D01*
X279246Y1078649D01*
X279257Y1078616D01*
X279261Y1078582D01*
X279504Y1077857D01*
X279737Y1077142D01*
X279754Y1077112D01*
X279766Y1077079D01*
X280146Y1076418D01*
X280516Y1075761D01*
X280539Y1075735D01*
X280556Y1075705D01*
X281383Y1074730D01*
X286867Y1061492D01*
X286867Y1047170D01*
X281386Y1033938D01*
X271259Y1023811D01*
X258027Y1018330D01*
X183705Y1018330D01*
X170473Y1023811D01*
X160346Y1033938D01*
X154865Y1047170D01*
X154865Y1061492D01*
X160346Y1074723D01*
X170473Y1084851D01*
X183705Y1090331D01*
X233753Y1090331D01*
X233857Y1090342D01*
X233961Y1090334D01*
X234644Y1090420D01*
X235331Y1090488D01*
X235431Y1090519D01*
X235534Y1090532D01*
X236186Y1090751D01*
X236847Y1090953D01*
X236938Y1091003D01*
X237037Y1091036D01*
X237633Y1091379D01*
X238241Y1091708D01*
X238321Y1091775D01*
X238411Y1091827D01*
X239410Y1092674D01*
X251410Y1104674D01*
X251432Y1104701D01*
X251459Y1104723D01*
X251932Y1105312D01*
X252414Y1105901D01*
X252430Y1105932D01*
X252452Y1105959D01*
X252800Y1106628D01*
X253157Y1107301D01*
X253167Y1107335D01*
X253183Y1107366D01*
X253391Y1108087D01*
X253609Y1108821D01*
X253612Y1108856D01*
X253622Y1108889D01*
X253683Y1109636D01*
X253753Y1110400D01*
X253749Y1110435D01*
X253752Y1110469D01*
X253664Y1111216D01*
X253582Y1111976D01*
X253571Y1112009D01*
X253567Y1112044D01*
X253332Y1112765D01*
X253104Y1113487D01*
X253087Y1113518D01*
X253076Y1113551D01*
X252704Y1114211D01*
X252337Y1114875D01*
X252314Y1114901D01*
X252297Y1114932D01*
X251797Y1115511D01*
X251311Y1116084D01*
X251284Y1116105D01*
X251261Y1116132D01*
X250656Y1116602D01*
X250068Y1117067D01*
X250037Y1117083D01*
X250009Y1117104D01*
X249325Y1117445D01*
X248654Y1117785D01*
X248621Y1117795D01*
X248590Y1117810D01*
X247854Y1118008D01*
X247127Y1118211D01*
X247093Y1118214D01*
X247059Y1118223D01*
X245754Y1118330D01*
X183705Y1118330D01*
X170473Y1123811D01*
X160346Y1133938D01*
X154865Y1147170D01*
X154865Y1161492D01*
X160346Y1174723D01*
X170473Y1184851D01*
X183705Y1190331D01*
X212374Y1190331D01*
X212495Y1190343D01*
X212616Y1190335D01*
X213282Y1190422D01*
X213951Y1190488D01*
X214067Y1190524D01*
X214188Y1190540D01*
X215435Y1190940D01*
X223755Y1194386D01*
X236088Y1194386D01*
X244407Y1190940D01*
X244523Y1190905D01*
X244632Y1190851D01*
X245282Y1190676D01*
X245925Y1190482D01*
X246046Y1190470D01*
X246163Y1190439D01*
X247469Y1190331D01*
X258027Y1190331D01*
X271259Y1184851D01*
X276380Y1179729D01*
X276461Y1179663D01*
X276529Y1179585D01*
X277074Y1179161D01*
X277607Y1178725D01*
X277698Y1178676D01*
X277781Y1178612D01*
X278398Y1178305D01*
X279007Y1177982D01*
X279107Y1177953D01*
X279200Y1177906D01*
X279865Y1177727D01*
X280527Y1177530D01*
X280631Y1177521D01*
X280731Y1177494D01*
X282036Y1177386D01*
X680976Y1177386D01*
X681063Y1177395D01*
X681149Y1177388D01*
X681851Y1177474D01*
X682554Y1177544D01*
X682637Y1177569D01*
X682723Y1177579D01*
X683392Y1177801D01*
X684069Y1178009D01*
X684146Y1178050D01*
X684228Y1178077D01*
X684841Y1178426D01*
X685463Y1178764D01*
X685530Y1178819D01*
X685606Y1178862D01*
X686139Y1179327D01*
X686681Y1179778D01*
X686735Y1179846D01*
X686801Y1179903D01*
X687234Y1180466D01*
X687675Y1181014D01*
X687715Y1181090D01*
X687768Y1181159D01*
X688367Y1182325D01*
X689438Y1184911D01*
X700128Y1195601D01*
X714095Y1201386D01*
X729212Y1201386D01*
X743179Y1195601D01*
X753869Y1184911D01*
X759654Y1170945D01*
X759654Y1155827D01*
X753869Y1141860D01*
X743179Y1131170D01*
X729212Y1125385D01*
X714095Y1125385D01*
X700128Y1131170D01*
X689438Y1141860D01*
X688367Y1144447D01*
X688326Y1144523D01*
X688299Y1144606D01*
X687952Y1145221D01*
X687618Y1145844D01*
X687563Y1145911D01*
X687520Y1145987D01*
X687057Y1146523D01*
X686608Y1147066D01*
X686541Y1147121D01*
X686484Y1147187D01*
X685925Y1147621D01*
X685377Y1148066D01*
X685300Y1148106D01*
X685232Y1148159D01*
X684599Y1148474D01*
X683974Y1148802D01*
X683891Y1148827D01*
X683813Y1148865D01*
X683129Y1149049D01*
X682452Y1149248D01*
X682365Y1149255D01*
X682282Y1149278D01*
X680976Y1149385D01*
X293129Y1149385D01*
X293043Y1149376D01*
X292956Y1149383D01*
X292255Y1149298D01*
X291552Y1149228D01*
X291469Y1149203D01*
X291383Y1149192D01*
X290713Y1148970D01*
X290036Y1148763D01*
X289960Y1148722D01*
X289878Y1148694D01*
X289263Y1148344D01*
X288642Y1148008D01*
X288576Y1147953D01*
X288500Y1147910D01*
X287967Y1147446D01*
X287424Y1146993D01*
X287370Y1146925D01*
X287305Y1146868D01*
X286873Y1146308D01*
X286431Y1145758D01*
X286391Y1145681D01*
X286338Y1145612D01*
X285739Y1144447D01*
X281386Y1133938D01*
X277467Y1130018D01*
X277445Y1129992D01*
X277418Y1129969D01*
X276944Y1129380D01*
X276462Y1128792D01*
X276446Y1128761D01*
X276424Y1128734D01*
X276073Y1128057D01*
X275719Y1127391D01*
X275710Y1127358D01*
X275693Y1127327D01*
X275482Y1126595D01*
X275267Y1125872D01*
X275264Y1125837D01*
X275255Y1125804D01*
X275193Y1125052D01*
X275124Y1124293D01*
X275128Y1124258D01*
X275125Y1124224D01*
X275212Y1123476D01*
X275295Y1122717D01*
X275305Y1122684D01*
X275309Y1122649D01*
X275543Y1121933D01*
X275773Y1121205D01*
X275790Y1121175D01*
X275800Y1121142D01*
X276168Y1120490D01*
X276539Y1119818D01*
X276562Y1119791D01*
X276579Y1119761D01*
X277072Y1119190D01*
X277565Y1118609D01*
X277592Y1118587D01*
X277615Y1118561D01*
X278213Y1118096D01*
X278809Y1117626D01*
X278840Y1117610D01*
X278867Y1117589D01*
X279546Y1117251D01*
X280222Y1116907D01*
X280255Y1116898D01*
X280286Y1116883D01*
X281018Y1116685D01*
X281749Y1116482D01*
X281784Y1116479D01*
X281817Y1116470D01*
X283123Y1116363D01*
X688476Y1116363D01*
X699021Y1105819D01*
X699021Y1105818D01*
X702790Y1102049D01*
X702857Y1101994D01*
X702914Y1101928D01*
X703470Y1101492D01*
X704017Y1101045D01*
X704094Y1101004D01*
X704162Y1100950D01*
X704792Y1100633D01*
X705417Y1100302D01*
X705500Y1100277D01*
X705578Y1100238D01*
X706262Y1100051D01*
X706937Y1099850D01*
X707023Y1099842D01*
X707107Y1099819D01*
X707811Y1099770D01*
X708516Y1099706D01*
X708602Y1099716D01*
X708689Y1099710D01*
X709388Y1099801D01*
X710092Y1099877D01*
X710174Y1099903D01*
X710261Y1099914D01*
X711508Y1100315D01*
X714094Y1101386D01*
X729212Y1101386D01*
X743179Y1095601D01*
X753869Y1084911D01*
X759654Y1070945D01*
X759654Y1055827D01*
X753869Y1041860D01*
X743179Y1031170D01*
X729212Y1025385D01*
X714095Y1025385D01*
X705555Y1028922D01*
X705538Y1028928D01*
X705523Y1028936D01*
X704780Y1029157D01*
X704038Y1029381D01*
X704020Y1029383D01*
X704004Y1029388D01*
X703214Y1029459D01*
X702459Y1029531D01*
X702443Y1029529D01*
X702425Y1029531D01*
X701638Y1029446D01*
X700883Y1029367D01*
X700866Y1029362D01*
X700849Y1029360D01*
X700109Y1029126D01*
X699369Y1028896D01*
X699353Y1028887D01*
X699337Y1028882D01*
X698658Y1028507D01*
X697978Y1028135D01*
X697965Y1028124D01*
X697950Y1028115D01*
X697354Y1027610D01*
X696765Y1027115D01*
X696754Y1027101D01*
X696741Y1027090D01*
X696257Y1026477D01*
X695776Y1025875D01*
X695768Y1025860D01*
X695758Y1025846D01*
X695406Y1025155D01*
X695052Y1024465D01*
X695047Y1024448D01*
X695039Y1024433D01*
X694834Y1023696D01*
X694619Y1022940D01*
X694618Y1022922D01*
X694613Y1022906D01*
X694557Y1022136D01*
X694496Y1021359D01*
X694499Y1021342D01*
X694497Y1021325D01*
X694594Y1020560D01*
X694688Y1019785D01*
X694693Y1019769D01*
X694695Y1019752D01*
X694940Y1019023D01*
X695185Y1018280D01*
X695194Y1018265D01*
X695199Y1018249D01*
X695588Y1017573D01*
X695970Y1016903D01*
X695981Y1016890D01*
X695990Y1016875D01*
X696838Y1015876D01*
X708984Y1003729D01*
X709064Y1003664D01*
X709132Y1003585D01*
X709677Y1003162D01*
X710211Y1002725D01*
X710303Y1002676D01*
X710385Y1002612D01*
X711001Y1002306D01*
X711611Y1001982D01*
X711711Y1001953D01*
X711804Y1001906D01*
X712469Y1001727D01*
X713131Y1001530D01*
X713234Y1001521D01*
X713335Y1001494D01*
X714640Y1001386D01*
X729212Y1001386D01*
X743179Y995601D01*
X753869Y984911D01*
X759654Y970945D01*
X759654Y955827D01*
X753869Y941860D01*
X743179Y931170D01*
X729212Y925385D01*
X714095Y925385D01*
X700128Y931170D01*
X689438Y941860D01*
X683653Y955827D01*
X683653Y970945D01*
X687031Y979099D01*
X687056Y979183D01*
X687095Y979260D01*
X687284Y979938D01*
X687489Y980617D01*
X687497Y980703D01*
X687521Y980787D01*
X687572Y981492D01*
X687639Y982195D01*
X687630Y982281D01*
X687637Y982368D01*
X687549Y983069D01*
X687476Y983772D01*
X687450Y983855D01*
X687439Y983941D01*
X687215Y984609D01*
X687004Y985285D01*
X686962Y985362D01*
X686935Y985444D01*
X686582Y986057D01*
X686243Y986676D01*
X686187Y986742D01*
X686144Y986818D01*
X685297Y987817D01*
X665835Y1007278D01*
X665754Y1007344D01*
X665686Y1007423D01*
X665143Y1007845D01*
X664608Y1008283D01*
X664516Y1008332D01*
X664434Y1008395D01*
X663818Y1008702D01*
X663208Y1009026D01*
X663108Y1009055D01*
X663015Y1009102D01*
X662350Y1009281D01*
X661688Y1009478D01*
X661584Y1009487D01*
X661484Y1009514D01*
X660179Y1009621D01*
X402813Y1009621D01*
X402710Y1009611D01*
X402606Y1009619D01*
X401923Y1009533D01*
X401236Y1009464D01*
X401136Y1009434D01*
X401033Y1009421D01*
X400381Y1009202D01*
X399720Y1008999D01*
X399629Y1008949D01*
X399530Y1008916D01*
X398934Y1008573D01*
X398326Y1008244D01*
X398246Y1008178D01*
X398156Y1008126D01*
X397157Y1007278D01*
X330209Y940330D01*
X289379Y940330D01*
X289292Y940321D01*
X289206Y940328D01*
X288503Y940243D01*
X287801Y940173D01*
X287718Y940147D01*
X287632Y940137D01*
X286962Y939915D01*
X286285Y939708D01*
X286209Y939666D01*
X286127Y939639D01*
X285514Y939290D01*
X284891Y938953D01*
X284825Y938897D01*
X284749Y938854D01*
X284216Y938390D01*
X283674Y937938D01*
X283619Y937871D01*
X283554Y937813D01*
X283121Y937251D01*
X282680Y936703D01*
X282640Y936626D01*
X282587Y936557D01*
X281988Y935392D01*
X281386Y933938D01*
X271259Y923811D01*
X258027Y918330D01*
X183705Y918330D01*
G37*
%LPD*%
%LPC*%
G36*
X1029289Y768440D02*
X1029289Y768440D01*
X1013485Y774987D01*
X1001388Y787083D01*
X994842Y802887D01*
X994842Y819994D01*
X1001388Y835799D01*
X1013485Y847895D01*
X1029289Y854442D01*
X1046396Y854442D01*
X1062200Y847895D01*
X1074297Y835799D01*
X1076541Y830380D01*
X1076582Y830303D01*
X1076609Y830221D01*
X1076955Y829608D01*
X1077290Y828982D01*
X1077346Y828915D01*
X1077388Y828840D01*
X1077848Y828307D01*
X1078300Y827760D01*
X1078367Y827705D01*
X1078424Y827640D01*
X1078983Y827206D01*
X1079531Y826761D01*
X1079608Y826721D01*
X1079676Y826668D01*
X1080310Y826352D01*
X1080934Y826024D01*
X1081017Y826000D01*
X1081095Y825961D01*
X1081779Y825777D01*
X1082456Y825579D01*
X1082542Y825571D01*
X1082626Y825549D01*
X1083932Y825442D01*
X1174961Y825442D01*
X1175030Y825448D01*
X1175099Y825443D01*
X1175817Y825527D01*
X1176538Y825599D01*
X1176604Y825619D01*
X1176673Y825627D01*
X1177360Y825851D01*
X1178054Y826064D01*
X1178115Y826097D01*
X1178181Y826118D01*
X1178809Y826473D01*
X1179448Y826819D01*
X1179501Y826863D01*
X1179562Y826897D01*
X1180110Y827370D01*
X1180666Y827834D01*
X1180709Y827887D01*
X1180762Y827933D01*
X1181207Y828506D01*
X1181659Y829069D01*
X1181691Y829130D01*
X1181734Y829185D01*
X1182057Y829835D01*
X1182390Y830476D01*
X1182409Y830542D01*
X1182440Y830604D01*
X1182629Y831305D01*
X1182829Y831999D01*
X1182835Y832068D01*
X1182853Y832135D01*
X1182960Y833441D01*
X1182960Y853019D01*
X1198617Y868676D01*
X1198683Y868756D01*
X1198762Y868824D01*
X1199185Y869369D01*
X1199621Y869902D01*
X1199670Y869994D01*
X1199734Y870077D01*
X1200041Y870694D01*
X1200364Y871303D01*
X1200394Y871403D01*
X1200440Y871496D01*
X1200619Y872161D01*
X1200816Y872822D01*
X1200826Y872926D01*
X1200853Y873027D01*
X1200960Y874332D01*
X1200960Y910531D01*
X1200950Y910634D01*
X1200957Y910738D01*
X1200871Y911422D01*
X1200803Y912108D01*
X1200772Y912208D01*
X1200759Y912311D01*
X1200540Y912963D01*
X1200338Y913624D01*
X1200288Y913716D01*
X1200255Y913814D01*
X1199912Y914411D01*
X1199583Y915018D01*
X1199516Y915098D01*
X1199464Y915188D01*
X1198617Y916187D01*
X1192918Y921886D01*
X1191238Y925943D01*
X1191197Y926020D01*
X1191170Y926102D01*
X1190824Y926716D01*
X1190489Y927340D01*
X1190434Y927407D01*
X1190391Y927483D01*
X1189929Y928019D01*
X1189479Y928563D01*
X1189412Y928617D01*
X1189355Y928683D01*
X1188797Y929117D01*
X1188249Y929562D01*
X1188171Y929602D01*
X1188103Y929655D01*
X1187470Y929970D01*
X1186845Y930298D01*
X1186762Y930323D01*
X1186684Y930361D01*
X1186001Y930546D01*
X1185323Y930744D01*
X1185237Y930751D01*
X1185153Y930774D01*
X1183847Y930881D01*
X1044072Y930881D01*
X1043951Y930869D01*
X1043830Y930877D01*
X1043164Y930791D01*
X1042495Y930724D01*
X1042378Y930688D01*
X1042258Y930673D01*
X1041011Y930272D01*
X1029212Y925385D01*
X1014095Y925385D01*
X1000128Y931170D01*
X989438Y941860D01*
X983653Y955827D01*
X983653Y970945D01*
X989438Y984911D01*
X1000128Y995601D01*
X1014095Y1001386D01*
X1029212Y1001386D01*
X1043179Y995601D01*
X1053869Y984911D01*
X1059654Y970945D01*
X1059654Y966882D01*
X1059661Y966813D01*
X1059655Y966744D01*
X1059739Y966025D01*
X1059811Y965304D01*
X1059832Y965238D01*
X1059840Y965169D01*
X1060063Y964482D01*
X1060276Y963789D01*
X1060310Y963727D01*
X1060331Y963662D01*
X1060685Y963034D01*
X1061031Y962395D01*
X1061076Y962341D01*
X1061110Y962281D01*
X1061583Y961733D01*
X1062046Y961177D01*
X1062100Y961133D01*
X1062146Y961081D01*
X1062719Y960635D01*
X1063281Y960183D01*
X1063343Y960151D01*
X1063398Y960109D01*
X1064048Y959785D01*
X1064688Y959452D01*
X1064755Y959433D01*
X1064817Y959402D01*
X1065518Y959213D01*
X1066212Y959014D01*
X1066281Y959008D01*
X1066348Y958990D01*
X1067653Y958883D01*
X1183542Y958883D01*
X1183645Y958893D01*
X1183749Y958885D01*
X1184432Y958971D01*
X1185119Y959040D01*
X1185219Y959070D01*
X1185322Y959083D01*
X1185974Y959302D01*
X1186635Y959505D01*
X1186727Y959554D01*
X1186825Y959587D01*
X1187421Y959931D01*
X1188029Y960260D01*
X1188109Y960326D01*
X1188199Y960378D01*
X1189198Y961225D01*
X1209973Y982001D01*
X1236483Y982001D01*
X1255229Y963255D01*
X1255229Y936745D01*
X1237790Y919306D01*
X1237746Y919252D01*
X1237694Y919208D01*
X1237245Y918640D01*
X1236786Y918080D01*
X1236754Y918019D01*
X1236710Y917964D01*
X1236382Y917318D01*
X1236043Y916679D01*
X1236023Y916612D01*
X1235992Y916551D01*
X1235799Y915857D01*
X1235591Y915160D01*
X1235585Y915090D01*
X1235566Y915024D01*
X1235514Y914305D01*
X1235448Y913581D01*
X1235455Y913511D01*
X1235450Y913443D01*
X1235540Y912728D01*
X1235618Y912005D01*
X1235640Y911938D01*
X1235648Y911870D01*
X1235878Y911184D01*
X1236097Y910493D01*
X1236130Y910433D01*
X1236152Y910367D01*
X1236516Y909735D01*
X1236864Y909106D01*
X1236908Y909053D01*
X1236943Y908993D01*
X1237790Y907994D01*
X1263299Y882485D01*
X1263379Y882419D01*
X1263447Y882341D01*
X1263992Y881917D01*
X1264525Y881481D01*
X1264617Y881432D01*
X1264700Y881368D01*
X1265318Y881061D01*
X1265926Y880738D01*
X1266025Y880708D01*
X1266119Y880662D01*
X1266784Y880483D01*
X1267445Y880286D01*
X1267549Y880277D01*
X1267650Y880250D01*
X1268955Y880142D01*
X1329470Y880142D01*
X1329573Y880153D01*
X1329677Y880145D01*
X1330360Y880231D01*
X1331047Y880299D01*
X1331147Y880330D01*
X1331250Y880343D01*
X1331902Y880562D01*
X1332563Y880765D01*
X1332655Y880814D01*
X1332753Y880847D01*
X1333350Y881190D01*
X1333957Y881519D01*
X1334037Y881586D01*
X1334127Y881638D01*
X1335126Y882485D01*
X1392479Y939838D01*
X1392557Y939933D01*
X1392648Y940012D01*
X1393058Y940545D01*
X1393484Y941065D01*
X1393540Y941172D01*
X1393615Y941268D01*
X1394213Y942434D01*
X1396173Y947164D01*
X1406300Y957292D01*
X1419532Y962772D01*
X1488273Y962772D01*
X1488308Y962776D01*
X1488342Y962773D01*
X1489101Y962855D01*
X1489851Y962929D01*
X1489884Y962940D01*
X1489918Y962943D01*
X1490638Y963171D01*
X1491366Y963394D01*
X1491397Y963411D01*
X1491430Y963422D01*
X1492089Y963786D01*
X1492760Y964149D01*
X1492787Y964172D01*
X1492817Y964188D01*
X1493390Y964674D01*
X1493978Y965164D01*
X1494000Y965192D01*
X1494026Y965214D01*
X1494494Y965805D01*
X1494972Y966399D01*
X1494988Y966430D01*
X1495009Y966458D01*
X1495352Y967132D01*
X1495703Y967806D01*
X1495712Y967840D01*
X1495728Y967871D01*
X1495929Y968591D01*
X1496141Y969330D01*
X1496144Y969364D01*
X1496154Y969398D01*
X1496209Y970156D01*
X1496271Y970910D01*
X1496267Y970944D01*
X1496270Y970979D01*
X1496175Y971730D01*
X1496087Y972484D01*
X1496076Y972518D01*
X1496072Y972552D01*
X1495831Y973270D01*
X1495596Y973992D01*
X1495579Y974022D01*
X1495568Y974055D01*
X1495189Y974713D01*
X1494817Y975372D01*
X1494794Y975399D01*
X1494777Y975429D01*
X1493930Y976428D01*
X1423709Y1046648D01*
X1423628Y1046714D01*
X1423560Y1046793D01*
X1423015Y1047216D01*
X1422482Y1047653D01*
X1422391Y1047702D01*
X1422308Y1047765D01*
X1421691Y1048072D01*
X1421082Y1048396D01*
X1420982Y1048425D01*
X1420889Y1048472D01*
X1420224Y1048651D01*
X1419562Y1048848D01*
X1419458Y1048857D01*
X1419358Y1048884D01*
X1418053Y1048991D01*
X1387065Y1048991D01*
X1386962Y1048981D01*
X1386858Y1048989D01*
X1386175Y1048903D01*
X1385488Y1048834D01*
X1385388Y1048804D01*
X1385285Y1048791D01*
X1384633Y1048572D01*
X1383972Y1048369D01*
X1383881Y1048320D01*
X1383782Y1048287D01*
X1383186Y1047943D01*
X1382578Y1047614D01*
X1382498Y1047548D01*
X1382408Y1047496D01*
X1381409Y1046648D01*
X1339572Y1004811D01*
X1339506Y1004731D01*
X1339427Y1004663D01*
X1339004Y1004118D01*
X1338568Y1003585D01*
X1338519Y1003493D01*
X1338455Y1003411D01*
X1338148Y1002793D01*
X1337825Y1002184D01*
X1337795Y1002084D01*
X1337749Y1001991D01*
X1337570Y1001327D01*
X1337373Y1000665D01*
X1337363Y1000561D01*
X1337336Y1000461D01*
X1337229Y999155D01*
X1337229Y984568D01*
X1337239Y984465D01*
X1337232Y984361D01*
X1337318Y983678D01*
X1337386Y982991D01*
X1337417Y982891D01*
X1337430Y982788D01*
X1337648Y982136D01*
X1337851Y981475D01*
X1337901Y981383D01*
X1337934Y981285D01*
X1338277Y980689D01*
X1338606Y980081D01*
X1338673Y980001D01*
X1338725Y979911D01*
X1339572Y978912D01*
X1355229Y963255D01*
X1355229Y936745D01*
X1336483Y917999D01*
X1309973Y917999D01*
X1291228Y936745D01*
X1291228Y963255D01*
X1306885Y978912D01*
X1306951Y978993D01*
X1307029Y979061D01*
X1307453Y979606D01*
X1307889Y980139D01*
X1307938Y980230D01*
X1308002Y980313D01*
X1308309Y980930D01*
X1308632Y981539D01*
X1308662Y981639D01*
X1308708Y981732D01*
X1308887Y982397D01*
X1309084Y983059D01*
X1309093Y983163D01*
X1309120Y983263D01*
X1309228Y984568D01*
X1309228Y1014067D01*
X1372153Y1076993D01*
X1432965Y1076993D01*
X1591711Y918246D01*
X1591778Y918191D01*
X1591835Y918125D01*
X1592390Y917690D01*
X1592938Y917242D01*
X1593015Y917201D01*
X1593083Y917148D01*
X1593713Y916831D01*
X1594338Y916499D01*
X1594421Y916474D01*
X1594499Y916435D01*
X1595180Y916249D01*
X1595858Y916047D01*
X1595944Y916039D01*
X1596028Y916016D01*
X1596731Y915968D01*
X1597437Y915904D01*
X1597523Y915913D01*
X1597609Y915907D01*
X1598308Y915998D01*
X1599013Y916074D01*
X1599095Y916101D01*
X1599181Y916112D01*
X1600429Y916512D01*
X1608508Y919859D01*
X1682830Y919859D01*
X1696062Y914378D01*
X1706189Y904251D01*
X1711670Y891019D01*
X1711670Y876697D01*
X1706189Y863466D01*
X1696062Y853338D01*
X1682830Y847858D01*
X1608508Y847858D01*
X1595277Y853338D01*
X1585149Y863466D01*
X1579669Y876697D01*
X1579669Y887375D01*
X1579658Y887479D01*
X1579666Y887583D01*
X1579580Y888266D01*
X1579511Y888953D01*
X1579481Y889053D01*
X1579468Y889156D01*
X1579249Y889808D01*
X1579046Y890469D01*
X1578997Y890560D01*
X1578964Y890659D01*
X1578620Y891255D01*
X1578291Y891863D01*
X1578225Y891943D01*
X1578173Y892033D01*
X1577326Y893032D01*
X1536349Y934008D01*
X1536322Y934031D01*
X1536300Y934057D01*
X1535711Y934531D01*
X1535123Y935013D01*
X1535092Y935029D01*
X1535065Y935051D01*
X1534396Y935398D01*
X1533722Y935756D01*
X1533688Y935766D01*
X1533658Y935781D01*
X1532937Y935989D01*
X1532203Y936208D01*
X1532168Y936211D01*
X1532135Y936220D01*
X1531388Y936282D01*
X1530624Y936351D01*
X1530589Y936347D01*
X1530555Y936350D01*
X1529807Y936263D01*
X1529048Y936180D01*
X1529015Y936170D01*
X1528980Y936166D01*
X1528259Y935931D01*
X1527536Y935702D01*
X1527506Y935685D01*
X1527473Y935674D01*
X1526813Y935302D01*
X1526149Y934935D01*
X1526122Y934913D01*
X1526092Y934896D01*
X1525513Y934396D01*
X1524940Y933910D01*
X1524918Y933883D01*
X1524892Y933860D01*
X1524422Y933255D01*
X1523957Y932666D01*
X1523941Y932635D01*
X1523920Y932608D01*
X1523579Y931923D01*
X1523238Y931253D01*
X1523229Y931220D01*
X1523213Y931188D01*
X1523015Y930453D01*
X1522812Y929726D01*
X1522810Y929691D01*
X1522801Y929658D01*
X1522694Y928352D01*
X1522694Y919611D01*
X1517213Y906379D01*
X1507086Y896252D01*
X1493854Y890771D01*
X1419532Y890771D01*
X1406300Y896252D01*
X1403053Y899499D01*
X1402999Y899543D01*
X1402954Y899596D01*
X1402389Y900043D01*
X1401826Y900503D01*
X1401765Y900536D01*
X1401710Y900579D01*
X1401066Y900906D01*
X1400426Y901246D01*
X1400359Y901266D01*
X1400297Y901297D01*
X1399598Y901492D01*
X1398906Y901698D01*
X1398837Y901704D01*
X1398770Y901723D01*
X1398049Y901776D01*
X1397327Y901842D01*
X1397258Y901834D01*
X1397189Y901839D01*
X1396473Y901749D01*
X1395751Y901671D01*
X1395685Y901650D01*
X1395616Y901641D01*
X1394932Y901412D01*
X1394240Y901193D01*
X1394179Y901159D01*
X1394113Y901137D01*
X1393489Y900778D01*
X1392852Y900426D01*
X1392799Y900381D01*
X1392739Y900346D01*
X1391740Y899499D01*
X1344382Y852141D01*
X1254961Y852141D01*
X1254891Y852134D01*
X1254822Y852140D01*
X1254104Y852056D01*
X1253383Y851984D01*
X1253317Y851964D01*
X1253248Y851955D01*
X1252561Y851732D01*
X1251867Y851519D01*
X1251806Y851486D01*
X1251740Y851464D01*
X1251112Y851110D01*
X1250473Y850764D01*
X1250420Y850719D01*
X1250360Y850685D01*
X1249812Y850212D01*
X1249256Y849749D01*
X1249212Y849695D01*
X1249159Y849650D01*
X1248714Y849076D01*
X1248262Y848514D01*
X1248230Y848452D01*
X1248187Y848397D01*
X1247863Y847747D01*
X1247531Y847107D01*
X1247512Y847041D01*
X1247481Y846978D01*
X1247292Y846277D01*
X1247092Y845584D01*
X1247087Y845514D01*
X1247069Y845447D01*
X1246961Y844142D01*
X1246961Y826509D01*
X1228216Y807763D01*
X1206073Y807763D01*
X1205970Y807753D01*
X1205866Y807760D01*
X1205183Y807674D01*
X1204496Y807606D01*
X1204396Y807575D01*
X1204293Y807562D01*
X1203641Y807344D01*
X1202980Y807141D01*
X1202888Y807091D01*
X1202790Y807058D01*
X1202194Y806715D01*
X1201586Y806386D01*
X1201506Y806319D01*
X1201416Y806267D01*
X1200417Y805420D01*
X1192437Y797440D01*
X1083932Y797440D01*
X1083845Y797432D01*
X1083759Y797438D01*
X1083057Y797353D01*
X1082354Y797283D01*
X1082271Y797258D01*
X1082185Y797247D01*
X1081515Y797026D01*
X1080839Y796818D01*
X1080762Y796777D01*
X1080680Y796750D01*
X1080065Y796399D01*
X1079445Y796063D01*
X1079378Y796008D01*
X1079303Y795965D01*
X1078770Y795501D01*
X1078227Y795048D01*
X1078172Y794980D01*
X1078107Y794924D01*
X1077676Y794363D01*
X1077233Y793813D01*
X1077193Y793736D01*
X1077140Y793667D01*
X1076541Y792502D01*
X1074297Y787083D01*
X1062200Y774987D01*
X1046396Y768440D01*
X1029289Y768440D01*
G37*
%LPD*%
%LPC*%
G36*
X1014095Y2025385D02*
X1014095Y2025385D01*
X1000128Y2031170D01*
X989438Y2041860D01*
X983653Y2055827D01*
X983653Y2070945D01*
X989438Y2084911D01*
X1000128Y2095601D01*
X1014095Y2101386D01*
X1029212Y2101386D01*
X1031799Y2100315D01*
X1031882Y2100290D01*
X1031960Y2100250D01*
X1032640Y2100061D01*
X1033317Y2099856D01*
X1033403Y2099848D01*
X1033487Y2099825D01*
X1034191Y2099773D01*
X1034895Y2099706D01*
X1034981Y2099715D01*
X1035068Y2099709D01*
X1035769Y2099797D01*
X1036472Y2099870D01*
X1036554Y2099896D01*
X1036641Y2099907D01*
X1037311Y2100131D01*
X1037985Y2100342D01*
X1038061Y2100383D01*
X1038144Y2100411D01*
X1038756Y2100763D01*
X1039376Y2101102D01*
X1039442Y2101158D01*
X1039518Y2101202D01*
X1040517Y2102049D01*
X1067908Y2129441D01*
X1078453Y2139985D01*
X1501862Y2139985D01*
X1553456Y2088391D01*
X1553537Y2088325D01*
X1553605Y2088246D01*
X1554150Y2087823D01*
X1554683Y2087386D01*
X1554775Y2087338D01*
X1554857Y2087274D01*
X1555474Y2086967D01*
X1556083Y2086644D01*
X1556183Y2086614D01*
X1556276Y2086568D01*
X1556941Y2086388D01*
X1557603Y2086192D01*
X1557707Y2086182D01*
X1557807Y2086155D01*
X1559113Y2086048D01*
X1577157Y2086048D01*
X1577243Y2086056D01*
X1577330Y2086050D01*
X1578032Y2086135D01*
X1578734Y2086205D01*
X1578817Y2086230D01*
X1578903Y2086241D01*
X1579573Y2086462D01*
X1580250Y2086670D01*
X1580327Y2086711D01*
X1580409Y2086739D01*
X1581021Y2087088D01*
X1581644Y2087425D01*
X1581711Y2087481D01*
X1581786Y2087523D01*
X1582320Y2087988D01*
X1582862Y2088440D01*
X1582916Y2088507D01*
X1582982Y2088564D01*
X1583415Y2089127D01*
X1583855Y2089675D01*
X1583895Y2089752D01*
X1583948Y2089821D01*
X1584547Y2090986D01*
X1585149Y2092440D01*
X1595277Y2102567D01*
X1600136Y2104580D01*
X1600182Y2104605D01*
X1600231Y2104620D01*
X1600881Y2104979D01*
X1601533Y2105329D01*
X1601573Y2105362D01*
X1601619Y2105387D01*
X1602183Y2105865D01*
X1602755Y2106338D01*
X1602788Y2106379D01*
X1602828Y2106413D01*
X1603287Y2106993D01*
X1603754Y2107569D01*
X1603778Y2107615D01*
X1603811Y2107656D01*
X1604148Y2108320D01*
X1604491Y2108973D01*
X1604506Y2109023D01*
X1604529Y2109069D01*
X1604728Y2109782D01*
X1604937Y2110494D01*
X1604941Y2110547D01*
X1604955Y2110597D01*
X1605009Y2111327D01*
X1605073Y2112074D01*
X1605067Y2112126D01*
X1605071Y2112178D01*
X1604979Y2112907D01*
X1604896Y2113649D01*
X1604880Y2113699D01*
X1604873Y2113750D01*
X1604639Y2114450D01*
X1604411Y2115159D01*
X1604386Y2115204D01*
X1604369Y2115253D01*
X1603998Y2115898D01*
X1603638Y2116543D01*
X1603604Y2116582D01*
X1603578Y2116628D01*
X1602731Y2117627D01*
X1590547Y2129810D01*
X1590546Y2129811D01*
X1531977Y2188381D01*
X1531896Y2188447D01*
X1531828Y2188525D01*
X1531283Y2188949D01*
X1530750Y2189385D01*
X1530658Y2189434D01*
X1530576Y2189498D01*
X1529959Y2189805D01*
X1529350Y2190128D01*
X1529250Y2190158D01*
X1529157Y2190204D01*
X1528492Y2190383D01*
X1527830Y2190580D01*
X1527726Y2190589D01*
X1527626Y2190616D01*
X1526320Y2190724D01*
X1072105Y2190724D01*
X1072001Y2190713D01*
X1071898Y2190721D01*
X1071213Y2190635D01*
X1070527Y2190567D01*
X1070428Y2190536D01*
X1070325Y2190523D01*
X1069671Y2190304D01*
X1069012Y2190102D01*
X1068920Y2190052D01*
X1068822Y2190019D01*
X1068225Y2189676D01*
X1067618Y2189347D01*
X1067538Y2189280D01*
X1067448Y2189228D01*
X1066449Y2188381D01*
X1060317Y2182249D01*
X1060262Y2182182D01*
X1060196Y2182125D01*
X1059760Y2181569D01*
X1059312Y2181023D01*
X1059271Y2180945D01*
X1059218Y2180877D01*
X1058900Y2180246D01*
X1058570Y2179622D01*
X1058545Y2179539D01*
X1058506Y2179461D01*
X1058318Y2178777D01*
X1058117Y2178102D01*
X1058110Y2178016D01*
X1058087Y2177932D01*
X1058038Y2177228D01*
X1057974Y2176524D01*
X1057983Y2176437D01*
X1057977Y2176351D01*
X1058068Y2175651D01*
X1058145Y2174947D01*
X1058171Y2174865D01*
X1058182Y2174779D01*
X1058583Y2173531D01*
X1059654Y2170945D01*
X1059654Y2155827D01*
X1053869Y2141860D01*
X1043179Y2131170D01*
X1029212Y2125385D01*
X1014095Y2125385D01*
X1000128Y2131170D01*
X989438Y2141860D01*
X983653Y2155827D01*
X983653Y2170945D01*
X989438Y2184911D01*
X1000128Y2195601D01*
X1014095Y2201386D01*
X1029212Y2201386D01*
X1031799Y2200315D01*
X1031882Y2200290D01*
X1031960Y2200250D01*
X1032638Y2200061D01*
X1033317Y2199856D01*
X1033403Y2199848D01*
X1033487Y2199825D01*
X1034191Y2199773D01*
X1034895Y2199706D01*
X1034981Y2199715D01*
X1035068Y2199709D01*
X1035770Y2199797D01*
X1036472Y2199870D01*
X1036554Y2199896D01*
X1036641Y2199907D01*
X1037312Y2200132D01*
X1037985Y2200342D01*
X1038061Y2200383D01*
X1038144Y2200411D01*
X1038758Y2200764D01*
X1039376Y2201102D01*
X1039442Y2201158D01*
X1039518Y2201202D01*
X1040517Y2202049D01*
X1046648Y2208180D01*
X1046648Y2208181D01*
X1057193Y2218725D01*
X1541232Y2218725D01*
X1571520Y2188438D01*
X1571560Y2188404D01*
X1571594Y2188365D01*
X1572174Y2187901D01*
X1572746Y2187433D01*
X1572792Y2187409D01*
X1572833Y2187376D01*
X1573492Y2187037D01*
X1574147Y2186690D01*
X1574197Y2186675D01*
X1574243Y2186652D01*
X1574951Y2186451D01*
X1575666Y2186238D01*
X1575719Y2186234D01*
X1575768Y2186219D01*
X1576502Y2186162D01*
X1577245Y2186095D01*
X1577297Y2186101D01*
X1577349Y2186096D01*
X1578083Y2186186D01*
X1578821Y2186266D01*
X1578871Y2186281D01*
X1578923Y2186288D01*
X1579627Y2186521D01*
X1580333Y2186744D01*
X1580378Y2186769D01*
X1580428Y2186785D01*
X1581075Y2187154D01*
X1581720Y2187511D01*
X1581760Y2187544D01*
X1581805Y2187570D01*
X1582367Y2188059D01*
X1582929Y2188536D01*
X1582961Y2188577D01*
X1583001Y2188611D01*
X1583455Y2189201D01*
X1583912Y2189780D01*
X1583936Y2189826D01*
X1583968Y2189868D01*
X1584566Y2191033D01*
X1585149Y2192440D01*
X1595277Y2202567D01*
X1608508Y2208048D01*
X1682830Y2208048D01*
X1696062Y2202567D01*
X1706189Y2192440D01*
X1711670Y2179208D01*
X1711670Y2164886D01*
X1706189Y2151655D01*
X1696062Y2141527D01*
X1682830Y2136047D01*
X1632782Y2136047D01*
X1632678Y2136036D01*
X1632575Y2136044D01*
X1631892Y2135958D01*
X1631204Y2135889D01*
X1631105Y2135859D01*
X1631002Y2135846D01*
X1630351Y2135627D01*
X1629689Y2135424D01*
X1629597Y2135375D01*
X1629499Y2135342D01*
X1628902Y2134998D01*
X1628295Y2134669D01*
X1628215Y2134603D01*
X1628125Y2134551D01*
X1627126Y2133704D01*
X1615125Y2121703D01*
X1615104Y2121677D01*
X1615077Y2121654D01*
X1614600Y2121062D01*
X1614121Y2120477D01*
X1614105Y2120446D01*
X1614083Y2120419D01*
X1613735Y2119750D01*
X1613378Y2119076D01*
X1613368Y2119043D01*
X1613352Y2119012D01*
X1613143Y2118284D01*
X1612926Y2117557D01*
X1612923Y2117523D01*
X1612914Y2117489D01*
X1612852Y2116736D01*
X1612783Y2115978D01*
X1612787Y2115943D01*
X1612784Y2115909D01*
X1612872Y2115154D01*
X1612953Y2114402D01*
X1612964Y2114369D01*
X1612968Y2114334D01*
X1613204Y2113611D01*
X1613432Y2112891D01*
X1613448Y2112860D01*
X1613459Y2112827D01*
X1613836Y2112160D01*
X1614199Y2111503D01*
X1614221Y2111477D01*
X1614238Y2111446D01*
X1614734Y2110871D01*
X1615224Y2110294D01*
X1615251Y2110272D01*
X1615274Y2110246D01*
X1615872Y2109781D01*
X1616468Y2109311D01*
X1616499Y2109295D01*
X1616526Y2109274D01*
X1617208Y2108935D01*
X1617881Y2108592D01*
X1617914Y2108583D01*
X1617945Y2108568D01*
X1618681Y2108369D01*
X1619408Y2108167D01*
X1619443Y2108164D01*
X1619476Y2108155D01*
X1620782Y2108048D01*
X1682830Y2108048D01*
X1696062Y2102567D01*
X1706189Y2092440D01*
X1711670Y2079208D01*
X1711670Y2064886D01*
X1706189Y2051655D01*
X1696062Y2041527D01*
X1682830Y2036047D01*
X1608508Y2036047D01*
X1595277Y2041527D01*
X1585149Y2051655D01*
X1584547Y2053108D01*
X1584506Y2053185D01*
X1584479Y2053267D01*
X1584133Y2053882D01*
X1583798Y2054506D01*
X1583743Y2054573D01*
X1583700Y2054648D01*
X1583240Y2055182D01*
X1582789Y2055728D01*
X1582721Y2055783D01*
X1582665Y2055848D01*
X1582107Y2056281D01*
X1581558Y2056727D01*
X1581481Y2056767D01*
X1581412Y2056820D01*
X1580781Y2057135D01*
X1580154Y2057464D01*
X1580071Y2057488D01*
X1579993Y2057527D01*
X1579311Y2057711D01*
X1578633Y2057909D01*
X1578546Y2057917D01*
X1578462Y2057939D01*
X1577157Y2058047D01*
X1544201Y2058047D01*
X1492607Y2109641D01*
X1492526Y2109707D01*
X1492458Y2109785D01*
X1491913Y2110209D01*
X1491380Y2110645D01*
X1491288Y2110694D01*
X1491206Y2110758D01*
X1490589Y2111065D01*
X1489979Y2111388D01*
X1489880Y2111417D01*
X1489787Y2111464D01*
X1489122Y2111643D01*
X1488460Y2111840D01*
X1488356Y2111849D01*
X1488256Y2111876D01*
X1486950Y2111984D01*
X1093365Y2111984D01*
X1093261Y2111973D01*
X1093157Y2111981D01*
X1092474Y2111895D01*
X1091787Y2111826D01*
X1091688Y2111796D01*
X1091584Y2111783D01*
X1090932Y2111564D01*
X1090272Y2111361D01*
X1090180Y2111312D01*
X1090081Y2111279D01*
X1089485Y2110935D01*
X1088877Y2110606D01*
X1088797Y2110540D01*
X1088707Y2110488D01*
X1087708Y2109641D01*
X1060317Y2082249D01*
X1060261Y2082182D01*
X1060196Y2082125D01*
X1059760Y2081569D01*
X1059312Y2081022D01*
X1059272Y2080946D01*
X1059218Y2080877D01*
X1058901Y2080247D01*
X1058569Y2079622D01*
X1058545Y2079539D01*
X1058506Y2079461D01*
X1058319Y2078781D01*
X1058117Y2078102D01*
X1058109Y2078016D01*
X1058087Y2077932D01*
X1058038Y2077230D01*
X1057974Y2076523D01*
X1057983Y2076437D01*
X1057977Y2076351D01*
X1058068Y2075652D01*
X1058145Y2074947D01*
X1058171Y2074865D01*
X1058182Y2074779D01*
X1058583Y2073531D01*
X1059654Y2070945D01*
X1059654Y2055827D01*
X1053869Y2041860D01*
X1043179Y2031170D01*
X1029212Y2025385D01*
X1014095Y2025385D01*
G37*
%LPD*%
%LPC*%
G36*
X788853Y194787D02*
X788853Y194787D01*
X785218Y198421D01*
X785181Y198798D01*
X785160Y198864D01*
X785152Y198933D01*
X784929Y199620D01*
X784716Y200314D01*
X784682Y200375D01*
X784661Y200441D01*
X784307Y201069D01*
X783961Y201708D01*
X783916Y201761D01*
X783882Y201821D01*
X783409Y202369D01*
X782946Y202925D01*
X782892Y202969D01*
X782846Y203022D01*
X782273Y203467D01*
X781711Y203919D01*
X781649Y203951D01*
X781594Y203994D01*
X780944Y204317D01*
X780304Y204650D01*
X780237Y204669D01*
X780175Y204700D01*
X779474Y204889D01*
X778780Y205089D01*
X778711Y205094D01*
X778644Y205112D01*
X777339Y205220D01*
X702495Y205220D01*
X691101Y209939D01*
X682380Y218660D01*
X681562Y220636D01*
X681521Y220713D01*
X681494Y220795D01*
X681147Y221410D01*
X680813Y222033D01*
X680758Y222100D01*
X680715Y222176D01*
X680254Y222710D01*
X679803Y223256D01*
X679736Y223310D01*
X679679Y223376D01*
X679121Y223810D01*
X678572Y224255D01*
X678496Y224295D01*
X678427Y224348D01*
X677793Y224664D01*
X677169Y224991D01*
X677086Y225016D01*
X677008Y225054D01*
X676324Y225239D01*
X675647Y225437D01*
X675561Y225444D01*
X675477Y225467D01*
X674171Y225574D01*
X558380Y225574D01*
X558276Y225564D01*
X558172Y225571D01*
X557489Y225485D01*
X556802Y225417D01*
X556703Y225386D01*
X556599Y225373D01*
X555946Y225154D01*
X555287Y224952D01*
X555195Y224902D01*
X555096Y224869D01*
X554499Y224526D01*
X553892Y224197D01*
X553812Y224130D01*
X553722Y224078D01*
X552723Y223231D01*
X549699Y220207D01*
X536100Y214574D01*
X521380Y214574D01*
X507781Y220207D01*
X503969Y224018D01*
X503889Y224084D01*
X503821Y224163D01*
X503276Y224586D01*
X502743Y225023D01*
X502651Y225072D01*
X502569Y225135D01*
X501950Y225443D01*
X501342Y225766D01*
X501243Y225795D01*
X501149Y225842D01*
X500481Y226022D01*
X499823Y226218D01*
X499719Y226227D01*
X499619Y226254D01*
X498313Y226361D01*
X243658Y226361D01*
X243555Y226351D01*
X243451Y226359D01*
X242768Y226273D01*
X242081Y226204D01*
X241981Y226174D01*
X241878Y226161D01*
X241226Y225942D01*
X240565Y225739D01*
X240474Y225690D01*
X240375Y225657D01*
X239779Y225313D01*
X239171Y224984D01*
X239091Y224918D01*
X239001Y224866D01*
X238002Y224019D01*
X235826Y221842D01*
X222594Y216361D01*
X148272Y216361D01*
X135040Y221842D01*
X124913Y231969D01*
X119432Y245201D01*
X119432Y259523D01*
X124913Y272755D01*
X135040Y282882D01*
X148272Y288363D01*
X222594Y288363D01*
X235826Y282882D01*
X238002Y280706D01*
X238083Y280640D01*
X238151Y280561D01*
X238696Y280138D01*
X239229Y279701D01*
X239320Y279653D01*
X239403Y279589D01*
X240020Y279282D01*
X240629Y278959D01*
X240729Y278929D01*
X240822Y278883D01*
X241487Y278703D01*
X242149Y278507D01*
X242253Y278497D01*
X242353Y278470D01*
X243658Y278363D01*
X499888Y278363D01*
X499992Y278373D01*
X500095Y278366D01*
X500779Y278452D01*
X501465Y278520D01*
X501565Y278550D01*
X501668Y278563D01*
X502322Y278783D01*
X502981Y278985D01*
X503073Y279035D01*
X503171Y279068D01*
X503768Y279411D01*
X504375Y279740D01*
X504455Y279807D01*
X504545Y279859D01*
X505544Y280706D01*
X507781Y282943D01*
X521380Y288575D01*
X536100Y288575D01*
X549699Y282942D01*
X552723Y279918D01*
X552804Y279853D01*
X552872Y279774D01*
X553417Y279350D01*
X553950Y278914D01*
X554042Y278865D01*
X554124Y278801D01*
X554742Y278494D01*
X555350Y278171D01*
X555450Y278142D01*
X555543Y278095D01*
X556212Y277915D01*
X556870Y277719D01*
X556973Y277710D01*
X557074Y277683D01*
X558380Y277575D01*
X698479Y277575D01*
X708035Y273617D01*
X712088Y269564D01*
X712169Y269498D01*
X712237Y269419D01*
X712782Y268996D01*
X713315Y268560D01*
X713407Y268511D01*
X713489Y268447D01*
X714106Y268140D01*
X714715Y267817D01*
X714815Y267787D01*
X714908Y267741D01*
X715573Y267562D01*
X716235Y267365D01*
X716339Y267355D01*
X716439Y267328D01*
X717745Y267221D01*
X777339Y267221D01*
X777408Y267228D01*
X777477Y267222D01*
X778195Y267306D01*
X778916Y267378D01*
X778982Y267398D01*
X779051Y267407D01*
X779738Y267630D01*
X780432Y267843D01*
X780493Y267876D01*
X780559Y267898D01*
X781187Y268252D01*
X781826Y268598D01*
X781879Y268643D01*
X781939Y268677D01*
X782488Y269150D01*
X783044Y269613D01*
X783087Y269667D01*
X783140Y269712D01*
X783585Y270286D01*
X784037Y270848D01*
X784069Y270910D01*
X784112Y270965D01*
X784435Y271615D01*
X784768Y272255D01*
X784787Y272321D01*
X784818Y272384D01*
X785007Y273085D01*
X785207Y273779D01*
X785212Y273848D01*
X785231Y273915D01*
X785241Y274042D01*
X788853Y277654D01*
X833194Y277654D01*
X836709Y274139D01*
X836709Y256810D01*
X836721Y256689D01*
X836713Y256568D01*
X836800Y255902D01*
X836866Y255232D01*
X836902Y255116D01*
X836918Y254996D01*
X837318Y253748D01*
X842024Y242387D01*
X842024Y230054D01*
X837318Y218692D01*
X837283Y218577D01*
X837229Y218468D01*
X837054Y217818D01*
X836860Y217175D01*
X836848Y217054D01*
X836817Y216937D01*
X836709Y215631D01*
X836709Y198302D01*
X833194Y194787D01*
X788853Y194787D01*
G37*
%LPD*%
%LPC*%
G36*
X1157582Y134629D02*
X1157582Y134629D01*
X1124873Y148177D01*
X1099839Y173212D01*
X1088626Y200282D01*
X1088585Y200358D01*
X1088558Y200441D01*
X1088212Y201055D01*
X1087877Y201679D01*
X1087822Y201746D01*
X1087780Y201821D01*
X1087318Y202356D01*
X1086868Y202901D01*
X1086800Y202956D01*
X1086744Y203022D01*
X1086185Y203455D01*
X1085637Y203900D01*
X1085560Y203940D01*
X1085492Y203994D01*
X1084857Y204309D01*
X1084233Y204637D01*
X1084150Y204661D01*
X1084072Y204700D01*
X1083388Y204884D01*
X1082712Y205082D01*
X1082625Y205090D01*
X1082541Y205112D01*
X1081236Y205220D01*
X954945Y205220D01*
X954875Y205213D01*
X954807Y205219D01*
X954088Y205134D01*
X953367Y205063D01*
X953301Y205042D01*
X953232Y205034D01*
X952545Y204810D01*
X951852Y204598D01*
X951790Y204564D01*
X951725Y204543D01*
X951097Y204189D01*
X950458Y203843D01*
X950404Y203798D01*
X950344Y203764D01*
X949796Y203291D01*
X949240Y202828D01*
X949196Y202774D01*
X949144Y202728D01*
X948696Y202152D01*
X948246Y201593D01*
X948214Y201531D01*
X948172Y201476D01*
X947848Y200826D01*
X947515Y200186D01*
X947496Y200119D01*
X947465Y200057D01*
X947276Y199356D01*
X947077Y198662D01*
X947071Y198593D01*
X947053Y198526D01*
X947042Y198399D01*
X943430Y194787D01*
X899089Y194787D01*
X895574Y198302D01*
X895574Y215631D01*
X895562Y215752D01*
X895570Y215873D01*
X895484Y216539D01*
X895417Y217209D01*
X895381Y217325D01*
X895366Y217445D01*
X894965Y218692D01*
X890259Y230054D01*
X890259Y242387D01*
X894965Y253748D01*
X895000Y253864D01*
X895054Y253973D01*
X895229Y254623D01*
X895424Y255266D01*
X895435Y255387D01*
X895467Y255504D01*
X895574Y256810D01*
X895574Y274139D01*
X899089Y277654D01*
X943430Y277654D01*
X947065Y274019D01*
X947103Y273643D01*
X947123Y273577D01*
X947131Y273508D01*
X947355Y272821D01*
X947568Y272127D01*
X947601Y272066D01*
X947622Y272000D01*
X947977Y271372D01*
X948323Y270733D01*
X948367Y270680D01*
X948401Y270619D01*
X948875Y270071D01*
X949337Y269515D01*
X949391Y269472D01*
X949437Y269419D01*
X950010Y268974D01*
X950573Y268522D01*
X950634Y268490D01*
X950689Y268447D01*
X951339Y268124D01*
X951980Y267791D01*
X952046Y267772D01*
X952108Y267741D01*
X952809Y267552D01*
X953503Y267352D01*
X953572Y267346D01*
X953639Y267328D01*
X954945Y267221D01*
X1091673Y267221D01*
X1091759Y267230D01*
X1091846Y267223D01*
X1092548Y267308D01*
X1093250Y267378D01*
X1093333Y267404D01*
X1093420Y267414D01*
X1094090Y267636D01*
X1094766Y267843D01*
X1094843Y267885D01*
X1094925Y267912D01*
X1095537Y268261D01*
X1096160Y268598D01*
X1096227Y268654D01*
X1096302Y268697D01*
X1096834Y269160D01*
X1097378Y269613D01*
X1097432Y269681D01*
X1097498Y269738D01*
X1097929Y270298D01*
X1098371Y270848D01*
X1098411Y270925D01*
X1098464Y270994D01*
X1099063Y272159D01*
X1099839Y274032D01*
X1124873Y299067D01*
X1157582Y312615D01*
X1192985Y312615D01*
X1221297Y300887D01*
X1221645Y300782D01*
X1221979Y300641D01*
X1222401Y300554D01*
X1222815Y300429D01*
X1223176Y300395D01*
X1223532Y300321D01*
X1223964Y300320D01*
X1224393Y300279D01*
X1224754Y300316D01*
X1225117Y300315D01*
X1225541Y300398D01*
X1225970Y300443D01*
X1226317Y300551D01*
X1226673Y300621D01*
X1227071Y300786D01*
X1227484Y300914D01*
X1227802Y301088D01*
X1228137Y301227D01*
X1228496Y301468D01*
X1228874Y301675D01*
X1229152Y301908D01*
X1229453Y302111D01*
X1229757Y302417D01*
X1230088Y302695D01*
X1230314Y302979D01*
X1230570Y303237D01*
X1230807Y303597D01*
X1231076Y303935D01*
X1231242Y304258D01*
X1231442Y304561D01*
X1231603Y304960D01*
X1231801Y305345D01*
X1231900Y305694D01*
X1232036Y306030D01*
X1232115Y306455D01*
X1232233Y306870D01*
X1232261Y307232D01*
X1232328Y307589D01*
X1232323Y308020D01*
X1232356Y308451D01*
X1232312Y308811D01*
X1232308Y309174D01*
X1232217Y309596D01*
X1232165Y310024D01*
X1232051Y310369D01*
X1231975Y310724D01*
X1231803Y311119D01*
X1231667Y311530D01*
X1231487Y311845D01*
X1231343Y312178D01*
X1231046Y312620D01*
X1230882Y312907D01*
X1230755Y313053D01*
X1230613Y313265D01*
X1226060Y318974D01*
X1220623Y327628D01*
X1216187Y336838D01*
X1212812Y346484D01*
X1210704Y355717D01*
X1284394Y355717D01*
X1284394Y282027D01*
X1275161Y284135D01*
X1265515Y287510D01*
X1256305Y291945D01*
X1253215Y293887D01*
X1252600Y294193D01*
X1251988Y294518D01*
X1251888Y294547D01*
X1251796Y294593D01*
X1251131Y294773D01*
X1250468Y294970D01*
X1250365Y294979D01*
X1250265Y295006D01*
X1249578Y295051D01*
X1248890Y295113D01*
X1248786Y295102D01*
X1248683Y295109D01*
X1248001Y295017D01*
X1247313Y294942D01*
X1247214Y294911D01*
X1247112Y294897D01*
X1246459Y294672D01*
X1245802Y294464D01*
X1245711Y294414D01*
X1245613Y294380D01*
X1245018Y294031D01*
X1244414Y293697D01*
X1244335Y293630D01*
X1244246Y293578D01*
X1243732Y293118D01*
X1243205Y292672D01*
X1243141Y292590D01*
X1243064Y292521D01*
X1242650Y291969D01*
X1242222Y291428D01*
X1242175Y291336D01*
X1242113Y291252D01*
X1241816Y290629D01*
X1241504Y290015D01*
X1241476Y289915D01*
X1241431Y289821D01*
X1241263Y289151D01*
X1241078Y288488D01*
X1241071Y288384D01*
X1241046Y288284D01*
X1241013Y287594D01*
X1240962Y286907D01*
X1240975Y286804D01*
X1240970Y286700D01*
X1241074Y286017D01*
X1241160Y285334D01*
X1241193Y285236D01*
X1241209Y285133D01*
X1241445Y284485D01*
X1241664Y283831D01*
X1241716Y283741D01*
X1241752Y283643D01*
X1242110Y283056D01*
X1242455Y282457D01*
X1242530Y282368D01*
X1242578Y282290D01*
X1242802Y282048D01*
X1243303Y281458D01*
X1250728Y274032D01*
X1264276Y241324D01*
X1264276Y205920D01*
X1250728Y173212D01*
X1225694Y148177D01*
X1192985Y134629D01*
X1157582Y134629D01*
G37*
%LPD*%
%LPC*%
G36*
X183550Y647007D02*
X183550Y647007D01*
X157856Y653892D01*
X134820Y667192D01*
X116011Y686001D01*
X102711Y709037D01*
X95826Y734732D01*
X95826Y761331D01*
X102711Y787026D01*
X116011Y810062D01*
X134820Y828871D01*
X157856Y842171D01*
X183550Y849056D01*
X210150Y849056D01*
X235844Y842171D01*
X258881Y828871D01*
X277690Y810062D01*
X290990Y787026D01*
X297875Y761331D01*
X297875Y734732D01*
X290990Y709037D01*
X277690Y686001D01*
X258881Y667192D01*
X235844Y653892D01*
X210150Y647007D01*
X183550Y647007D01*
G37*
%LPD*%
%LPC*%
G36*
X1600873Y410787D02*
X1600873Y410787D01*
X1575179Y417671D01*
X1552143Y430971D01*
X1533333Y449781D01*
X1520034Y472817D01*
X1513149Y498511D01*
X1513149Y525111D01*
X1520034Y550805D01*
X1533333Y573841D01*
X1552143Y592651D01*
X1575179Y605951D01*
X1600873Y612835D01*
X1627473Y612835D01*
X1653167Y605951D01*
X1676203Y592651D01*
X1695013Y573841D01*
X1708313Y550805D01*
X1715197Y525111D01*
X1715197Y498511D01*
X1708313Y472817D01*
X1695013Y449781D01*
X1676203Y430971D01*
X1653167Y417671D01*
X1627473Y410787D01*
X1600873Y410787D01*
G37*
%LPD*%
%LPC*%
G36*
X1600873Y1670629D02*
X1600873Y1670629D01*
X1575179Y1677514D01*
X1552143Y1690814D01*
X1533333Y1709623D01*
X1520034Y1732659D01*
X1513149Y1758354D01*
X1513149Y1784953D01*
X1520034Y1810648D01*
X1533333Y1833684D01*
X1552143Y1852493D01*
X1575179Y1865793D01*
X1600873Y1872678D01*
X1627473Y1872678D01*
X1653167Y1865793D01*
X1676203Y1852493D01*
X1695013Y1833684D01*
X1708313Y1810648D01*
X1715197Y1784953D01*
X1715197Y1758354D01*
X1708313Y1732659D01*
X1695013Y1709623D01*
X1676203Y1690814D01*
X1653167Y1677514D01*
X1627473Y1670629D01*
X1600873Y1670629D01*
G37*
%LPD*%
%LPC*%
G36*
X183550Y1552519D02*
X183550Y1552519D01*
X157856Y1559404D01*
X134820Y1572703D01*
X116011Y1591513D01*
X102711Y1614549D01*
X95826Y1640243D01*
X95826Y1666843D01*
X102711Y1692537D01*
X116011Y1715573D01*
X134820Y1734383D01*
X157856Y1747683D01*
X183550Y1754568D01*
X210150Y1754568D01*
X235844Y1747683D01*
X258881Y1734383D01*
X277690Y1715573D01*
X290990Y1692537D01*
X297875Y1666843D01*
X297875Y1640243D01*
X290990Y1614549D01*
X277690Y1591513D01*
X258881Y1572703D01*
X235844Y1559404D01*
X210150Y1552519D01*
X183550Y1552519D01*
G37*
%LPD*%
%LPC*%
G36*
X1608508Y947858D02*
X1608508Y947858D01*
X1595277Y953338D01*
X1585149Y963466D01*
X1579669Y976697D01*
X1579669Y987375D01*
X1579658Y987479D01*
X1579666Y987583D01*
X1579580Y988266D01*
X1579511Y988953D01*
X1579481Y989053D01*
X1579468Y989156D01*
X1579249Y989808D01*
X1579046Y990469D01*
X1578997Y990560D01*
X1578964Y990659D01*
X1578620Y991255D01*
X1578291Y991863D01*
X1578225Y991943D01*
X1578173Y992033D01*
X1577326Y993032D01*
X1444575Y1125782D01*
X1444495Y1125848D01*
X1444427Y1125927D01*
X1443882Y1126350D01*
X1443349Y1126787D01*
X1443257Y1126835D01*
X1443174Y1126899D01*
X1442557Y1127206D01*
X1441948Y1127530D01*
X1441848Y1127559D01*
X1441755Y1127606D01*
X1441090Y1127785D01*
X1440429Y1127982D01*
X1440325Y1127991D01*
X1440224Y1128018D01*
X1438919Y1128125D01*
X1109506Y1128125D01*
X1109403Y1128115D01*
X1109299Y1128123D01*
X1108616Y1128037D01*
X1107929Y1127968D01*
X1107829Y1127938D01*
X1107726Y1127925D01*
X1107074Y1127706D01*
X1106413Y1127503D01*
X1106321Y1127453D01*
X1106223Y1127420D01*
X1105627Y1127077D01*
X1105019Y1126748D01*
X1104939Y1126681D01*
X1104849Y1126630D01*
X1103850Y1125782D01*
X1060317Y1082249D01*
X1060261Y1082182D01*
X1060196Y1082125D01*
X1059760Y1081569D01*
X1059312Y1081022D01*
X1059272Y1080946D01*
X1059218Y1080877D01*
X1058901Y1080247D01*
X1058569Y1079622D01*
X1058545Y1079539D01*
X1058506Y1079461D01*
X1058319Y1078781D01*
X1058117Y1078102D01*
X1058109Y1078016D01*
X1058087Y1077932D01*
X1058038Y1077230D01*
X1057974Y1076523D01*
X1057983Y1076437D01*
X1057977Y1076351D01*
X1058068Y1075652D01*
X1058145Y1074947D01*
X1058171Y1074865D01*
X1058182Y1074779D01*
X1058583Y1073531D01*
X1059654Y1070945D01*
X1059654Y1055827D01*
X1053869Y1041860D01*
X1043179Y1031170D01*
X1029212Y1025385D01*
X1014095Y1025385D01*
X1000128Y1031170D01*
X989438Y1041860D01*
X983653Y1055827D01*
X983653Y1070945D01*
X989438Y1084911D01*
X1000128Y1095601D01*
X1014095Y1101386D01*
X1029212Y1101386D01*
X1031799Y1100315D01*
X1031882Y1100290D01*
X1031960Y1100250D01*
X1032640Y1100061D01*
X1033317Y1099856D01*
X1033403Y1099848D01*
X1033487Y1099825D01*
X1034191Y1099773D01*
X1034895Y1099706D01*
X1034981Y1099715D01*
X1035068Y1099709D01*
X1035769Y1099797D01*
X1036472Y1099870D01*
X1036554Y1099896D01*
X1036641Y1099907D01*
X1037311Y1100131D01*
X1037985Y1100342D01*
X1038061Y1100383D01*
X1038144Y1100411D01*
X1038755Y1100763D01*
X1039376Y1101102D01*
X1039443Y1101158D01*
X1039518Y1101202D01*
X1040517Y1102049D01*
X1094594Y1156127D01*
X1453831Y1156127D01*
X1464374Y1145583D01*
X1464375Y1145582D01*
X1591711Y1018246D01*
X1591778Y1018191D01*
X1591835Y1018125D01*
X1591845Y1018117D01*
X1591852Y1018109D01*
X1592242Y1017806D01*
X1592391Y1017689D01*
X1592938Y1017242D01*
X1593014Y1017201D01*
X1593082Y1017148D01*
X1593104Y1017137D01*
X1593133Y1017122D01*
X1593712Y1016831D01*
X1594338Y1016499D01*
X1594422Y1016474D01*
X1594499Y1016435D01*
X1595177Y1016249D01*
X1595858Y1016047D01*
X1595944Y1016039D01*
X1596028Y1016016D01*
X1596318Y1015996D01*
X1597352Y1015911D01*
X1597437Y1015904D01*
X1597523Y1015913D01*
X1597609Y1015907D01*
X1598307Y1015998D01*
X1598823Y1016054D01*
X1598962Y1016068D01*
X1598969Y1016070D01*
X1599013Y1016074D01*
X1599095Y1016101D01*
X1599181Y1016112D01*
X1600429Y1016512D01*
X1608508Y1019859D01*
X1682830Y1019859D01*
X1696062Y1014378D01*
X1706189Y1004251D01*
X1711670Y991019D01*
X1711670Y976697D01*
X1706189Y963466D01*
X1696062Y953338D01*
X1682830Y947858D01*
X1608508Y947858D01*
G37*
%LPD*%
%LPC*%
G36*
X1602665Y1920842D02*
X1602665Y1920842D01*
X1492607Y2030900D01*
X1492526Y2030966D01*
X1492458Y2031045D01*
X1491914Y2031468D01*
X1491380Y2031905D01*
X1491288Y2031953D01*
X1491206Y2032017D01*
X1490589Y2032324D01*
X1489979Y2032648D01*
X1489880Y2032677D01*
X1489787Y2032724D01*
X1489122Y2032903D01*
X1488460Y2033100D01*
X1488356Y2033109D01*
X1488256Y2033136D01*
X1486950Y2033243D01*
X1153995Y2033243D01*
X1153891Y2033233D01*
X1153787Y2033241D01*
X1153104Y2033155D01*
X1152417Y2033086D01*
X1152317Y2033056D01*
X1152214Y2033043D01*
X1151562Y2032824D01*
X1150901Y2032621D01*
X1150810Y2032571D01*
X1150711Y2032539D01*
X1150115Y2032195D01*
X1149507Y2031866D01*
X1149427Y2031800D01*
X1149337Y2031748D01*
X1149244Y2031669D01*
X1113050Y2031669D01*
X1112946Y2031658D01*
X1112842Y2031666D01*
X1112159Y2031580D01*
X1111472Y2031511D01*
X1111373Y2031481D01*
X1111269Y2031468D01*
X1110617Y2031249D01*
X1109957Y2031046D01*
X1109865Y2030997D01*
X1109766Y2030964D01*
X1109170Y2030620D01*
X1108563Y2030291D01*
X1108483Y2030225D01*
X1108392Y2030173D01*
X1107393Y2029326D01*
X1060317Y1982249D01*
X1060261Y1982182D01*
X1060196Y1982125D01*
X1059760Y1981569D01*
X1059312Y1981022D01*
X1059272Y1980946D01*
X1059218Y1980877D01*
X1058901Y1980247D01*
X1058569Y1979622D01*
X1058545Y1979539D01*
X1058506Y1979461D01*
X1058319Y1978781D01*
X1058117Y1978102D01*
X1058109Y1978016D01*
X1058087Y1977932D01*
X1058038Y1977230D01*
X1057974Y1976523D01*
X1057983Y1976437D01*
X1057977Y1976351D01*
X1058068Y1975652D01*
X1058145Y1974947D01*
X1058171Y1974865D01*
X1058182Y1974779D01*
X1058583Y1973531D01*
X1059654Y1970945D01*
X1059654Y1955827D01*
X1053869Y1941860D01*
X1043179Y1931170D01*
X1029212Y1925385D01*
X1014095Y1925385D01*
X1000128Y1931170D01*
X989438Y1941860D01*
X983653Y1955827D01*
X983653Y1970945D01*
X989438Y1984911D01*
X1000128Y1995601D01*
X1014095Y2001386D01*
X1029212Y2001386D01*
X1031799Y2000315D01*
X1031882Y2000290D01*
X1031960Y2000250D01*
X1032640Y2000061D01*
X1033317Y1999856D01*
X1033403Y1999848D01*
X1033487Y1999825D01*
X1034191Y1999773D01*
X1034895Y1999706D01*
X1034981Y1999715D01*
X1035068Y1999709D01*
X1035769Y1999797D01*
X1036472Y1999870D01*
X1036554Y1999896D01*
X1036641Y1999907D01*
X1037311Y2000131D01*
X1037985Y2000342D01*
X1038061Y2000383D01*
X1038144Y2000411D01*
X1038755Y2000763D01*
X1039376Y2001102D01*
X1039443Y2001158D01*
X1039518Y2001202D01*
X1040517Y2002049D01*
X1087593Y2049126D01*
X1098138Y2059670D01*
X1134194Y2059670D01*
X1134298Y2059680D01*
X1134402Y2059673D01*
X1135085Y2059759D01*
X1135772Y2059827D01*
X1135871Y2059858D01*
X1135975Y2059871D01*
X1136627Y2060089D01*
X1137287Y2060292D01*
X1137379Y2060342D01*
X1137477Y2060375D01*
X1138074Y2060718D01*
X1138681Y2061047D01*
X1138761Y2061114D01*
X1138852Y2061165D01*
X1138945Y2061245D01*
X1501862Y2061245D01*
X1512406Y2050700D01*
X1572442Y1990665D01*
X1572483Y1990632D01*
X1572516Y1990592D01*
X1573098Y1990128D01*
X1573669Y1989660D01*
X1573714Y1989636D01*
X1573756Y1989603D01*
X1574413Y1989265D01*
X1575069Y1988917D01*
X1575120Y1988902D01*
X1575166Y1988879D01*
X1575871Y1988679D01*
X1576589Y1988465D01*
X1576641Y1988461D01*
X1576691Y1988447D01*
X1577424Y1988390D01*
X1578168Y1988322D01*
X1578220Y1988328D01*
X1578272Y1988324D01*
X1579006Y1988413D01*
X1579744Y1988493D01*
X1579793Y1988508D01*
X1579845Y1988515D01*
X1580549Y1988747D01*
X1581255Y1988971D01*
X1581301Y1988996D01*
X1581350Y1989013D01*
X1581995Y1989380D01*
X1582643Y1989738D01*
X1582682Y1989771D01*
X1582728Y1989797D01*
X1583291Y1990288D01*
X1583852Y1990763D01*
X1583884Y1990804D01*
X1583923Y1990838D01*
X1584380Y1991432D01*
X1584835Y1992007D01*
X1584858Y1992053D01*
X1584890Y1992095D01*
X1584981Y1992272D01*
X1595277Y2002567D01*
X1608508Y2008048D01*
X1682830Y2008048D01*
X1696062Y2002567D01*
X1706189Y1992440D01*
X1711670Y1979208D01*
X1711670Y1964886D01*
X1706189Y1951655D01*
X1696062Y1941527D01*
X1682830Y1936047D01*
X1632782Y1936047D01*
X1632678Y1936036D01*
X1632575Y1936044D01*
X1631891Y1935958D01*
X1631204Y1935889D01*
X1631105Y1935859D01*
X1631002Y1935846D01*
X1630350Y1935627D01*
X1629689Y1935424D01*
X1629597Y1935375D01*
X1629499Y1935342D01*
X1628902Y1934998D01*
X1628295Y1934669D01*
X1628215Y1934603D01*
X1628125Y1934551D01*
X1627126Y1933704D01*
X1614264Y1920842D01*
X1602665Y1920842D01*
G37*
%LPD*%
%LPC*%
G36*
X309186Y1739653D02*
X309186Y1739653D01*
X290440Y1758398D01*
X290440Y1780541D01*
X290430Y1780644D01*
X290438Y1780748D01*
X290352Y1781431D01*
X290283Y1782118D01*
X290252Y1782218D01*
X290240Y1782321D01*
X290021Y1782973D01*
X289818Y1783634D01*
X289768Y1783726D01*
X289735Y1783824D01*
X289392Y1784420D01*
X289063Y1785028D01*
X288996Y1785108D01*
X288945Y1785198D01*
X288097Y1786197D01*
X254821Y1819473D01*
X254754Y1819528D01*
X254698Y1819594D01*
X254141Y1820030D01*
X253595Y1820478D01*
X253518Y1820518D01*
X253450Y1820572D01*
X252817Y1820890D01*
X252194Y1821220D01*
X252111Y1821245D01*
X252033Y1821284D01*
X251352Y1821471D01*
X250675Y1821672D01*
X250588Y1821680D01*
X250505Y1821703D01*
X249802Y1821752D01*
X249096Y1821816D01*
X249009Y1821807D01*
X248923Y1821813D01*
X248225Y1821722D01*
X247520Y1821645D01*
X247437Y1821619D01*
X247351Y1821608D01*
X246104Y1821207D01*
X234405Y1816361D01*
X160083Y1816361D01*
X146851Y1821842D01*
X136724Y1831969D01*
X131243Y1845201D01*
X131243Y1859523D01*
X136724Y1872755D01*
X146851Y1882882D01*
X160083Y1888363D01*
X234405Y1888363D01*
X247637Y1882882D01*
X257764Y1872755D01*
X258366Y1871301D01*
X258407Y1871225D01*
X258434Y1871142D01*
X258781Y1870527D01*
X259115Y1869904D01*
X259170Y1869837D01*
X259213Y1869761D01*
X259674Y1869227D01*
X260125Y1868681D01*
X260192Y1868627D01*
X260249Y1868561D01*
X260806Y1868128D01*
X261355Y1867682D01*
X261433Y1867642D01*
X261501Y1867589D01*
X262133Y1867274D01*
X262759Y1866946D01*
X262842Y1866921D01*
X262920Y1866883D01*
X263603Y1866699D01*
X264281Y1866500D01*
X264367Y1866493D01*
X264451Y1866470D01*
X265757Y1866363D01*
X676410Y1866363D01*
X676496Y1866371D01*
X676583Y1866365D01*
X677284Y1866450D01*
X677988Y1866520D01*
X678071Y1866545D01*
X678157Y1866556D01*
X678827Y1866777D01*
X679503Y1866985D01*
X679579Y1867026D01*
X679662Y1867054D01*
X680276Y1867404D01*
X680897Y1867740D01*
X680964Y1867795D01*
X681039Y1867838D01*
X681572Y1868302D01*
X682115Y1868755D01*
X682170Y1868823D01*
X682235Y1868879D01*
X682666Y1869440D01*
X683109Y1869990D01*
X683149Y1870067D01*
X683202Y1870136D01*
X683800Y1871301D01*
X689438Y1884911D01*
X700128Y1895601D01*
X714095Y1901386D01*
X729212Y1901386D01*
X743179Y1895601D01*
X753869Y1884911D01*
X759654Y1870945D01*
X759654Y1855827D01*
X753869Y1841860D01*
X743179Y1831170D01*
X729212Y1825385D01*
X714095Y1825385D01*
X700128Y1831170D01*
X695280Y1836019D01*
X695199Y1836085D01*
X695131Y1836163D01*
X694586Y1836586D01*
X694053Y1837023D01*
X693961Y1837072D01*
X693879Y1837135D01*
X693262Y1837443D01*
X692653Y1837766D01*
X692553Y1837795D01*
X692460Y1837842D01*
X691795Y1838021D01*
X691133Y1838218D01*
X691029Y1838227D01*
X690929Y1838254D01*
X689623Y1838361D01*
X294845Y1838361D01*
X294810Y1838358D01*
X294776Y1838361D01*
X294017Y1838279D01*
X293267Y1838204D01*
X293234Y1838194D01*
X293199Y1838190D01*
X292478Y1837962D01*
X291752Y1837739D01*
X291721Y1837723D01*
X291688Y1837712D01*
X291029Y1837348D01*
X290358Y1836984D01*
X290331Y1836962D01*
X290301Y1836945D01*
X289727Y1836459D01*
X289140Y1835969D01*
X289118Y1835942D01*
X289092Y1835920D01*
X288621Y1835324D01*
X288146Y1834734D01*
X288130Y1834704D01*
X288108Y1834676D01*
X287763Y1833996D01*
X287415Y1833327D01*
X287406Y1833294D01*
X287390Y1833263D01*
X287186Y1832532D01*
X286977Y1831804D01*
X286974Y1831769D01*
X286964Y1831736D01*
X286909Y1830978D01*
X286847Y1830224D01*
X286851Y1830190D01*
X286848Y1830155D01*
X286943Y1829404D01*
X287031Y1828649D01*
X287042Y1828616D01*
X287046Y1828582D01*
X287287Y1827864D01*
X287522Y1827142D01*
X287539Y1827112D01*
X287550Y1827079D01*
X287931Y1826418D01*
X288301Y1825761D01*
X288324Y1825735D01*
X288341Y1825705D01*
X289188Y1824706D01*
X307897Y1805997D01*
X307978Y1805931D01*
X308046Y1805852D01*
X308589Y1805430D01*
X309124Y1804993D01*
X309216Y1804944D01*
X309298Y1804880D01*
X309915Y1804573D01*
X310524Y1804250D01*
X310624Y1804220D01*
X310717Y1804174D01*
X311383Y1803995D01*
X312044Y1803798D01*
X312148Y1803788D01*
X312248Y1803761D01*
X313554Y1803654D01*
X335696Y1803654D01*
X354442Y1784908D01*
X354442Y1758398D01*
X335696Y1739653D01*
X309186Y1739653D01*
G37*
%LPD*%
%LPC*%
G36*
X1608508Y1047858D02*
X1608508Y1047858D01*
X1595277Y1053338D01*
X1585149Y1063466D01*
X1579669Y1076697D01*
X1579669Y1087375D01*
X1579658Y1087479D01*
X1579666Y1087583D01*
X1579580Y1088266D01*
X1579511Y1088953D01*
X1579481Y1089053D01*
X1579468Y1089156D01*
X1579249Y1089808D01*
X1579046Y1090469D01*
X1578997Y1090560D01*
X1578964Y1090659D01*
X1578620Y1091255D01*
X1578291Y1091863D01*
X1578225Y1091943D01*
X1578173Y1092033D01*
X1577326Y1093032D01*
X1483945Y1186412D01*
X1483865Y1186478D01*
X1483797Y1186557D01*
X1483251Y1186980D01*
X1482719Y1187417D01*
X1482627Y1187465D01*
X1482544Y1187529D01*
X1481927Y1187836D01*
X1481318Y1188159D01*
X1481218Y1188189D01*
X1481125Y1188235D01*
X1480460Y1188415D01*
X1479798Y1188611D01*
X1479695Y1188621D01*
X1479594Y1188648D01*
X1478289Y1188755D01*
X1070136Y1188755D01*
X1070033Y1188745D01*
X1069929Y1188752D01*
X1069244Y1188666D01*
X1068559Y1188598D01*
X1068460Y1188568D01*
X1068356Y1188555D01*
X1067703Y1188336D01*
X1067043Y1188133D01*
X1066951Y1188083D01*
X1066853Y1188050D01*
X1066256Y1187707D01*
X1065649Y1187378D01*
X1065570Y1187312D01*
X1065479Y1187260D01*
X1064480Y1186412D01*
X1060317Y1182249D01*
X1060262Y1182182D01*
X1060196Y1182125D01*
X1059760Y1181569D01*
X1059312Y1181023D01*
X1059271Y1180945D01*
X1059218Y1180877D01*
X1058900Y1180246D01*
X1058570Y1179622D01*
X1058545Y1179539D01*
X1058506Y1179461D01*
X1058318Y1178777D01*
X1058117Y1178102D01*
X1058110Y1178016D01*
X1058087Y1177932D01*
X1058038Y1177228D01*
X1057974Y1176524D01*
X1057983Y1176437D01*
X1057977Y1176351D01*
X1058068Y1175651D01*
X1058145Y1174948D01*
X1058171Y1174865D01*
X1058182Y1174779D01*
X1058583Y1173531D01*
X1059654Y1170945D01*
X1059654Y1155827D01*
X1053869Y1141860D01*
X1043179Y1131170D01*
X1029212Y1125385D01*
X1014095Y1125385D01*
X1000128Y1131170D01*
X989438Y1141860D01*
X983653Y1155827D01*
X983653Y1170945D01*
X989438Y1184911D01*
X1000128Y1195601D01*
X1014095Y1201386D01*
X1029212Y1201386D01*
X1031799Y1200315D01*
X1031882Y1200290D01*
X1031960Y1200250D01*
X1032640Y1200061D01*
X1033317Y1199856D01*
X1033403Y1199848D01*
X1033487Y1199825D01*
X1034191Y1199773D01*
X1034895Y1199706D01*
X1034981Y1199715D01*
X1035068Y1199709D01*
X1035769Y1199797D01*
X1036472Y1199870D01*
X1036554Y1199896D01*
X1036641Y1199907D01*
X1037311Y1200131D01*
X1037985Y1200342D01*
X1038061Y1200383D01*
X1038144Y1200411D01*
X1038756Y1200763D01*
X1039376Y1201102D01*
X1039442Y1201158D01*
X1039518Y1201202D01*
X1040517Y1202049D01*
X1055224Y1216757D01*
X1493201Y1216757D01*
X1591711Y1118246D01*
X1591778Y1118191D01*
X1591835Y1118125D01*
X1592391Y1117689D01*
X1592938Y1117242D01*
X1593014Y1117201D01*
X1593082Y1117148D01*
X1593712Y1116831D01*
X1594338Y1116499D01*
X1594422Y1116474D01*
X1594499Y1116435D01*
X1595177Y1116249D01*
X1595858Y1116047D01*
X1595944Y1116039D01*
X1596028Y1116016D01*
X1596731Y1115968D01*
X1597437Y1115904D01*
X1597523Y1115913D01*
X1597609Y1115907D01*
X1598307Y1115998D01*
X1599013Y1116074D01*
X1599095Y1116101D01*
X1599181Y1116112D01*
X1600429Y1116512D01*
X1608508Y1119859D01*
X1682830Y1119859D01*
X1696062Y1114378D01*
X1706189Y1104251D01*
X1711670Y1091019D01*
X1711670Y1076697D01*
X1706189Y1063466D01*
X1696062Y1053338D01*
X1682830Y1047858D01*
X1608508Y1047858D01*
G37*
%LPD*%
%LPC*%
G36*
X1608508Y1347858D02*
X1608508Y1347858D01*
X1595277Y1353338D01*
X1585149Y1363466D01*
X1584547Y1364919D01*
X1584506Y1364996D01*
X1584479Y1365078D01*
X1584133Y1365693D01*
X1583798Y1366317D01*
X1583743Y1366384D01*
X1583700Y1366459D01*
X1583240Y1366993D01*
X1582789Y1367539D01*
X1582721Y1367594D01*
X1582665Y1367659D01*
X1582107Y1368092D01*
X1581558Y1368538D01*
X1581481Y1368578D01*
X1581412Y1368632D01*
X1580781Y1368946D01*
X1580154Y1369275D01*
X1580071Y1369299D01*
X1579993Y1369338D01*
X1579311Y1369522D01*
X1578633Y1369720D01*
X1578546Y1369728D01*
X1578462Y1369750D01*
X1577157Y1369858D01*
X1095382Y1369858D01*
X1040517Y1424723D01*
X1040449Y1424778D01*
X1040393Y1424844D01*
X1039837Y1425279D01*
X1039290Y1425727D01*
X1039213Y1425768D01*
X1039145Y1425821D01*
X1038515Y1426138D01*
X1037890Y1426470D01*
X1037806Y1426495D01*
X1037729Y1426534D01*
X1037049Y1426720D01*
X1036370Y1426922D01*
X1036283Y1426930D01*
X1036200Y1426953D01*
X1035498Y1427001D01*
X1034791Y1427065D01*
X1034704Y1427056D01*
X1034618Y1427062D01*
X1033920Y1426971D01*
X1033215Y1426895D01*
X1033132Y1426868D01*
X1033046Y1426857D01*
X1031799Y1426457D01*
X1029212Y1425385D01*
X1014095Y1425385D01*
X1000128Y1431170D01*
X989438Y1441860D01*
X983653Y1455827D01*
X983653Y1470945D01*
X989438Y1484911D01*
X1000128Y1495601D01*
X1014095Y1501386D01*
X1029212Y1501386D01*
X1043179Y1495601D01*
X1053869Y1484911D01*
X1059654Y1470945D01*
X1059654Y1455827D01*
X1058583Y1453240D01*
X1058558Y1453157D01*
X1058518Y1453080D01*
X1058329Y1452400D01*
X1058124Y1451723D01*
X1058116Y1451636D01*
X1058093Y1451553D01*
X1058041Y1450848D01*
X1057974Y1450144D01*
X1057983Y1450058D01*
X1057976Y1449972D01*
X1058065Y1449270D01*
X1058138Y1448568D01*
X1058164Y1448485D01*
X1058174Y1448399D01*
X1058399Y1447728D01*
X1058609Y1447054D01*
X1058651Y1446978D01*
X1058679Y1446896D01*
X1059031Y1446284D01*
X1059370Y1445663D01*
X1059426Y1445597D01*
X1059469Y1445522D01*
X1060317Y1444523D01*
X1104637Y1400202D01*
X1104718Y1400136D01*
X1104786Y1400057D01*
X1105331Y1399634D01*
X1105864Y1399197D01*
X1105956Y1399149D01*
X1106038Y1399085D01*
X1106656Y1398777D01*
X1107265Y1398455D01*
X1107364Y1398425D01*
X1107457Y1398379D01*
X1108123Y1398199D01*
X1108784Y1398003D01*
X1108888Y1397993D01*
X1108988Y1397966D01*
X1110294Y1397859D01*
X1577157Y1397859D01*
X1577243Y1397867D01*
X1577330Y1397861D01*
X1578032Y1397946D01*
X1578734Y1398016D01*
X1578817Y1398041D01*
X1578903Y1398052D01*
X1579573Y1398273D01*
X1580250Y1398481D01*
X1580327Y1398523D01*
X1580409Y1398550D01*
X1581021Y1398899D01*
X1581644Y1399236D01*
X1581711Y1399292D01*
X1581786Y1399335D01*
X1582320Y1399799D01*
X1582862Y1400251D01*
X1582916Y1400318D01*
X1582982Y1400375D01*
X1583415Y1400938D01*
X1583855Y1401486D01*
X1583895Y1401563D01*
X1583948Y1401632D01*
X1584547Y1402797D01*
X1585149Y1404251D01*
X1595277Y1414378D01*
X1608508Y1419859D01*
X1682830Y1419859D01*
X1696062Y1414378D01*
X1706189Y1404251D01*
X1711670Y1391019D01*
X1711670Y1376697D01*
X1706189Y1363466D01*
X1696062Y1353338D01*
X1682830Y1347858D01*
X1608508Y1347858D01*
G37*
%LPD*%
%LPC*%
G36*
X1608508Y1247858D02*
X1608508Y1247858D01*
X1595277Y1253338D01*
X1585149Y1263466D01*
X1579669Y1276697D01*
X1579669Y1287375D01*
X1579658Y1287479D01*
X1579666Y1287583D01*
X1579580Y1288266D01*
X1579511Y1288953D01*
X1579481Y1289053D01*
X1579468Y1289156D01*
X1579249Y1289808D01*
X1579046Y1290469D01*
X1578997Y1290560D01*
X1578964Y1290659D01*
X1578620Y1291255D01*
X1578291Y1291863D01*
X1578225Y1291943D01*
X1578173Y1292033D01*
X1577326Y1293032D01*
X1562685Y1307672D01*
X1562605Y1307738D01*
X1562537Y1307817D01*
X1561992Y1308240D01*
X1561459Y1308676D01*
X1561367Y1308725D01*
X1561285Y1308789D01*
X1560667Y1309096D01*
X1560058Y1309419D01*
X1559958Y1309449D01*
X1559865Y1309495D01*
X1559201Y1309674D01*
X1558539Y1309871D01*
X1558435Y1309881D01*
X1558335Y1309908D01*
X1557029Y1310015D01*
X1055224Y1310015D01*
X1040517Y1324723D01*
X1040449Y1324778D01*
X1040393Y1324844D01*
X1039837Y1325279D01*
X1039290Y1325727D01*
X1039213Y1325768D01*
X1039145Y1325821D01*
X1038515Y1326138D01*
X1037890Y1326470D01*
X1037806Y1326495D01*
X1037729Y1326534D01*
X1037049Y1326720D01*
X1036370Y1326922D01*
X1036283Y1326930D01*
X1036200Y1326953D01*
X1035498Y1327001D01*
X1034791Y1327065D01*
X1034704Y1327056D01*
X1034618Y1327062D01*
X1033920Y1326971D01*
X1033215Y1326895D01*
X1033133Y1326868D01*
X1033046Y1326857D01*
X1031799Y1326457D01*
X1029212Y1325385D01*
X1014095Y1325385D01*
X1000128Y1331170D01*
X989438Y1341860D01*
X983653Y1355827D01*
X983653Y1370945D01*
X989438Y1384911D01*
X1000128Y1395601D01*
X1014095Y1401386D01*
X1029212Y1401386D01*
X1043179Y1395601D01*
X1053869Y1384911D01*
X1059654Y1370945D01*
X1059654Y1355827D01*
X1058583Y1353240D01*
X1058558Y1353157D01*
X1058518Y1353080D01*
X1058328Y1352398D01*
X1058124Y1351723D01*
X1058116Y1351636D01*
X1058093Y1351553D01*
X1058041Y1350848D01*
X1057974Y1350144D01*
X1057983Y1350058D01*
X1057976Y1349971D01*
X1058065Y1349269D01*
X1058138Y1348568D01*
X1058164Y1348485D01*
X1058174Y1348398D01*
X1058400Y1347727D01*
X1058609Y1347054D01*
X1058651Y1346978D01*
X1058679Y1346896D01*
X1059031Y1346283D01*
X1059370Y1345663D01*
X1059426Y1345596D01*
X1059469Y1345522D01*
X1060317Y1344523D01*
X1064480Y1340359D01*
X1064560Y1340294D01*
X1064628Y1340215D01*
X1065174Y1339791D01*
X1065707Y1339355D01*
X1065799Y1339306D01*
X1065881Y1339242D01*
X1066498Y1338935D01*
X1067107Y1338612D01*
X1067207Y1338583D01*
X1067300Y1338536D01*
X1067966Y1338357D01*
X1068627Y1338160D01*
X1068731Y1338151D01*
X1068831Y1338124D01*
X1070136Y1338016D01*
X1571941Y1338016D01*
X1591711Y1318246D01*
X1591778Y1318191D01*
X1591835Y1318125D01*
X1592390Y1317690D01*
X1592938Y1317242D01*
X1593015Y1317201D01*
X1593083Y1317148D01*
X1593713Y1316831D01*
X1594338Y1316499D01*
X1594421Y1316474D01*
X1594499Y1316435D01*
X1595180Y1316249D01*
X1595858Y1316047D01*
X1595944Y1316039D01*
X1596028Y1316016D01*
X1596731Y1315968D01*
X1597437Y1315904D01*
X1597523Y1315913D01*
X1597609Y1315907D01*
X1598308Y1315998D01*
X1599013Y1316074D01*
X1599095Y1316101D01*
X1599181Y1316112D01*
X1600429Y1316512D01*
X1608508Y1319859D01*
X1682830Y1319859D01*
X1696062Y1314378D01*
X1706189Y1304251D01*
X1711670Y1291019D01*
X1711670Y1276697D01*
X1706189Y1263466D01*
X1696062Y1253338D01*
X1682830Y1247858D01*
X1608508Y1247858D01*
G37*
%LPD*%
%LPC*%
G36*
X1608508Y1147858D02*
X1608508Y1147858D01*
X1595277Y1153338D01*
X1585149Y1163466D01*
X1579669Y1176697D01*
X1579669Y1187375D01*
X1579658Y1187479D01*
X1579666Y1187583D01*
X1579580Y1188266D01*
X1579511Y1188953D01*
X1579481Y1189053D01*
X1579468Y1189156D01*
X1579249Y1189808D01*
X1579046Y1190469D01*
X1578997Y1190560D01*
X1578964Y1190659D01*
X1578620Y1191255D01*
X1578291Y1191863D01*
X1578225Y1191943D01*
X1578173Y1192033D01*
X1577326Y1193032D01*
X1523315Y1247042D01*
X1523235Y1247108D01*
X1523167Y1247187D01*
X1522622Y1247610D01*
X1522089Y1248047D01*
X1521997Y1248095D01*
X1521914Y1248159D01*
X1521297Y1248466D01*
X1520688Y1248789D01*
X1520588Y1248819D01*
X1520495Y1248865D01*
X1519830Y1249045D01*
X1519169Y1249241D01*
X1519065Y1249251D01*
X1518964Y1249278D01*
X1517659Y1249385D01*
X1062331Y1249385D01*
X1062244Y1249376D01*
X1062158Y1249383D01*
X1061456Y1249298D01*
X1060753Y1249228D01*
X1060670Y1249203D01*
X1060584Y1249192D01*
X1059915Y1248971D01*
X1059238Y1248763D01*
X1059161Y1248721D01*
X1059079Y1248694D01*
X1058466Y1248345D01*
X1057844Y1248008D01*
X1057777Y1247952D01*
X1057701Y1247909D01*
X1057168Y1247445D01*
X1056626Y1246993D01*
X1056571Y1246926D01*
X1056506Y1246868D01*
X1056073Y1246306D01*
X1055632Y1245758D01*
X1055592Y1245681D01*
X1055539Y1245612D01*
X1054940Y1244447D01*
X1053869Y1241860D01*
X1043179Y1231170D01*
X1029212Y1225385D01*
X1014095Y1225385D01*
X1000128Y1231170D01*
X989438Y1241860D01*
X983653Y1255827D01*
X983653Y1270945D01*
X989438Y1284911D01*
X1000128Y1295601D01*
X1014095Y1301386D01*
X1029212Y1301386D01*
X1043179Y1295601D01*
X1053869Y1284911D01*
X1054940Y1282325D01*
X1054981Y1282248D01*
X1055008Y1282166D01*
X1055355Y1281551D01*
X1055689Y1280927D01*
X1055744Y1280860D01*
X1055787Y1280785D01*
X1056250Y1280249D01*
X1056699Y1279705D01*
X1056766Y1279651D01*
X1056823Y1279585D01*
X1057382Y1279151D01*
X1057930Y1278706D01*
X1058007Y1278665D01*
X1058075Y1278612D01*
X1058708Y1278297D01*
X1059333Y1277969D01*
X1059416Y1277945D01*
X1059494Y1277906D01*
X1060178Y1277722D01*
X1060855Y1277524D01*
X1060942Y1277516D01*
X1061025Y1277494D01*
X1062331Y1277386D01*
X1532571Y1277386D01*
X1591711Y1218246D01*
X1591778Y1218191D01*
X1591835Y1218125D01*
X1592390Y1217690D01*
X1592938Y1217242D01*
X1593015Y1217201D01*
X1593083Y1217148D01*
X1593713Y1216831D01*
X1594338Y1216499D01*
X1594421Y1216474D01*
X1594499Y1216435D01*
X1595180Y1216249D01*
X1595858Y1216047D01*
X1595944Y1216039D01*
X1596028Y1216016D01*
X1596731Y1215968D01*
X1597437Y1215904D01*
X1597523Y1215913D01*
X1597609Y1215907D01*
X1598308Y1215998D01*
X1599013Y1216074D01*
X1599095Y1216101D01*
X1599181Y1216112D01*
X1600429Y1216512D01*
X1608508Y1219859D01*
X1682830Y1219859D01*
X1696062Y1214378D01*
X1706189Y1204251D01*
X1711670Y1191019D01*
X1711670Y1176697D01*
X1706189Y1163466D01*
X1696062Y1153338D01*
X1682830Y1147858D01*
X1608508Y1147858D01*
G37*
%LPD*%
%LPC*%
G36*
X160083Y1916361D02*
X160083Y1916361D01*
X146851Y1921842D01*
X136724Y1931969D01*
X131243Y1945201D01*
X131243Y1959523D01*
X136724Y1972755D01*
X146851Y1982882D01*
X160083Y1988363D01*
X234405Y1988363D01*
X247637Y1982882D01*
X257813Y1972706D01*
X257894Y1972640D01*
X257962Y1972561D01*
X258507Y1972138D01*
X259040Y1971701D01*
X259132Y1971653D01*
X259214Y1971589D01*
X259831Y1971282D01*
X260440Y1970959D01*
X260540Y1970929D01*
X260633Y1970883D01*
X261298Y1970703D01*
X261960Y1970507D01*
X262064Y1970497D01*
X262164Y1970470D01*
X263469Y1970363D01*
X678067Y1970363D01*
X678153Y1970371D01*
X678240Y1970365D01*
X678941Y1970450D01*
X679644Y1970520D01*
X679727Y1970545D01*
X679813Y1970556D01*
X680484Y1970777D01*
X681160Y1970985D01*
X681236Y1971026D01*
X681319Y1971054D01*
X681933Y1971404D01*
X682554Y1971740D01*
X682621Y1971795D01*
X682696Y1971838D01*
X683229Y1972302D01*
X683772Y1972755D01*
X683826Y1972823D01*
X683892Y1972879D01*
X684323Y1973440D01*
X684766Y1973990D01*
X684805Y1974067D01*
X684859Y1974136D01*
X685457Y1975301D01*
X689438Y1984911D01*
X700128Y1995601D01*
X714095Y2001386D01*
X729212Y2001386D01*
X743179Y1995601D01*
X753869Y1984911D01*
X759654Y1970945D01*
X759654Y1955827D01*
X753869Y1941860D01*
X743179Y1931170D01*
X729212Y1925385D01*
X714095Y1925385D01*
X700128Y1931170D01*
X699280Y1932019D01*
X699199Y1932085D01*
X699131Y1932163D01*
X698586Y1932586D01*
X698053Y1933023D01*
X697961Y1933072D01*
X697879Y1933135D01*
X697262Y1933443D01*
X696653Y1933766D01*
X696553Y1933795D01*
X696460Y1933842D01*
X695795Y1934021D01*
X695133Y1934218D01*
X695029Y1934227D01*
X694929Y1934254D01*
X693623Y1934361D01*
X263469Y1934361D01*
X263366Y1934351D01*
X263262Y1934359D01*
X262579Y1934273D01*
X261892Y1934204D01*
X261792Y1934174D01*
X261689Y1934161D01*
X261037Y1933942D01*
X260376Y1933739D01*
X260285Y1933690D01*
X260186Y1933657D01*
X259590Y1933313D01*
X258982Y1932984D01*
X258902Y1932918D01*
X258812Y1932866D01*
X257813Y1932019D01*
X247637Y1921842D01*
X234405Y1916361D01*
X160083Y1916361D01*
G37*
%LPD*%
%LPC*%
G36*
X183705Y1418330D02*
X183705Y1418330D01*
X170473Y1423811D01*
X160346Y1433938D01*
X154865Y1447170D01*
X154865Y1461492D01*
X160346Y1474723D01*
X170473Y1484851D01*
X183705Y1490331D01*
X212374Y1490331D01*
X212495Y1490343D01*
X212616Y1490335D01*
X213282Y1490422D01*
X213951Y1490488D01*
X214067Y1490524D01*
X214188Y1490540D01*
X215435Y1490940D01*
X223755Y1494386D01*
X236088Y1494386D01*
X244407Y1490940D01*
X244523Y1490905D01*
X244632Y1490851D01*
X245282Y1490676D01*
X245925Y1490482D01*
X246046Y1490470D01*
X246163Y1490439D01*
X247469Y1490331D01*
X258027Y1490331D01*
X271259Y1484851D01*
X272380Y1483729D01*
X272461Y1483663D01*
X272529Y1483585D01*
X273074Y1483161D01*
X273607Y1482725D01*
X273698Y1482676D01*
X273781Y1482612D01*
X274398Y1482305D01*
X275007Y1481982D01*
X275107Y1481953D01*
X275200Y1481906D01*
X275865Y1481727D01*
X276527Y1481530D01*
X276631Y1481521D01*
X276731Y1481494D01*
X278036Y1481386D01*
X682633Y1481386D01*
X682718Y1481395D01*
X682803Y1481388D01*
X683505Y1481473D01*
X684211Y1481544D01*
X684292Y1481569D01*
X684376Y1481579D01*
X685047Y1481800D01*
X685726Y1482009D01*
X685801Y1482049D01*
X685882Y1482076D01*
X686495Y1482425D01*
X687120Y1482764D01*
X687186Y1482818D01*
X687259Y1482860D01*
X687794Y1483325D01*
X688338Y1483778D01*
X688391Y1483845D01*
X688456Y1483901D01*
X688550Y1484024D01*
X700128Y1495601D01*
X714095Y1501386D01*
X729212Y1501386D01*
X743179Y1495601D01*
X753869Y1484911D01*
X759654Y1470945D01*
X759654Y1455827D01*
X753869Y1441860D01*
X743179Y1431170D01*
X729212Y1425385D01*
X714095Y1425385D01*
X700128Y1431170D01*
X688421Y1442878D01*
X688263Y1443069D01*
X688197Y1443122D01*
X688141Y1443187D01*
X687581Y1443622D01*
X687031Y1444067D01*
X686956Y1444107D01*
X686889Y1444159D01*
X686254Y1444475D01*
X685627Y1444804D01*
X685546Y1444827D01*
X685469Y1444865D01*
X684784Y1445050D01*
X684106Y1445248D01*
X684021Y1445256D01*
X683939Y1445278D01*
X682633Y1445385D01*
X291472Y1445385D01*
X291386Y1445376D01*
X291300Y1445383D01*
X290597Y1445298D01*
X289895Y1445228D01*
X289812Y1445203D01*
X289726Y1445192D01*
X289057Y1444971D01*
X288379Y1444763D01*
X288302Y1444721D01*
X288221Y1444694D01*
X287609Y1444346D01*
X286985Y1444008D01*
X286919Y1443953D01*
X286843Y1443910D01*
X286311Y1443446D01*
X285767Y1442993D01*
X285713Y1442925D01*
X285648Y1442868D01*
X285216Y1442308D01*
X284774Y1441758D01*
X284734Y1441681D01*
X284681Y1441612D01*
X284082Y1440447D01*
X281386Y1433938D01*
X271259Y1423811D01*
X258027Y1418330D01*
X183705Y1418330D01*
G37*
%LPD*%
%LPC*%
G36*
X160083Y2116361D02*
X160083Y2116361D01*
X146851Y2121842D01*
X136724Y2131969D01*
X131243Y2145201D01*
X131243Y2159523D01*
X136724Y2172755D01*
X146851Y2182882D01*
X160083Y2188363D01*
X234405Y2188363D01*
X247637Y2182882D01*
X250789Y2179729D01*
X250870Y2179663D01*
X250938Y2179585D01*
X251483Y2179161D01*
X252016Y2178725D01*
X252108Y2178676D01*
X252190Y2178612D01*
X252807Y2178305D01*
X253417Y2177982D01*
X253516Y2177953D01*
X253609Y2177906D01*
X254274Y2177727D01*
X254936Y2177530D01*
X255040Y2177521D01*
X255140Y2177494D01*
X256446Y2177386D01*
X680976Y2177386D01*
X681062Y2177395D01*
X681149Y2177388D01*
X681850Y2177474D01*
X682554Y2177544D01*
X682637Y2177569D01*
X682723Y2177579D01*
X683391Y2177801D01*
X684069Y2178009D01*
X684146Y2178050D01*
X684228Y2178077D01*
X684840Y2178426D01*
X685463Y2178764D01*
X685530Y2178819D01*
X685605Y2178862D01*
X686137Y2179325D01*
X686681Y2179778D01*
X686736Y2179846D01*
X686801Y2179903D01*
X687232Y2180463D01*
X687675Y2181014D01*
X687715Y2181090D01*
X687768Y2181159D01*
X688367Y2182324D01*
X689438Y2184911D01*
X700128Y2195601D01*
X714095Y2201386D01*
X729212Y2201386D01*
X743179Y2195601D01*
X753869Y2184911D01*
X759654Y2170945D01*
X759654Y2155827D01*
X753869Y2141860D01*
X743179Y2131170D01*
X729212Y2125385D01*
X714095Y2125385D01*
X700128Y2131170D01*
X689438Y2141860D01*
X688367Y2144447D01*
X688325Y2144524D01*
X688299Y2144606D01*
X687952Y2145220D01*
X687618Y2145844D01*
X687562Y2145911D01*
X687520Y2145987D01*
X687057Y2146523D01*
X686608Y2147067D01*
X686541Y2147121D01*
X686484Y2147187D01*
X685926Y2147620D01*
X685377Y2148066D01*
X685300Y2148106D01*
X685232Y2148159D01*
X684601Y2148473D01*
X683973Y2148802D01*
X683890Y2148827D01*
X683813Y2148865D01*
X683129Y2149049D01*
X682452Y2149248D01*
X682365Y2149255D01*
X682282Y2149278D01*
X680976Y2149385D01*
X270323Y2149385D01*
X270237Y2149376D01*
X270150Y2149383D01*
X269448Y2149298D01*
X268745Y2149228D01*
X268662Y2149203D01*
X268576Y2149192D01*
X267906Y2148970D01*
X267230Y2148763D01*
X267153Y2148722D01*
X267071Y2148694D01*
X266456Y2148344D01*
X265836Y2148008D01*
X265769Y2147953D01*
X265694Y2147910D01*
X265159Y2147445D01*
X264618Y2146993D01*
X264564Y2146926D01*
X264498Y2146869D01*
X264065Y2146307D01*
X263624Y2145758D01*
X263584Y2145681D01*
X263531Y2145612D01*
X262932Y2144447D01*
X257764Y2131969D01*
X247637Y2121842D01*
X234405Y2116361D01*
X160083Y2116361D01*
G37*
%LPD*%
%LPC*%
G36*
X160083Y2216361D02*
X160083Y2216361D01*
X146851Y2221842D01*
X136724Y2231969D01*
X131243Y2245201D01*
X131243Y2259523D01*
X136724Y2272755D01*
X146851Y2282882D01*
X160083Y2288363D01*
X234405Y2288363D01*
X247637Y2282882D01*
X257764Y2272755D01*
X258366Y2271301D01*
X258407Y2271225D01*
X258434Y2271142D01*
X258781Y2270527D01*
X259115Y2269904D01*
X259170Y2269837D01*
X259213Y2269761D01*
X259674Y2269227D01*
X260125Y2268681D01*
X260192Y2268627D01*
X260249Y2268561D01*
X260806Y2268128D01*
X261355Y2267682D01*
X261433Y2267642D01*
X261501Y2267589D01*
X262133Y2267274D01*
X262759Y2266946D01*
X262842Y2266921D01*
X262920Y2266883D01*
X263603Y2266699D01*
X264281Y2266500D01*
X264367Y2266493D01*
X264451Y2266470D01*
X265757Y2266363D01*
X676410Y2266363D01*
X676496Y2266371D01*
X676583Y2266365D01*
X677284Y2266450D01*
X677988Y2266520D01*
X678071Y2266545D01*
X678157Y2266556D01*
X678827Y2266777D01*
X679503Y2266985D01*
X679579Y2267026D01*
X679662Y2267054D01*
X680276Y2267404D01*
X680897Y2267740D01*
X680964Y2267795D01*
X681039Y2267838D01*
X681572Y2268302D01*
X682115Y2268755D01*
X682170Y2268823D01*
X682235Y2268879D01*
X682666Y2269440D01*
X683109Y2269990D01*
X683149Y2270067D01*
X683202Y2270136D01*
X683800Y2271301D01*
X689438Y2284911D01*
X700128Y2295601D01*
X714095Y2301386D01*
X729212Y2301386D01*
X743179Y2295601D01*
X753869Y2284911D01*
X759654Y2270945D01*
X759654Y2255827D01*
X753869Y2241860D01*
X743179Y2231170D01*
X729212Y2225385D01*
X714095Y2225385D01*
X700128Y2231170D01*
X695280Y2236019D01*
X695199Y2236085D01*
X695131Y2236163D01*
X694586Y2236586D01*
X694053Y2237023D01*
X693961Y2237072D01*
X693879Y2237135D01*
X693262Y2237443D01*
X692653Y2237766D01*
X692553Y2237795D01*
X692460Y2237842D01*
X691795Y2238021D01*
X691133Y2238218D01*
X691029Y2238227D01*
X690929Y2238254D01*
X689623Y2238361D01*
X265757Y2238361D01*
X265670Y2238353D01*
X265584Y2238360D01*
X264881Y2238274D01*
X264179Y2238204D01*
X264096Y2238179D01*
X264010Y2238168D01*
X263340Y2237947D01*
X262663Y2237739D01*
X262587Y2237698D01*
X262505Y2237671D01*
X261892Y2237322D01*
X261269Y2236984D01*
X261203Y2236929D01*
X261127Y2236886D01*
X260594Y2236421D01*
X260052Y2235969D01*
X259997Y2235902D01*
X259932Y2235845D01*
X259499Y2235282D01*
X259058Y2234734D01*
X259018Y2234658D01*
X258965Y2234588D01*
X258366Y2233423D01*
X257764Y2231969D01*
X247637Y2221842D01*
X234405Y2216361D01*
X160083Y2216361D01*
G37*
%LPD*%
%LPC*%
G36*
X160083Y2016361D02*
X160083Y2016361D01*
X146851Y2021842D01*
X136724Y2031969D01*
X131243Y2045201D01*
X131243Y2059523D01*
X136724Y2072755D01*
X146851Y2082882D01*
X160083Y2088363D01*
X234405Y2088363D01*
X247637Y2082882D01*
X257764Y2072755D01*
X258366Y2071301D01*
X258407Y2071225D01*
X258434Y2071142D01*
X258781Y2070527D01*
X259115Y2069904D01*
X259170Y2069837D01*
X259213Y2069761D01*
X259674Y2069227D01*
X260125Y2068681D01*
X260192Y2068627D01*
X260249Y2068561D01*
X260806Y2068128D01*
X261355Y2067682D01*
X261433Y2067642D01*
X261501Y2067589D01*
X262133Y2067274D01*
X262759Y2066946D01*
X262842Y2066921D01*
X262920Y2066883D01*
X263603Y2066699D01*
X264281Y2066500D01*
X264367Y2066493D01*
X264451Y2066470D01*
X265757Y2066363D01*
X676410Y2066363D01*
X676496Y2066371D01*
X676583Y2066365D01*
X677284Y2066450D01*
X677988Y2066520D01*
X678071Y2066545D01*
X678157Y2066556D01*
X678827Y2066777D01*
X679503Y2066985D01*
X679579Y2067026D01*
X679662Y2067054D01*
X680276Y2067404D01*
X680897Y2067740D01*
X680964Y2067795D01*
X681039Y2067838D01*
X681572Y2068302D01*
X682115Y2068755D01*
X682170Y2068823D01*
X682235Y2068879D01*
X682666Y2069440D01*
X683109Y2069990D01*
X683149Y2070067D01*
X683202Y2070136D01*
X683800Y2071301D01*
X689438Y2084911D01*
X700128Y2095601D01*
X714095Y2101386D01*
X729212Y2101386D01*
X743179Y2095601D01*
X753869Y2084911D01*
X759654Y2070945D01*
X759654Y2055827D01*
X753869Y2041860D01*
X743179Y2031170D01*
X729212Y2025385D01*
X714095Y2025385D01*
X700128Y2031170D01*
X695280Y2036019D01*
X695199Y2036085D01*
X695131Y2036163D01*
X694586Y2036586D01*
X694053Y2037023D01*
X693961Y2037072D01*
X693879Y2037135D01*
X693262Y2037443D01*
X692653Y2037766D01*
X692553Y2037795D01*
X692460Y2037842D01*
X691795Y2038021D01*
X691133Y2038218D01*
X691029Y2038227D01*
X690929Y2038254D01*
X689623Y2038361D01*
X265757Y2038361D01*
X265670Y2038353D01*
X265584Y2038360D01*
X264881Y2038274D01*
X264179Y2038204D01*
X264096Y2038179D01*
X264010Y2038168D01*
X263340Y2037947D01*
X262663Y2037739D01*
X262587Y2037698D01*
X262505Y2037671D01*
X261892Y2037322D01*
X261269Y2036984D01*
X261203Y2036929D01*
X261127Y2036886D01*
X260594Y2036421D01*
X260052Y2035969D01*
X259997Y2035902D01*
X259932Y2035845D01*
X259499Y2035282D01*
X259058Y2034734D01*
X259018Y2034658D01*
X258965Y2034588D01*
X258366Y2033423D01*
X257764Y2031969D01*
X247637Y2021842D01*
X234405Y2016361D01*
X160083Y2016361D01*
G37*
%LPD*%
%LPC*%
G36*
X183705Y1218330D02*
X183705Y1218330D01*
X170473Y1223811D01*
X160346Y1233938D01*
X154865Y1247170D01*
X154865Y1261492D01*
X160346Y1274723D01*
X170473Y1284851D01*
X183705Y1290331D01*
X212374Y1290331D01*
X212495Y1290343D01*
X212616Y1290335D01*
X213282Y1290422D01*
X213951Y1290488D01*
X214067Y1290524D01*
X214188Y1290540D01*
X215435Y1290940D01*
X223755Y1294386D01*
X236088Y1294386D01*
X244407Y1290940D01*
X244523Y1290905D01*
X244632Y1290851D01*
X245282Y1290676D01*
X245925Y1290482D01*
X246046Y1290470D01*
X246163Y1290439D01*
X247469Y1290331D01*
X258027Y1290331D01*
X271259Y1284851D01*
X276380Y1279729D01*
X276461Y1279663D01*
X276529Y1279585D01*
X277074Y1279161D01*
X277607Y1278725D01*
X277698Y1278676D01*
X277781Y1278612D01*
X278398Y1278305D01*
X279007Y1277982D01*
X279107Y1277953D01*
X279200Y1277906D01*
X279865Y1277727D01*
X280527Y1277530D01*
X280631Y1277521D01*
X280731Y1277494D01*
X282036Y1277386D01*
X680976Y1277386D01*
X681063Y1277395D01*
X681149Y1277388D01*
X681851Y1277474D01*
X682554Y1277544D01*
X682637Y1277569D01*
X682723Y1277579D01*
X683392Y1277801D01*
X684069Y1278009D01*
X684146Y1278050D01*
X684228Y1278077D01*
X684841Y1278426D01*
X685463Y1278764D01*
X685530Y1278819D01*
X685606Y1278862D01*
X686139Y1279327D01*
X686681Y1279778D01*
X686735Y1279846D01*
X686801Y1279903D01*
X687234Y1280466D01*
X687675Y1281014D01*
X687715Y1281090D01*
X687768Y1281159D01*
X688367Y1282325D01*
X689438Y1284911D01*
X700128Y1295601D01*
X714095Y1301386D01*
X729212Y1301386D01*
X743179Y1295601D01*
X753869Y1284911D01*
X759654Y1270945D01*
X759654Y1255827D01*
X753869Y1241860D01*
X743179Y1231170D01*
X729212Y1225385D01*
X714095Y1225385D01*
X700128Y1231170D01*
X689438Y1241860D01*
X688367Y1244447D01*
X688326Y1244523D01*
X688299Y1244606D01*
X687952Y1245221D01*
X687618Y1245844D01*
X687563Y1245911D01*
X687520Y1245987D01*
X687057Y1246523D01*
X686608Y1247066D01*
X686541Y1247121D01*
X686484Y1247187D01*
X685925Y1247621D01*
X685377Y1248066D01*
X685300Y1248106D01*
X685232Y1248159D01*
X684599Y1248474D01*
X683974Y1248802D01*
X683891Y1248827D01*
X683813Y1248865D01*
X683129Y1249049D01*
X682452Y1249248D01*
X682365Y1249255D01*
X682282Y1249278D01*
X680976Y1249385D01*
X293129Y1249385D01*
X293043Y1249376D01*
X292956Y1249383D01*
X292255Y1249298D01*
X291552Y1249228D01*
X291469Y1249203D01*
X291383Y1249192D01*
X290713Y1248970D01*
X290036Y1248763D01*
X289960Y1248722D01*
X289878Y1248694D01*
X289263Y1248344D01*
X288642Y1248008D01*
X288576Y1247953D01*
X288500Y1247910D01*
X287967Y1247446D01*
X287424Y1246993D01*
X287370Y1246925D01*
X287305Y1246868D01*
X286873Y1246308D01*
X286431Y1245758D01*
X286391Y1245681D01*
X286338Y1245612D01*
X285739Y1244447D01*
X281386Y1233938D01*
X271259Y1223811D01*
X258027Y1218330D01*
X183705Y1218330D01*
G37*
%LPD*%
%LPC*%
G36*
X183705Y1318330D02*
X183705Y1318330D01*
X170473Y1323811D01*
X160346Y1333938D01*
X154865Y1347170D01*
X154865Y1361492D01*
X160346Y1374723D01*
X170473Y1384851D01*
X183705Y1390331D01*
X258027Y1390331D01*
X271259Y1384851D01*
X281386Y1374723D01*
X281988Y1373270D01*
X282029Y1373193D01*
X282056Y1373110D01*
X282403Y1372496D01*
X282737Y1371872D01*
X282792Y1371805D01*
X282835Y1371730D01*
X283296Y1371196D01*
X283747Y1370650D01*
X283814Y1370595D01*
X283871Y1370530D01*
X284428Y1370097D01*
X284977Y1369651D01*
X285055Y1369610D01*
X285123Y1369557D01*
X285755Y1369243D01*
X286381Y1368914D01*
X286464Y1368890D01*
X286542Y1368851D01*
X287225Y1368667D01*
X287903Y1368469D01*
X287989Y1368461D01*
X288073Y1368439D01*
X289379Y1368331D01*
X677225Y1368331D01*
X677312Y1368340D01*
X677398Y1368333D01*
X678100Y1368418D01*
X678803Y1368488D01*
X678886Y1368514D01*
X678972Y1368524D01*
X679642Y1368746D01*
X680319Y1368953D01*
X680395Y1368995D01*
X680477Y1369022D01*
X681092Y1369372D01*
X681713Y1369708D01*
X681779Y1369764D01*
X681855Y1369807D01*
X682387Y1370270D01*
X682930Y1370723D01*
X682984Y1370791D01*
X683050Y1370848D01*
X683483Y1371410D01*
X683924Y1371959D01*
X683964Y1372035D01*
X684017Y1372104D01*
X684616Y1373269D01*
X689438Y1384911D01*
X700128Y1395601D01*
X714095Y1401386D01*
X729212Y1401386D01*
X743179Y1395601D01*
X753869Y1384911D01*
X759654Y1370945D01*
X759654Y1355827D01*
X753869Y1341860D01*
X743179Y1331170D01*
X729212Y1325385D01*
X714095Y1325385D01*
X700128Y1331170D01*
X693311Y1337987D01*
X693231Y1338053D01*
X693163Y1338132D01*
X692617Y1338555D01*
X692085Y1338991D01*
X691993Y1339040D01*
X691910Y1339104D01*
X691293Y1339411D01*
X690684Y1339734D01*
X690584Y1339764D01*
X690491Y1339810D01*
X689826Y1339989D01*
X689164Y1340186D01*
X689061Y1340196D01*
X688960Y1340223D01*
X687655Y1340330D01*
X289379Y1340330D01*
X289292Y1340321D01*
X289206Y1340328D01*
X288503Y1340243D01*
X287801Y1340173D01*
X287718Y1340147D01*
X287632Y1340137D01*
X286962Y1339915D01*
X286285Y1339708D01*
X286209Y1339666D01*
X286127Y1339639D01*
X285514Y1339290D01*
X284891Y1338953D01*
X284825Y1338897D01*
X284749Y1338854D01*
X284216Y1338390D01*
X283674Y1337938D01*
X283619Y1337871D01*
X283554Y1337813D01*
X283121Y1337251D01*
X282680Y1336703D01*
X282640Y1336626D01*
X282587Y1336557D01*
X281988Y1335392D01*
X281386Y1333938D01*
X271259Y1323811D01*
X258027Y1318330D01*
X183705Y1318330D01*
G37*
%LPD*%
%LPC*%
G36*
X1014095Y1825385D02*
X1014095Y1825385D01*
X1000128Y1831170D01*
X989438Y1841860D01*
X983653Y1855827D01*
X983653Y1870945D01*
X989438Y1884911D01*
X1000128Y1895601D01*
X1014095Y1901386D01*
X1029212Y1901386D01*
X1031799Y1900315D01*
X1031882Y1900290D01*
X1031960Y1900250D01*
X1032640Y1900061D01*
X1033317Y1899856D01*
X1033403Y1899848D01*
X1033487Y1899825D01*
X1034191Y1899773D01*
X1034895Y1899706D01*
X1034981Y1899715D01*
X1035068Y1899709D01*
X1035769Y1899797D01*
X1036472Y1899870D01*
X1036554Y1899896D01*
X1036641Y1899907D01*
X1037311Y1900131D01*
X1037985Y1900342D01*
X1038061Y1900383D01*
X1038144Y1900411D01*
X1038755Y1900763D01*
X1039376Y1901102D01*
X1039443Y1901158D01*
X1039518Y1901202D01*
X1040517Y1902049D01*
X1071058Y1932590D01*
X1081602Y1943134D01*
X1133731Y1943134D01*
X1133817Y1943143D01*
X1133904Y1943136D01*
X1134606Y1943222D01*
X1135309Y1943292D01*
X1135392Y1943317D01*
X1135478Y1943328D01*
X1136148Y1943549D01*
X1136824Y1943757D01*
X1136901Y1943798D01*
X1136983Y1943825D01*
X1137598Y1944175D01*
X1138219Y1944512D01*
X1138285Y1944567D01*
X1138360Y1944610D01*
X1138895Y1945075D01*
X1139436Y1945526D01*
X1139490Y1945594D01*
X1139556Y1945651D01*
X1139989Y1946213D01*
X1140430Y1946762D01*
X1140470Y1946838D01*
X1140523Y1946907D01*
X1141122Y1948073D01*
X1144920Y1957242D01*
X1155750Y1968072D01*
X1169901Y1973934D01*
X1185217Y1973934D01*
X1199368Y1968072D01*
X1210198Y1957242D01*
X1211387Y1954372D01*
X1211428Y1954295D01*
X1211455Y1954213D01*
X1211801Y1953599D01*
X1212136Y1952975D01*
X1212191Y1952907D01*
X1212234Y1952832D01*
X1212695Y1952298D01*
X1213146Y1951752D01*
X1213213Y1951698D01*
X1213270Y1951632D01*
X1213828Y1951198D01*
X1214376Y1950753D01*
X1214453Y1950713D01*
X1214522Y1950660D01*
X1215156Y1950344D01*
X1215780Y1950016D01*
X1215863Y1949992D01*
X1215941Y1949953D01*
X1216625Y1949769D01*
X1217302Y1949571D01*
X1217388Y1949563D01*
X1217472Y1949541D01*
X1218777Y1949434D01*
X1299894Y1949434D01*
X1310438Y1938889D01*
X1310439Y1938889D01*
X1312228Y1937100D01*
X1312308Y1937034D01*
X1312376Y1936955D01*
X1312922Y1936531D01*
X1313454Y1936095D01*
X1313546Y1936046D01*
X1313629Y1935983D01*
X1314245Y1935676D01*
X1314855Y1935352D01*
X1314954Y1935323D01*
X1315048Y1935276D01*
X1315714Y1935097D01*
X1316374Y1934900D01*
X1316478Y1934891D01*
X1316579Y1934864D01*
X1317884Y1934757D01*
X1340027Y1934757D01*
X1358772Y1916011D01*
X1358772Y1889501D01*
X1340027Y1870755D01*
X1313517Y1870755D01*
X1294771Y1889501D01*
X1294771Y1911643D01*
X1294761Y1911747D01*
X1294768Y1911851D01*
X1294682Y1912535D01*
X1294614Y1913221D01*
X1294583Y1913320D01*
X1294570Y1913424D01*
X1294351Y1914077D01*
X1294149Y1914736D01*
X1294099Y1914828D01*
X1294066Y1914927D01*
X1293722Y1915523D01*
X1293394Y1916130D01*
X1293327Y1916210D01*
X1293275Y1916301D01*
X1292428Y1917300D01*
X1290638Y1919090D01*
X1290558Y1919155D01*
X1290490Y1919234D01*
X1289944Y1919657D01*
X1289411Y1920094D01*
X1289319Y1920143D01*
X1289237Y1920206D01*
X1288622Y1920513D01*
X1288011Y1920837D01*
X1287911Y1920866D01*
X1287818Y1920913D01*
X1287153Y1921092D01*
X1286491Y1921289D01*
X1286388Y1921298D01*
X1286287Y1921325D01*
X1284982Y1921432D01*
X1218777Y1921432D01*
X1218691Y1921424D01*
X1218605Y1921430D01*
X1217903Y1921345D01*
X1217200Y1921275D01*
X1217117Y1921250D01*
X1217031Y1921239D01*
X1216361Y1921018D01*
X1215684Y1920810D01*
X1215608Y1920769D01*
X1215526Y1920742D01*
X1214911Y1920391D01*
X1214290Y1920055D01*
X1214224Y1920000D01*
X1214148Y1919957D01*
X1213616Y1919493D01*
X1213072Y1919040D01*
X1213018Y1918973D01*
X1212953Y1918916D01*
X1212521Y1918355D01*
X1212079Y1917805D01*
X1212039Y1917728D01*
X1211986Y1917659D01*
X1211387Y1916494D01*
X1210198Y1913624D01*
X1199368Y1902794D01*
X1185217Y1896932D01*
X1169901Y1896932D01*
X1155750Y1902794D01*
X1145754Y1912790D01*
X1145674Y1912856D01*
X1145605Y1912935D01*
X1145060Y1913358D01*
X1144527Y1913795D01*
X1144435Y1913844D01*
X1144353Y1913907D01*
X1143737Y1914214D01*
X1143127Y1914537D01*
X1143027Y1914567D01*
X1142934Y1914613D01*
X1142267Y1914793D01*
X1141607Y1914989D01*
X1141504Y1914999D01*
X1141403Y1915026D01*
X1140097Y1915133D01*
X1096514Y1915133D01*
X1096411Y1915123D01*
X1096307Y1915130D01*
X1095624Y1915044D01*
X1094937Y1914976D01*
X1094837Y1914945D01*
X1094734Y1914932D01*
X1094082Y1914714D01*
X1093421Y1914511D01*
X1093329Y1914461D01*
X1093231Y1914428D01*
X1092635Y1914085D01*
X1092027Y1913756D01*
X1091947Y1913689D01*
X1091857Y1913638D01*
X1090858Y1912790D01*
X1060317Y1882249D01*
X1060261Y1882182D01*
X1060196Y1882125D01*
X1059760Y1881569D01*
X1059312Y1881022D01*
X1059272Y1880946D01*
X1059218Y1880877D01*
X1058901Y1880247D01*
X1058569Y1879622D01*
X1058545Y1879539D01*
X1058506Y1879461D01*
X1058319Y1878781D01*
X1058117Y1878102D01*
X1058109Y1878016D01*
X1058087Y1877932D01*
X1058038Y1877230D01*
X1057974Y1876523D01*
X1057983Y1876437D01*
X1057977Y1876351D01*
X1058068Y1875652D01*
X1058145Y1874947D01*
X1058171Y1874865D01*
X1058182Y1874779D01*
X1058583Y1873531D01*
X1059654Y1870945D01*
X1059654Y1855827D01*
X1053869Y1841860D01*
X1043179Y1831170D01*
X1029212Y1825385D01*
X1014095Y1825385D01*
G37*
%LPD*%
%LPC*%
G36*
X1169901Y1696932D02*
X1169901Y1696932D01*
X1155750Y1702794D01*
X1144920Y1713624D01*
X1139058Y1727775D01*
X1139058Y1741386D01*
X1139051Y1741455D01*
X1139057Y1741524D01*
X1138973Y1742242D01*
X1138901Y1742963D01*
X1138881Y1743030D01*
X1138873Y1743099D01*
X1138649Y1743785D01*
X1138436Y1744479D01*
X1138403Y1744540D01*
X1138382Y1744606D01*
X1138027Y1745234D01*
X1137681Y1745873D01*
X1137637Y1745926D01*
X1137603Y1745987D01*
X1137130Y1746535D01*
X1136666Y1747091D01*
X1136612Y1747134D01*
X1136567Y1747187D01*
X1135993Y1747632D01*
X1135431Y1748085D01*
X1135370Y1748117D01*
X1135315Y1748159D01*
X1134665Y1748483D01*
X1134024Y1748815D01*
X1133958Y1748834D01*
X1133895Y1748865D01*
X1133194Y1749054D01*
X1132501Y1749254D01*
X1132432Y1749260D01*
X1132365Y1749278D01*
X1131059Y1749385D01*
X1062331Y1749385D01*
X1062244Y1749376D01*
X1062158Y1749383D01*
X1061456Y1749298D01*
X1060753Y1749228D01*
X1060670Y1749203D01*
X1060584Y1749192D01*
X1059915Y1748971D01*
X1059238Y1748763D01*
X1059161Y1748721D01*
X1059079Y1748694D01*
X1058466Y1748345D01*
X1057844Y1748008D01*
X1057777Y1747952D01*
X1057701Y1747909D01*
X1057168Y1747445D01*
X1056626Y1746993D01*
X1056571Y1746926D01*
X1056506Y1746868D01*
X1056073Y1746306D01*
X1055632Y1745758D01*
X1055592Y1745681D01*
X1055539Y1745612D01*
X1054940Y1744447D01*
X1053869Y1741860D01*
X1043179Y1731170D01*
X1029212Y1725385D01*
X1014095Y1725385D01*
X1000128Y1731170D01*
X989438Y1741860D01*
X983653Y1755827D01*
X983653Y1770945D01*
X989438Y1784911D01*
X1000128Y1795601D01*
X1014095Y1801386D01*
X1029212Y1801386D01*
X1043179Y1795601D01*
X1053869Y1784911D01*
X1054940Y1782325D01*
X1054981Y1782248D01*
X1055008Y1782166D01*
X1055355Y1781551D01*
X1055689Y1780927D01*
X1055744Y1780860D01*
X1055787Y1780785D01*
X1056250Y1780249D01*
X1056699Y1779705D01*
X1056766Y1779651D01*
X1056823Y1779585D01*
X1057382Y1779151D01*
X1057930Y1778706D01*
X1058007Y1778665D01*
X1058075Y1778612D01*
X1058708Y1778297D01*
X1059333Y1777969D01*
X1059416Y1777945D01*
X1059494Y1777906D01*
X1060178Y1777722D01*
X1060855Y1777524D01*
X1060942Y1777516D01*
X1061025Y1777494D01*
X1062331Y1777386D01*
X1155406Y1777386D01*
X1158313Y1774479D01*
X1158380Y1774424D01*
X1158437Y1774358D01*
X1158993Y1773922D01*
X1159540Y1773474D01*
X1159617Y1773434D01*
X1159685Y1773380D01*
X1160316Y1773063D01*
X1160940Y1772732D01*
X1161023Y1772707D01*
X1161101Y1772668D01*
X1161784Y1772481D01*
X1162460Y1772280D01*
X1162546Y1772272D01*
X1162630Y1772249D01*
X1163334Y1772200D01*
X1164039Y1772136D01*
X1164125Y1772145D01*
X1164212Y1772140D01*
X1164911Y1772231D01*
X1165615Y1772307D01*
X1165697Y1772333D01*
X1165784Y1772344D01*
X1167031Y1772745D01*
X1169901Y1773934D01*
X1185217Y1773934D01*
X1188087Y1772745D01*
X1188170Y1772720D01*
X1188248Y1772680D01*
X1188926Y1772491D01*
X1189605Y1772286D01*
X1189692Y1772278D01*
X1189775Y1772255D01*
X1190479Y1772203D01*
X1191183Y1772136D01*
X1191269Y1772145D01*
X1191356Y1772139D01*
X1192055Y1772227D01*
X1192760Y1772300D01*
X1192843Y1772326D01*
X1192929Y1772336D01*
X1193598Y1772561D01*
X1194273Y1772771D01*
X1194349Y1772813D01*
X1194432Y1772841D01*
X1195047Y1773195D01*
X1195664Y1773532D01*
X1195730Y1773588D01*
X1195806Y1773631D01*
X1196805Y1774479D01*
X1201287Y1778961D01*
X1302046Y1778961D01*
X1302149Y1778972D01*
X1302253Y1778964D01*
X1302936Y1779050D01*
X1303623Y1779118D01*
X1303723Y1779149D01*
X1303826Y1779162D01*
X1304478Y1779381D01*
X1305139Y1779583D01*
X1305231Y1779633D01*
X1305329Y1779666D01*
X1305925Y1780009D01*
X1306533Y1780338D01*
X1306613Y1780405D01*
X1306703Y1780457D01*
X1307702Y1781304D01*
X1323359Y1796961D01*
X1349869Y1796961D01*
X1368615Y1778216D01*
X1368615Y1751706D01*
X1349869Y1732960D01*
X1323359Y1732960D01*
X1307702Y1748617D01*
X1307621Y1748683D01*
X1307554Y1748762D01*
X1307008Y1749185D01*
X1306475Y1749621D01*
X1306384Y1749670D01*
X1306301Y1749734D01*
X1305684Y1750041D01*
X1305075Y1750364D01*
X1304975Y1750394D01*
X1304882Y1750440D01*
X1304217Y1750619D01*
X1303555Y1750816D01*
X1303451Y1750826D01*
X1303351Y1750853D01*
X1302046Y1750960D01*
X1224059Y1750960D01*
X1223990Y1750953D01*
X1223921Y1750959D01*
X1223203Y1750875D01*
X1222481Y1750803D01*
X1222415Y1750782D01*
X1222346Y1750774D01*
X1221660Y1750551D01*
X1220966Y1750338D01*
X1220904Y1750305D01*
X1220839Y1750283D01*
X1220211Y1749929D01*
X1219572Y1749583D01*
X1219518Y1749538D01*
X1219458Y1749504D01*
X1218910Y1749031D01*
X1218354Y1748568D01*
X1218311Y1748514D01*
X1218258Y1748469D01*
X1217813Y1747895D01*
X1217360Y1747333D01*
X1217328Y1747271D01*
X1217286Y1747216D01*
X1216962Y1746566D01*
X1216630Y1745926D01*
X1216610Y1745859D01*
X1216579Y1745797D01*
X1216391Y1745096D01*
X1216191Y1744402D01*
X1216185Y1744333D01*
X1216167Y1744266D01*
X1216060Y1742961D01*
X1216060Y1727775D01*
X1210198Y1713624D01*
X1199368Y1702794D01*
X1185217Y1696932D01*
X1169901Y1696932D01*
G37*
%LPD*%
%LPC*%
G36*
X549200Y1537377D02*
X549200Y1537377D01*
X526354Y1560223D01*
X526354Y1592532D01*
X549200Y1615379D01*
X575585Y1615379D01*
X575688Y1615389D01*
X575792Y1615381D01*
X576475Y1615467D01*
X577162Y1615536D01*
X577262Y1615566D01*
X577365Y1615579D01*
X578017Y1615798D01*
X578678Y1616001D01*
X578770Y1616050D01*
X578868Y1616083D01*
X579464Y1616427D01*
X580072Y1616756D01*
X580152Y1616822D01*
X580242Y1616874D01*
X581241Y1617721D01*
X602097Y1638578D01*
X602163Y1638658D01*
X602242Y1638726D01*
X602665Y1639271D01*
X603102Y1639804D01*
X603150Y1639896D01*
X603214Y1639978D01*
X603521Y1640595D01*
X603844Y1641205D01*
X603874Y1641305D01*
X603921Y1641398D01*
X604100Y1642062D01*
X604297Y1642724D01*
X604306Y1642828D01*
X604333Y1642928D01*
X604440Y1644234D01*
X604440Y1741085D01*
X604430Y1741189D01*
X604438Y1741292D01*
X604352Y1741976D01*
X604283Y1742663D01*
X604252Y1742762D01*
X604240Y1742865D01*
X604021Y1743517D01*
X603818Y1744178D01*
X603768Y1744270D01*
X603735Y1744368D01*
X603392Y1744965D01*
X603063Y1745572D01*
X602996Y1745652D01*
X602945Y1745742D01*
X602097Y1746741D01*
X590440Y1758398D01*
X590440Y1784908D01*
X609186Y1803654D01*
X635696Y1803654D01*
X654442Y1784908D01*
X654442Y1758398D01*
X642784Y1746741D01*
X642719Y1746661D01*
X642640Y1746593D01*
X642217Y1746048D01*
X641780Y1745515D01*
X641731Y1745423D01*
X641668Y1745341D01*
X641360Y1744724D01*
X641037Y1744114D01*
X641008Y1744015D01*
X640961Y1743921D01*
X640782Y1743257D01*
X640585Y1742595D01*
X640576Y1742491D01*
X640549Y1742391D01*
X640442Y1741085D01*
X640442Y1629884D01*
X637701Y1623268D01*
X606698Y1592265D01*
X606632Y1592184D01*
X606553Y1592116D01*
X606130Y1591571D01*
X605694Y1591038D01*
X605645Y1590946D01*
X605581Y1590864D01*
X605274Y1590247D01*
X604951Y1589638D01*
X604921Y1589538D01*
X604875Y1589445D01*
X604695Y1588780D01*
X604499Y1588118D01*
X604489Y1588014D01*
X604462Y1587914D01*
X604355Y1586608D01*
X604355Y1560223D01*
X581509Y1537377D01*
X549200Y1537377D01*
G37*
%LPD*%
%LPC*%
G36*
X456286Y798401D02*
X456286Y798401D01*
X433440Y821247D01*
X433440Y853556D01*
X456286Y876402D01*
X488595Y876402D01*
X510053Y854945D01*
X510107Y854900D01*
X510151Y854848D01*
X510717Y854401D01*
X511279Y853940D01*
X511341Y853908D01*
X511395Y853865D01*
X512038Y853538D01*
X512680Y853198D01*
X512747Y853178D01*
X512808Y853146D01*
X513502Y852953D01*
X514199Y852746D01*
X514269Y852739D01*
X514335Y852721D01*
X515054Y852668D01*
X515778Y852602D01*
X515848Y852610D01*
X515916Y852605D01*
X516631Y852695D01*
X517354Y852773D01*
X517421Y852794D01*
X517489Y852803D01*
X518175Y853033D01*
X518866Y853251D01*
X518926Y853285D01*
X518992Y853307D01*
X519620Y853668D01*
X520253Y854018D01*
X520306Y854063D01*
X520366Y854097D01*
X521365Y854945D01*
X577467Y911047D01*
X577533Y911127D01*
X577612Y911195D01*
X578035Y911741D01*
X578472Y912273D01*
X578520Y912365D01*
X578584Y912448D01*
X578891Y913065D01*
X579215Y913674D01*
X579244Y913774D01*
X579291Y913867D01*
X579470Y914532D01*
X579667Y915194D01*
X579676Y915297D01*
X579703Y915398D01*
X579810Y916703D01*
X579810Y938845D01*
X598556Y957591D01*
X625066Y957591D01*
X643812Y938845D01*
X643812Y912336D01*
X625066Y893590D01*
X602924Y893590D01*
X602820Y893579D01*
X602716Y893587D01*
X602033Y893501D01*
X601346Y893433D01*
X601247Y893402D01*
X601143Y893389D01*
X600491Y893170D01*
X599831Y892968D01*
X599739Y892918D01*
X599641Y892885D01*
X599044Y892542D01*
X598437Y892213D01*
X598357Y892146D01*
X598266Y892094D01*
X597267Y891247D01*
X529421Y823401D01*
X516909Y823401D01*
X516805Y823391D01*
X516702Y823398D01*
X516018Y823312D01*
X515331Y823244D01*
X515232Y823213D01*
X515129Y823200D01*
X514477Y822981D01*
X513816Y822779D01*
X513724Y822729D01*
X513626Y822696D01*
X513029Y822353D01*
X512422Y822024D01*
X512342Y821957D01*
X512252Y821905D01*
X511252Y821058D01*
X488595Y798401D01*
X456286Y798401D01*
G37*
%LPD*%
%LPC*%
G36*
X148272Y316361D02*
X148272Y316361D01*
X135040Y321842D01*
X124913Y331969D01*
X119432Y345201D01*
X119432Y359523D01*
X124913Y372755D01*
X135040Y382882D01*
X148272Y388363D01*
X222594Y388363D01*
X235826Y382882D01*
X245953Y372755D01*
X251434Y359523D01*
X251434Y345201D01*
X245953Y331969D01*
X235826Y321842D01*
X222594Y316361D01*
X148272Y316361D01*
G37*
%LPD*%
%LPC*%
G36*
X773289Y590440D02*
X773289Y590440D01*
X757485Y596987D01*
X745388Y609083D01*
X738842Y624887D01*
X738842Y641994D01*
X745388Y657799D01*
X757485Y669895D01*
X773289Y676442D01*
X790396Y676442D01*
X806200Y669895D01*
X818297Y657799D01*
X824843Y641994D01*
X824843Y624887D01*
X818297Y609083D01*
X806200Y596987D01*
X790396Y590440D01*
X773289Y590440D01*
G37*
%LPD*%
%LPC*%
G36*
X773289Y768440D02*
X773289Y768440D01*
X757485Y774987D01*
X745388Y787083D01*
X738842Y802887D01*
X738842Y819994D01*
X745388Y835799D01*
X757485Y847895D01*
X773289Y854442D01*
X790396Y854442D01*
X806200Y847895D01*
X818297Y835799D01*
X824843Y819994D01*
X824843Y802887D01*
X818297Y787083D01*
X806200Y774987D01*
X790396Y768440D01*
X773289Y768440D01*
G37*
%LPD*%
%LPC*%
G36*
X1655669Y1543858D02*
X1655669Y1543858D01*
X1655669Y1581857D01*
X1655662Y1581927D01*
X1655667Y1581996D01*
X1655583Y1582714D01*
X1655511Y1583435D01*
X1655491Y1583501D01*
X1655483Y1583570D01*
X1655382Y1583879D01*
X1655538Y1584417D01*
X1655543Y1584486D01*
X1655561Y1584553D01*
X1655669Y1585859D01*
X1655669Y1623859D01*
X1678818Y1623859D01*
X1685036Y1622874D01*
X1691024Y1620928D01*
X1696634Y1618070D01*
X1701728Y1614369D01*
X1706180Y1609917D01*
X1709881Y1604823D01*
X1712739Y1599213D01*
X1714685Y1593226D01*
X1715753Y1586483D01*
X1715795Y1586321D01*
X1715811Y1586156D01*
X1715995Y1585557D01*
X1716155Y1584949D01*
X1716228Y1584800D01*
X1716276Y1584641D01*
X1716575Y1584089D01*
X1716677Y1583881D01*
X1716454Y1583381D01*
X1716174Y1582819D01*
X1716131Y1582658D01*
X1716063Y1582507D01*
X1715807Y1581459D01*
X1715762Y1581288D01*
X1715759Y1581261D01*
X1715753Y1581234D01*
X1714685Y1574491D01*
X1712739Y1568503D01*
X1709881Y1562894D01*
X1706180Y1557800D01*
X1701728Y1553347D01*
X1696634Y1549646D01*
X1691024Y1546788D01*
X1685036Y1544842D01*
X1678818Y1543858D01*
X1655669Y1543858D01*
G37*
%LPD*%
%LPC*%
G36*
X1655669Y743858D02*
X1655669Y743858D01*
X1655669Y781857D01*
X1655662Y781927D01*
X1655667Y781996D01*
X1655583Y782714D01*
X1655511Y783435D01*
X1655491Y783501D01*
X1655483Y783570D01*
X1655382Y783879D01*
X1655538Y784417D01*
X1655543Y784486D01*
X1655561Y784553D01*
X1655669Y785859D01*
X1655669Y823859D01*
X1678818Y823859D01*
X1685036Y822874D01*
X1691024Y820928D01*
X1696634Y818070D01*
X1701728Y814369D01*
X1706180Y809917D01*
X1709881Y804823D01*
X1712739Y799213D01*
X1714685Y793225D01*
X1715753Y786483D01*
X1715795Y786321D01*
X1715811Y786156D01*
X1715995Y785557D01*
X1716155Y784949D01*
X1716228Y784800D01*
X1716276Y784641D01*
X1716576Y784088D01*
X1716677Y783881D01*
X1716454Y783381D01*
X1716174Y782819D01*
X1716131Y782658D01*
X1716063Y782507D01*
X1715808Y781459D01*
X1715762Y781288D01*
X1715759Y781261D01*
X1715753Y781234D01*
X1714685Y774491D01*
X1712739Y768503D01*
X1709881Y762894D01*
X1706180Y757800D01*
X1701728Y753347D01*
X1696634Y749646D01*
X1691024Y746788D01*
X1685036Y744842D01*
X1678818Y743858D01*
X1655669Y743858D01*
G37*
%LPD*%
%LPC*%
G36*
X1479503Y240621D02*
X1479503Y240621D01*
X1479503Y314311D01*
X1488736Y312204D01*
X1498383Y308828D01*
X1507593Y304393D01*
X1516246Y298955D01*
X1524237Y292583D01*
X1531465Y285355D01*
X1537837Y277365D01*
X1543275Y268711D01*
X1547710Y259501D01*
X1551086Y249854D01*
X1553193Y240621D01*
X1479503Y240621D01*
G37*
%LPD*%
%LPC*%
G36*
X1316393Y387716D02*
X1316393Y387716D01*
X1316393Y461406D01*
X1325626Y459298D01*
X1335272Y455923D01*
X1344483Y451488D01*
X1353136Y446050D01*
X1361127Y439678D01*
X1368355Y432450D01*
X1374727Y424459D01*
X1380165Y415805D01*
X1384600Y406595D01*
X1387976Y396949D01*
X1390083Y387716D01*
X1316393Y387716D01*
G37*
%LPD*%
%LPC*%
G36*
X1210704Y387716D02*
X1210704Y387716D01*
X1212812Y396949D01*
X1216187Y406595D01*
X1220623Y415805D01*
X1226060Y424459D01*
X1232432Y432450D01*
X1239661Y439678D01*
X1247651Y446050D01*
X1256305Y451488D01*
X1265515Y455923D01*
X1275161Y459298D01*
X1284394Y461406D01*
X1284394Y387716D01*
X1210704Y387716D01*
G37*
%LPD*%
%LPC*%
G36*
X1373815Y240621D02*
X1373815Y240621D01*
X1375922Y249854D01*
X1379297Y259501D01*
X1383733Y268711D01*
X1389170Y277365D01*
X1395543Y285355D01*
X1402771Y292583D01*
X1410761Y298955D01*
X1419415Y304393D01*
X1428625Y308828D01*
X1438272Y312204D01*
X1447505Y314311D01*
X1447505Y240621D01*
X1373815Y240621D01*
G37*
%LPD*%
%LPC*%
G36*
X1479503Y208623D02*
X1479503Y208623D01*
X1553193Y208623D01*
X1551086Y199390D01*
X1547710Y189743D01*
X1543275Y180533D01*
X1537837Y171879D01*
X1531465Y163889D01*
X1524237Y156661D01*
X1516246Y150289D01*
X1507593Y144851D01*
X1498383Y140416D01*
X1488736Y137040D01*
X1479503Y134933D01*
X1479503Y208623D01*
G37*
%LPD*%
%LPC*%
G36*
X1316393Y355717D02*
X1316393Y355717D01*
X1390083Y355717D01*
X1387976Y346484D01*
X1384600Y336838D01*
X1380165Y327628D01*
X1374727Y318974D01*
X1368355Y310983D01*
X1361127Y303755D01*
X1353136Y297383D01*
X1344483Y291945D01*
X1335272Y287510D01*
X1325626Y284135D01*
X1316393Y282027D01*
X1316393Y355717D01*
G37*
%LPD*%
%LPC*%
G36*
X1438272Y137040D02*
X1438272Y137040D01*
X1428625Y140416D01*
X1419415Y144851D01*
X1410761Y150289D01*
X1402771Y156661D01*
X1395543Y163889D01*
X1389170Y171879D01*
X1383733Y180533D01*
X1379297Y189743D01*
X1375922Y199390D01*
X1373815Y208623D01*
X1447505Y208623D01*
X1447505Y134933D01*
X1438272Y137040D01*
G37*
%LPD*%
%LPC*%
G36*
X1466692Y836771D02*
X1466692Y836771D01*
X1466692Y866772D01*
X1489841Y866772D01*
X1496059Y865787D01*
X1502048Y863842D01*
X1507657Y860984D01*
X1512751Y857282D01*
X1517204Y852830D01*
X1520905Y847736D01*
X1523763Y842127D01*
X1525503Y836771D01*
X1466692Y836771D01*
G37*
%LPD*%
%LPC*%
G36*
X1576859Y1593858D02*
X1576859Y1593858D01*
X1578599Y1599213D01*
X1581457Y1604823D01*
X1585158Y1609917D01*
X1589611Y1614369D01*
X1594705Y1618070D01*
X1600314Y1620928D01*
X1606303Y1622874D01*
X1612521Y1623859D01*
X1635670Y1623859D01*
X1635670Y1593858D01*
X1576859Y1593858D01*
G37*
%LPD*%
%LPC*%
G36*
X1387883Y836771D02*
X1387883Y836771D01*
X1389623Y842127D01*
X1392481Y847736D01*
X1396182Y852830D01*
X1400634Y857282D01*
X1405728Y860984D01*
X1411338Y863842D01*
X1417326Y865787D01*
X1423544Y866772D01*
X1446693Y866772D01*
X1446693Y836771D01*
X1387883Y836771D01*
G37*
%LPD*%
%LPC*%
G36*
X1576859Y793858D02*
X1576859Y793858D01*
X1578599Y799213D01*
X1581457Y804823D01*
X1585158Y809917D01*
X1589611Y814369D01*
X1594705Y818070D01*
X1600314Y820928D01*
X1606303Y822874D01*
X1612521Y823859D01*
X1635670Y823859D01*
X1635670Y793858D01*
X1576859Y793858D01*
G37*
%LPD*%
%LPC*%
G36*
X1466692Y786771D02*
X1466692Y786771D01*
X1466692Y816772D01*
X1525503Y816772D01*
X1523763Y811416D01*
X1520905Y805807D01*
X1517204Y800713D01*
X1512751Y796261D01*
X1507657Y792560D01*
X1502048Y789702D01*
X1496059Y787756D01*
X1489841Y786771D01*
X1466692Y786771D01*
G37*
%LPD*%
%LPC*%
G36*
X1612521Y743858D02*
X1612521Y743858D01*
X1606303Y744842D01*
X1600314Y746788D01*
X1594705Y749646D01*
X1589611Y753347D01*
X1585158Y757800D01*
X1581457Y762894D01*
X1578599Y768503D01*
X1576859Y773859D01*
X1635670Y773859D01*
X1635670Y743857D01*
X1612521Y743858D01*
G37*
%LPD*%
%LPC*%
G36*
X1612521Y1543858D02*
X1612521Y1543858D01*
X1606303Y1544842D01*
X1600314Y1546788D01*
X1594705Y1549646D01*
X1589611Y1553347D01*
X1585158Y1557800D01*
X1581457Y1562894D01*
X1578599Y1568503D01*
X1576859Y1573859D01*
X1635670Y1573859D01*
X1635670Y1543857D01*
X1612521Y1543858D01*
G37*
%LPD*%
%LPC*%
G36*
X1423544Y786771D02*
X1423544Y786771D01*
X1417326Y787756D01*
X1411338Y789702D01*
X1405728Y792560D01*
X1400634Y796261D01*
X1396182Y800713D01*
X1392481Y805807D01*
X1389623Y811416D01*
X1387883Y816772D01*
X1446693Y816772D01*
X1446693Y786771D01*
X1423544Y786771D01*
G37*
%LPD*%
%LPC*%
G36*
X480441Y745401D02*
X480441Y745401D01*
X480441Y780402D01*
X490252Y780402D01*
X515442Y755213D01*
X515442Y745401D01*
X480441Y745401D01*
G37*
%LPD*%
%LPC*%
G36*
X473354Y1584378D02*
X473354Y1584378D01*
X473354Y1619379D01*
X483166Y1619379D01*
X508355Y1594189D01*
X508355Y1584378D01*
X473354Y1584378D01*
G37*
%LPD*%
%LPC*%
G36*
X429440Y745401D02*
X429440Y745401D01*
X429440Y755213D01*
X454630Y780402D01*
X464441Y780402D01*
X464441Y745401D01*
X429440Y745401D01*
G37*
%LPD*%
%LPC*%
G36*
X480441Y694401D02*
X480441Y694401D01*
X480441Y729402D01*
X515442Y729402D01*
X515442Y719590D01*
X490252Y694401D01*
X480441Y694401D01*
G37*
%LPD*%
%LPC*%
G36*
X422354Y1584378D02*
X422354Y1584378D01*
X422354Y1594189D01*
X447543Y1619379D01*
X457354Y1619379D01*
X457354Y1584378D01*
X422354Y1584378D01*
G37*
%LPD*%
%LPC*%
G36*
X473354Y1533377D02*
X473354Y1533377D01*
X473354Y1568378D01*
X508355Y1568378D01*
X508355Y1558567D01*
X483166Y1533377D01*
X473354Y1533377D01*
G37*
%LPD*%
%LPC*%
G36*
X447543Y1533377D02*
X447543Y1533377D01*
X422354Y1558567D01*
X422354Y1568378D01*
X457354Y1568378D01*
X457354Y1533377D01*
X447543Y1533377D01*
G37*
%LPD*%
%LPC*%
G36*
X454630Y694401D02*
X454630Y694401D01*
X429440Y719590D01*
X429440Y729402D01*
X464441Y729402D01*
X464441Y694401D01*
X454630Y694401D01*
G37*
%LPD*%
%LPC*%
G36*
X1047842Y643440D02*
X1047842Y643440D01*
X1047842Y679444D01*
X1048848Y679284D01*
X1055884Y676998D01*
X1062477Y673639D01*
X1068461Y669291D01*
X1073693Y664059D01*
X1078041Y658075D01*
X1081400Y651483D01*
X1083686Y644446D01*
X1083845Y643440D01*
X1047842Y643440D01*
G37*
%LPD*%
%LPC*%
G36*
X1047842Y623441D02*
X1047842Y623441D01*
X1083845Y623441D01*
X1083686Y622435D01*
X1081400Y615399D01*
X1078041Y608807D01*
X1073693Y602822D01*
X1068461Y597590D01*
X1062477Y593242D01*
X1055884Y589884D01*
X1048848Y587597D01*
X1047842Y587438D01*
X1047842Y623441D01*
G37*
%LPD*%
%LPC*%
G36*
X991840Y643440D02*
X991840Y643440D01*
X991999Y644446D01*
X994285Y651483D01*
X997644Y658075D01*
X1001992Y664059D01*
X1007224Y669291D01*
X1013208Y673639D01*
X1019800Y676998D01*
X1026837Y679284D01*
X1027843Y679444D01*
X1027843Y643440D01*
X991840Y643440D01*
G37*
%LPD*%
%LPC*%
G36*
X1026837Y587597D02*
X1026837Y587597D01*
X1019800Y589884D01*
X1013208Y593242D01*
X1007224Y597590D01*
X1001992Y602822D01*
X997644Y608807D01*
X994285Y615399D01*
X991999Y622435D01*
X991840Y623441D01*
X1027843Y623441D01*
X1027843Y587438D01*
X1026837Y587597D01*
G37*
%LPD*%
%LPC*%
G36*
X536740Y159575D02*
X536740Y159575D01*
X536740Y192575D01*
X545723Y192575D01*
X569741Y168558D01*
X569741Y159575D01*
X536740Y159575D01*
G37*
%LPD*%
%LPC*%
G36*
X536740Y441464D02*
X536740Y441464D01*
X536740Y474465D01*
X545723Y474465D01*
X569741Y450447D01*
X569741Y441464D01*
X536740Y441464D01*
G37*
%LPD*%
%LPC*%
G36*
X487739Y441464D02*
X487739Y441464D01*
X487739Y450447D01*
X511757Y474465D01*
X520740Y474465D01*
X520740Y441464D01*
X487739Y441464D01*
G37*
%LPD*%
%LPC*%
G36*
X487739Y159575D02*
X487739Y159575D01*
X487739Y168558D01*
X511757Y192575D01*
X520740Y192575D01*
X520740Y159575D01*
X487739Y159575D01*
G37*
%LPD*%
%LPC*%
G36*
X536740Y392464D02*
X536740Y392464D01*
X536740Y425465D01*
X569741Y425465D01*
X569741Y416482D01*
X545723Y392464D01*
X536740Y392464D01*
G37*
%LPD*%
%LPC*%
G36*
X536740Y110574D02*
X536740Y110574D01*
X536740Y143575D01*
X569741Y143575D01*
X569741Y134592D01*
X545723Y110574D01*
X536740Y110574D01*
G37*
%LPD*%
%LPC*%
G36*
X511757Y392464D02*
X511757Y392464D01*
X487739Y416482D01*
X487739Y425465D01*
X520740Y425465D01*
X520740Y392464D01*
X511757Y392464D01*
G37*
%LPD*%
%LPC*%
G36*
X511757Y110574D02*
X511757Y110574D01*
X487739Y134592D01*
X487739Y143575D01*
X520740Y143575D01*
X520740Y110574D01*
X511757Y110574D01*
G37*
%LPD*%
%LPC*%
G36*
X1029653Y1671386D02*
X1029653Y1671386D01*
X1029653Y1704643D01*
X1031489Y1704352D01*
X1037776Y1702309D01*
X1043667Y1699308D01*
X1049015Y1695422D01*
X1053690Y1690747D01*
X1057576Y1685399D01*
X1060577Y1679508D01*
X1062620Y1673221D01*
X1062911Y1671386D01*
X1029653Y1671386D01*
G37*
%LPD*%
%LPC*%
G36*
X729653Y1571386D02*
X729653Y1571386D01*
X729653Y1604643D01*
X731489Y1604352D01*
X737776Y1602309D01*
X743667Y1599308D01*
X749015Y1595422D01*
X753690Y1590747D01*
X757576Y1585399D01*
X760577Y1579508D01*
X762620Y1573221D01*
X762911Y1571386D01*
X729653Y1571386D01*
G37*
%LPD*%
%LPC*%
G36*
X680396Y1571386D02*
X680396Y1571386D01*
X680687Y1573221D01*
X682730Y1579508D01*
X685731Y1585399D01*
X689617Y1590747D01*
X694292Y1595422D01*
X699640Y1599308D01*
X705531Y1602309D01*
X711818Y1604352D01*
X713654Y1604643D01*
X713654Y1571386D01*
X680396Y1571386D01*
G37*
%LPD*%
%LPC*%
G36*
X729653Y1555386D02*
X729653Y1555386D01*
X762911Y1555386D01*
X762620Y1553550D01*
X760577Y1547263D01*
X757576Y1541372D01*
X753690Y1536025D01*
X749015Y1531349D01*
X743667Y1527464D01*
X737776Y1524462D01*
X731489Y1522419D01*
X729653Y1522129D01*
X729653Y1555386D01*
G37*
%LPD*%
%LPC*%
G36*
X1029653Y1655386D02*
X1029653Y1655386D01*
X1062911Y1655386D01*
X1062620Y1653550D01*
X1060577Y1647263D01*
X1057576Y1641372D01*
X1053690Y1636025D01*
X1049015Y1631349D01*
X1043667Y1627464D01*
X1037776Y1624462D01*
X1031489Y1622419D01*
X1029653Y1622129D01*
X1029653Y1655386D01*
G37*
%LPD*%
%LPC*%
G36*
X980396Y1671386D02*
X980396Y1671386D01*
X980687Y1673221D01*
X982730Y1679508D01*
X985731Y1685399D01*
X989617Y1690747D01*
X994292Y1695422D01*
X999640Y1699308D01*
X1005531Y1702309D01*
X1011818Y1704352D01*
X1013654Y1704643D01*
X1013654Y1671386D01*
X980396Y1671386D01*
G37*
%LPD*%
%LPC*%
G36*
X1011818Y1622419D02*
X1011818Y1622419D01*
X1005531Y1624462D01*
X999640Y1627464D01*
X994292Y1631349D01*
X989617Y1636025D01*
X985731Y1641372D01*
X982730Y1647263D01*
X980687Y1653550D01*
X980396Y1655386D01*
X1013654Y1655386D01*
X1013654Y1622129D01*
X1011818Y1622419D01*
G37*
%LPD*%
%LPC*%
G36*
X711818Y1522419D02*
X711818Y1522419D01*
X705531Y1524462D01*
X699640Y1527464D01*
X694292Y1531349D01*
X689617Y1536025D01*
X685731Y1541372D01*
X682730Y1547263D01*
X680687Y1553550D01*
X680396Y1555386D01*
X713654Y1555386D01*
X713654Y1522129D01*
X711818Y1522419D01*
G37*
%LPD*%
%LPC*%
G36*
X1434771Y1910756D02*
X1434771Y1910756D01*
X1434771Y1938757D01*
X1441683Y1938757D01*
X1462772Y1917668D01*
X1462772Y1910756D01*
X1434771Y1910756D01*
G37*
%LPD*%
%LPC*%
G36*
X1444614Y1772960D02*
X1444614Y1772960D01*
X1444614Y1800961D01*
X1451526Y1800961D01*
X1472615Y1779872D01*
X1472615Y1772960D01*
X1444614Y1772960D01*
G37*
%LPD*%
%LPC*%
G36*
X1400613Y1772960D02*
X1400613Y1772960D01*
X1400613Y1779872D01*
X1421702Y1800961D01*
X1428614Y1800961D01*
X1428614Y1772960D01*
X1400613Y1772960D01*
G37*
%LPD*%
%LPC*%
G36*
X1390771Y1910756D02*
X1390771Y1910756D01*
X1390771Y1917668D01*
X1411860Y1938757D01*
X1418772Y1938757D01*
X1418772Y1910756D01*
X1390771Y1910756D01*
G37*
%LPD*%
%LPC*%
G36*
X1434771Y1866755D02*
X1434771Y1866755D01*
X1434771Y1894756D01*
X1462772Y1894756D01*
X1462772Y1887844D01*
X1441683Y1866755D01*
X1434771Y1866755D01*
G37*
%LPD*%
%LPC*%
G36*
X1444614Y1728960D02*
X1444614Y1728960D01*
X1444614Y1756961D01*
X1472615Y1756961D01*
X1472615Y1750049D01*
X1451526Y1728960D01*
X1444614Y1728960D01*
G37*
%LPD*%
%LPC*%
G36*
X1411860Y1866755D02*
X1411860Y1866755D01*
X1390771Y1887844D01*
X1390771Y1894756D01*
X1418772Y1894756D01*
X1418772Y1866755D01*
X1411860Y1866755D01*
G37*
%LPD*%
%LPC*%
G36*
X1421702Y1728960D02*
X1421702Y1728960D01*
X1400613Y1750049D01*
X1400613Y1756961D01*
X1428614Y1756961D01*
X1428614Y1728960D01*
X1421702Y1728960D01*
G37*
%LPD*%
%LPC*%
G36*
X1300392Y371715D02*
X1300392Y371715D01*
X1300392Y371718D01*
X1300395Y371718D01*
X1300395Y371715D01*
X1300392Y371715D01*
G37*
%LPD*%
%LPC*%
G36*
X1463503Y224621D02*
X1463503Y224621D01*
X1463503Y224623D01*
X1463505Y224623D01*
X1463505Y224621D01*
X1463503Y224621D01*
G37*
%LPD*%
D10*
X528740Y151575D03*
D11*
X528740Y251575D03*
D10*
X528740Y433465D03*
D11*
X528740Y533465D03*
D12*
X1326772Y1902756D03*
X1426772Y1902756D03*
X1336614Y1764961D03*
X1436614Y1764961D03*
X1223228Y950000D03*
X1323228Y950000D03*
D13*
X215433Y252362D02*
X155433Y252362D01*
X155433Y352362D02*
X215433Y352362D01*
X215433Y452362D02*
X155433Y452362D01*
D14*
X1175283Y223622D03*
D15*
X1463504Y224622D03*
X1300394Y371717D03*
D13*
X227244Y2252362D02*
X167244Y2252362D01*
X167244Y2152362D02*
X227244Y2152362D01*
X227244Y2052362D02*
X167244Y2052362D01*
X167244Y1952362D02*
X227244Y1952362D01*
X227244Y1852362D02*
X167244Y1852362D01*
X190866Y1454331D02*
X250866Y1454331D01*
X250866Y1354331D02*
X190866Y1354331D01*
X190866Y1254331D02*
X250866Y1254331D01*
X250866Y1154331D02*
X190866Y1154331D01*
X190866Y1054331D02*
X250866Y1054331D01*
X250866Y954331D02*
X190866Y954331D01*
D16*
X565354Y1576378D03*
X465354Y1576378D03*
D17*
X1214961Y539764D03*
X1214961Y839764D03*
D18*
X611811Y925591D03*
X611811Y625591D03*
D19*
X1037843Y633441D03*
X781843Y633441D03*
X1037843Y811441D03*
X781843Y811441D03*
D20*
X1021654Y963386D03*
X1021654Y1063386D03*
X1021654Y1163386D03*
X1021654Y1263386D03*
X1021654Y1363386D03*
X1021654Y1463386D03*
X1021654Y1563386D03*
X1021654Y1663386D03*
X1021654Y1763386D03*
X1021654Y1863386D03*
X1021654Y1963386D03*
X1021654Y2063386D03*
X1021654Y2163386D03*
X1021654Y2263386D03*
X721654Y2263386D03*
X721654Y2163386D03*
X721654Y2063386D03*
X721654Y1963386D03*
X721654Y1863386D03*
X721654Y1763386D03*
X721654Y1663386D03*
X721654Y1563386D03*
X721654Y1463386D03*
X721654Y1363386D03*
X721654Y1263386D03*
X721654Y1163386D03*
X721654Y1063386D03*
X721654Y963386D03*
D21*
X1177559Y1935433D03*
X1177559Y1735433D03*
D13*
X1615669Y1972047D02*
X1675669Y1972047D01*
X1675669Y2072047D02*
X1615669Y2072047D01*
X1615669Y2172047D02*
X1675669Y2172047D01*
X1675669Y2272047D02*
X1615669Y2272047D01*
X1615669Y683858D02*
X1675669Y683858D01*
X1675669Y783858D02*
X1615669Y783858D01*
X1615669Y883858D02*
X1675669Y883858D01*
X1675669Y983858D02*
X1615669Y983858D01*
X1615669Y1083858D02*
X1675669Y1083858D01*
X1675669Y1183858D02*
X1615669Y1183858D01*
X1615669Y1283858D02*
X1675669Y1283858D01*
X1675669Y1383858D02*
X1615669Y1383858D01*
X1615669Y1483858D02*
X1675669Y1483858D01*
X1675669Y1583858D02*
X1615669Y1583858D01*
D22*
X472441Y837402D03*
X472441Y737402D03*
D23*
X622441Y1771654D03*
X322441Y1771654D03*
D24*
X811024Y236220D03*
X921260Y236220D03*
D13*
X1426693Y726772D02*
X1486693Y726772D01*
X1486693Y826772D02*
X1426693Y826772D01*
X1426693Y926772D02*
X1486693Y926772D01*
D25*
X1299213Y372898D02*
X1300394Y371717D01*
X1299213Y372898D02*
X1299213Y472441D01*
X1259843Y472441D01*
X1246134Y458733D01*
X1300394Y371717D02*
X1321197Y371717D01*
X1645669Y783858D02*
X1645669Y831858D01*
D26*
X528740Y533465D02*
X516142Y546063D01*
D27*
X611811Y625591D01*
D28*
X528740Y533465D02*
X848425Y533465D01*
X905512Y590551D01*
X956299Y539764D01*
X1214961Y539764D01*
D25*
X1422835Y539764D01*
D26*
X257874Y533465D02*
X185433Y461024D01*
X257874Y533465D02*
X528740Y533465D01*
D27*
X1499606Y683858D02*
X1645669Y683858D01*
X1499606Y683858D02*
X1456693Y726772D01*
D25*
X1456693Y573622D01*
X1422835Y539764D01*
D27*
X1539764Y1456693D02*
X1566929Y1483858D01*
X1181102Y1456693D02*
X1074409Y1563386D01*
X1181102Y1456693D02*
X1539764Y1456693D01*
X782283Y1763386D02*
X721654Y1763386D01*
X1566929Y1483858D02*
X1645669Y1483858D01*
X1074409Y1563386D02*
X1023622Y1563386D01*
X984252Y1563386D02*
X982283Y1563386D01*
X839764Y1705906D01*
X782283Y1763386D01*
D28*
X905512Y1614173D02*
X905512Y590551D01*
D27*
X797244Y1663386D02*
X839764Y1705906D01*
D29*
X984252Y1563386D02*
X1021654Y1563386D01*
X1023622Y1563386D01*
D30*
X1021654Y1563386D02*
X956299Y1563386D01*
X905512Y1614173D01*
D26*
X185433Y461024D02*
X185433Y452362D01*
D27*
X721654Y1663386D02*
X797244Y1663386D01*
X1021654Y1763386D02*
X1149606Y1763386D01*
X1177559Y1735433D01*
X1207087Y1764961D02*
X1336614Y1764961D01*
X1207087Y1764961D02*
X1177559Y1735433D01*
X1021654Y1863386D02*
X1087402Y1929134D01*
X1171260Y1929134D02*
X1177559Y1935433D01*
X1171260Y1929134D02*
X1087402Y1929134D01*
X1294094Y1935433D02*
X1326772Y1902756D01*
X1294094Y1935433D02*
X1177559Y1935433D01*
X1223228Y950000D02*
X1223228Y944882D01*
X1186638Y811441D02*
X1037843Y811441D01*
D28*
X1214961Y936614D02*
X1223228Y944882D01*
D27*
X1214961Y936614D02*
X1214961Y905512D01*
X1214961Y839764D01*
X1040157Y944882D02*
X1021654Y963386D01*
X1040157Y944882D02*
X1223228Y944882D01*
X1399213Y926772D02*
X1456693Y926772D01*
X1220472Y905512D02*
X1214961Y905512D01*
X1220472Y905512D02*
X1259843Y866142D01*
X1338583Y866142D01*
X1399213Y926772D01*
X1214961Y839764D02*
X1186638Y811441D01*
X710630Y1852362D02*
X197244Y1852362D01*
X710630Y1852362D02*
X721654Y1863386D01*
X322441Y1771654D02*
X241732Y1852362D01*
X197244Y1852362D01*
X1323228Y1008268D02*
X1377953Y1062992D01*
X1606299Y883858D02*
X1645669Y883858D01*
X1606299Y883858D02*
X1427165Y1062992D01*
X1377953Y1062992D01*
X1323228Y1008268D02*
X1323228Y950000D01*
X1448031Y1142126D02*
X1100394Y1142126D01*
X1021654Y1063386D01*
X1606299Y983858D02*
X1645669Y983858D01*
X1606299Y983858D02*
X1448031Y1142126D01*
X1487402Y1202756D02*
X1061024Y1202756D01*
X1021654Y1163386D01*
X1606299Y1083858D02*
X1645669Y1083858D01*
X1606299Y1083858D02*
X1487402Y1202756D01*
X268898Y1102362D02*
X220866Y1054331D01*
X682677Y1102362D02*
X721654Y1063386D01*
X682677Y1102362D02*
X268898Y1102362D01*
D26*
X220866Y1154331D02*
X229921Y1163386D01*
D27*
X721654Y1163386D01*
D26*
X229921Y1263386D02*
X220866Y1254331D01*
D27*
X229921Y1263386D02*
X721654Y1263386D01*
X712598Y1354331D02*
X220866Y1354331D01*
X712598Y1354331D02*
X721654Y1363386D01*
D26*
X229921Y1463386D02*
X220866Y1454331D01*
D30*
X229921Y1463386D02*
X721654Y1463386D01*
D27*
X1021654Y1263386D02*
X1526772Y1263386D01*
X1606299Y1183858D02*
X1645669Y1183858D01*
X1606299Y1183858D02*
X1526772Y1263386D01*
X1566142Y1324016D02*
X1061024Y1324016D01*
X1021654Y1363386D01*
X1606299Y1283858D02*
X1645669Y1283858D01*
X1606299Y1283858D02*
X1566142Y1324016D01*
X1645669Y1383858D02*
X1101181Y1383858D01*
X1021654Y1463386D01*
X1021654Y1963386D02*
X1103937Y2045669D01*
X1143307Y2045669D01*
X1608465Y1934843D02*
X1645669Y1972047D01*
X1608465Y1934843D02*
X1496063Y2047244D01*
X1144882Y2047244D01*
X1143307Y2045669D01*
X1021654Y2263386D02*
X1041732Y2283465D01*
X1634252Y2283465D02*
X1645669Y2272047D01*
X1634252Y2283465D02*
X1041732Y2283465D01*
X721654Y2263386D02*
X710630Y2252362D01*
X629921Y2252362D01*
X197244Y2252362D01*
X208268Y2163386D02*
X197244Y2152362D01*
X208268Y2163386D02*
X721654Y2163386D01*
X710630Y2052362D02*
X197244Y2052362D01*
X710630Y2052362D02*
X721654Y2063386D01*
X721654Y1963386D02*
X710630Y1952362D01*
D30*
X197244Y1952362D01*
D27*
X220866Y954331D02*
X324409Y954331D01*
X721654Y963386D02*
X721654Y971260D01*
X393701Y1023622D02*
X324409Y954331D01*
X393701Y1023622D02*
X669291Y1023622D01*
X721654Y971260D01*
X1021654Y2063386D02*
X1084252Y2125984D01*
X1550000Y2072047D02*
X1645669Y2072047D01*
X1496063Y2125984D02*
X1084252Y2125984D01*
X1496063Y2125984D02*
X1550000Y2072047D01*
X1062992Y2204724D02*
X1021654Y2163386D01*
X1062992Y2204724D02*
X1535433Y2204724D01*
X1606890Y2133268D01*
X1645669Y2172047D01*
D26*
X811024Y236220D02*
X708661Y236220D01*
D28*
X693307Y251575D02*
X528740Y251575D01*
X693307Y251575D02*
X708661Y236220D01*
X527953Y252362D02*
X185433Y252362D01*
X527953Y252362D02*
X528740Y251575D01*
D27*
X523622Y837402D02*
X472441Y837402D01*
X523622Y837402D02*
X611811Y925591D01*
D30*
X622441Y1633465D02*
X622441Y1771654D01*
X622441Y1633465D02*
X565354Y1576378D01*
D26*
X921260Y236220D02*
X1162685Y236220D01*
X1175283Y223622D01*
M02*
