M48
;GenerationSoftware,Autodesk,EAGLE,9.6.2*%
;CreationDate,2023-04-02T12:19:40Z*%
FMAT,2
ICI,OFF
INCH,TZ,00.0000
T6C0.0276
T5C0.0320
T4C0.0400
T3C0.1180
T2C0.1220
T1C0.1260
%
G90
M72
T1
X11753Y2236
T2
X16142Y17717
X1969Y16535
X1969Y7480
X16142Y5118
T3
X13004Y3717
X14635Y2246
T4
X16457Y14839
X16457Y15839
X14567Y7268
X14567Y8268
X14567Y9268
X16457Y11839
X16457Y19720
X1972Y20524
X16457Y20720
X16457Y21720
X1854Y2524
X1854Y3524
X1854Y4524
X1972Y22524
X1972Y21524
X16457Y22720
X1972Y19524
X1972Y18524
X2209Y14543
X2209Y13543
X2209Y12543
X2209Y11543
X2209Y10543
X2209Y9543
X16457Y6839
X16457Y7839
X16457Y8839
X16457Y9839
X16457Y10839
X16457Y12839
X10378Y6334
X7818Y6334
X10378Y8114
X7818Y8114
X16457Y13839
T5
X5287Y1516
X5287Y2516
X5287Y4335
X5287Y5335
X13268Y19028
X14268Y19028
X13366Y17650
X12232Y9500
X13232Y9500
X14366Y17650
X5654Y15764
X4654Y15764
X12150Y5398
X12150Y8398
X6118Y9256
X6118Y6256
X10217Y9634
X10217Y10634
X10217Y11634
X10217Y12634
X10217Y13634
X7217Y14634
X7217Y13634
X7217Y12634
X7217Y11634
X7217Y10634
X7217Y9634
X10217Y15634
X10217Y16634
X10217Y17634
X10217Y18634
X10217Y19634
X10217Y20634
X10217Y21634
X10217Y22634
X7217Y22634
X7217Y21634
X10217Y14634
X7217Y20634
X7217Y19634
X7217Y18634
X7217Y17634
X4724Y8374
X4724Y7374
X6224Y17717
X3224Y17717
X7217Y16634
X7217Y15634
T6
X11776Y17354
X11776Y19354
M30